<?xml version="1.0" standalone="no"?>
<!DOCTYPE svg PUBLIC "-//W3C//DTD SVG 1.1//EN" "http://www.w3.org/Graphics/SVG/1.1/DTD/svg11.dtd" >
<svg xmlns="http://www.w3.org/2000/svg">
<metadata>
This is a custom SVG webfont generated by Font Squirrel.
Copyright   : Copyright c 2010 by Oded Ezer All rights reserved
Designer    : c Designed by Oded Ezer as a Hebrew version for Rob Kellers Vesper
Foundry     : Oded Ezer
Foundry URL : httpwwwezerfamilycom
</metadata>
<defs>
<font id="webfontXqjqfm2I" horiz-adv-x="0" >
<font-face units-per-em="2048" ascent="1536" descent="-512" />
<missing-glyph horiz-adv-x="469" />
<glyph unicode=" "  horiz-adv-x="469" />
<glyph unicode="&#x09;" horiz-adv-x="469" />
<glyph unicode="&#xa0;" horiz-adv-x="469" />
<glyph unicode="!" horiz-adv-x="497" d="M185 412q-7 2 -13 8t-7 17q-3 21 -5.5 55t-5 76.5t-4.5 89.5t-3.5 94.5t-2.5 92.5t-1 82v191q0 16 5.5 20t19.5 4h144q22 0 22 -24l-4 -722q0 -11 -4.5 -15t-9.5 -4q-2 0 -8 1q-4 0 -18 4l-39 11zM243 -33q-16 1 -39.5 17.5t-45 38t-37 44t-15.5 36.5q0 15 16.5 39.5 t39 47.5t47 39.5t39.5 15.5q14 -1 36.5 -17.5t44 -38t37.5 -44t18 -36.5q1 -17 -15.5 -41.5t-39.5 -47t-47 -38.5t-39 -15z" />
<glyph unicode="&#x22;" horiz-adv-x="669" d="M411 1287q0 14 14.5 35.5t34.5 42t41.5 35t35.5 14.5q13 0 34 -16t40.5 -37t33.5 -40.5t14 -26.5q0 -26 -7 -54t-17 -51q-29 -73 -79 -148.5t-113 -138.5q-7 -7 -17 -3l-14 7l-22 12q-7 6 -3 14l13 31l24.5 60t30 82t27.5 98q-29 19 -50 43t-21 41zM86 1287 q0 14 14.5 35.5t34.5 42t41.5 35t35.5 14.5q13 0 34 -16t40.5 -37t33.5 -40.5t14 -26.5q0 -26 -7 -54t-17 -51q-29 -73 -79 -148.5t-113 -138.5q-7 -7 -17 -3q-5 3 -13 7l-23 12q-7 6 -3 14l14 31l24 60t29.5 82t27.5 98q-29 19 -50 43t-21 41z" />
<glyph unicode="#" horiz-adv-x="1421" d="M1115 319q-16 -4 -73 -6.5t-139 -4.5l-131 -327q-6 -16 -20 -16q-5 0 -10.5 1t-15.5 4t-26 9l-43 16q-15 6 -15 18q0 8 4 17l110 274q-76 -2 -156 -3l-156 -2l-128 -318q-6 -16 -20 -16q-5 0 -10.5 1t-15.5 4t-26 9l-43 16q-15 6 -15 18q0 8 4 17l107 268q-77 -1 -131 -1 h-67q-13 0 -13 13v6l2 16l5.5 31.5t8.5 54.5q3 19 24 19h227l129 321q-78 -1 -132 -1h-67q-13 0 -13 13v6l2 16l5.5 32t8.5 54q3 20 24 20h229l107 266q6 14 20 14q3 0 7.5 -1t14.5 -5l28 -10l46 -18q11 -5 11 -16q0 -3 -1 -7t-2 -7q-2 -4 -3 -8l-84 -208h312l107 266 q6 14 20 14q3 0 8 -1t15 -5l27 -10l46 -18q11 -5 11 -16q0 -3 -1 -7t-2 -7q-2 -4 -3 -8l-84 -208h180q17 0 17 -15v-9q0 -4 -2 -13l-4 -23q-2 -14 -6 -38q-2 -11 -7.5 -15t-17.5 -6q-16 -4 -72.5 -6.5t-139.5 -4.5l-132 -331h180q17 0 17 -14v-9t-2 -14l-4 -23 q-2 -14 -6 -37q-2 -11 -7.5 -15t-17.5 -6zM941 764q-77 -2 -157 -3l-156 -2l-129 -322h310z" />
<glyph unicode="$" horiz-adv-x="913" d="M97 52q-14 9 -14 27q0 12 5.5 39t13 57.5t16.5 59.5t16 45q5 12 17 12q3 0 25 -4t49 -12q11 -3 14.5 -8.5t4.5 -17.5l14 -154q13 0 30.5 -1t34.5 -1q15 0 31 0.5t33 1.5l10 410q-1 0 -2 1q-44 16 -94 36.5t-93 53.5t-71.5 82t-28.5 121q0 66 24.5 117.5t64.5 89t91 61.5 t105 35v101q0 10 4 14t9 6l20 8l33 14l32 11t20 5q11 0 11 -16q0 -19 -1 -40q-1 -18 -1.5 -42t-1.5 -51q26 -1 51 -4t46.5 -6.5t37.5 -7t23 -4.5q1 0 9.5 0.5t19.5 0.5l22 2h17q11 0 19.5 -6t10.5 -18q2 -25 6 -62l8 -72l6 -62q2 -26 2 -29q0 -12 -10 -14q-23 -6 -37 -9 t-22.5 -4.5t-12.5 -1.5h-5q-12 0 -18 16l-80 168q-26 0 -49.5 -1t-46.5 -3l-11 -364l28 -9q67 -24 119.5 -52t89 -65t56 -83.5t19.5 -107.5q0 -67 -21 -123.5t-60 -100.5t-95 -73.5t-126 -42.5v-45q0 -22 1 -43q0 -8 -2 -13.5t-11 -9.5l-53 -21q-20 -8 -32 -12t-17 -5t-8 -1 q-11 0 -11 12l3 129q-51 2 -96 11t-82.5 21.5t-65.5 27t-43 26.5zM502 464q2 -87 4.5 -174t4.5 -175q36 9 64 22t41 30q15 21 23 52.5t8 62.5q0 34 -10 60.5t-29 48.5t-46 39.5t-60 33.5zM270 826q0 -57 34 -91.5t95 -61.5l-4 305q-82 -20 -101 -51q-11 -20 -17.5 -46 t-6.5 -55z" />
<glyph unicode="%" horiz-adv-x="1462" d="M381 -19q-8 -10 -15 -10q-4 0 -9.5 1.5t-16.5 5.5q-10 2 -30 10l-51 20q-9 1 -9 10q0 2 12 19.5l44 61.5l90 121l148 196l218 290l303 400q6 6 10.5 9t12.5 3q2 0 6.5 -0.5t15.5 -4.5l32 -12q22 -8 59 -23q3 -2 5.5 -4t2.5 -7q0 -3 -12 -21q-11 -18 -45 -62l-92 -122 l-150 -196l-222 -288zM342 469q-56 0 -102 22t-78.5 63.5t-50 102.5t-17.5 139q0 86 21 159.5t66 121.5q34 38 81 56.5t100 18.5q55 0 101 -22t78 -63.5t50 -102t18 -137.5q0 -87 -21 -160.5t-64 -121.5q-35 -38 -82 -57t-100 -19zM249 679q5 -18 15 -38.5t24.5 -37.5 t34.5 -28t46 -11q31 0 48 12q10 9 19 29t16 47t11 60t4 69q0 43 -5 92.5t-18 85.5q-6 19 -16.5 37t-25 32.5t-33.5 23t-43 8.5q-31 0 -46 -12q-21 -20 -35.5 -76t-14.5 -128q0 -42 4.5 -87.5t14.5 -77.5zM1106 -57q-56 0 -102 22t-78.5 64t-50 102.5t-17.5 138.5 q0 86 21 159.5t66 122.5q34 38 81 56.5t100 18.5q55 0 100.5 -22t77 -63.5t49 -102t17.5 -137.5q0 -87 -19.5 -160.5t-62.5 -121.5q-35 -38 -82 -57.5t-100 -19.5zM1013 153q5 -18 15 -38.5t24.5 -37.5t34.5 -28t46 -11q30 0 48 13q10 9 19 29t16 47t11 60t4 68 q0 43 -5 92.5t-18 85.5q-6 19 -16.5 37.5t-25 32.5t-33.5 23t-43 9q-31 0 -47 -13q-10 -9 -19 -28.5t-15.5 -46.5t-10.5 -59.5t-4 -68.5q0 -41 4.5 -87.5t14.5 -78.5z" />
<glyph unicode="&#x26;" horiz-adv-x="1482" d="M74 361q0 76 25.5 135.5t68.5 107.5t100 86t120 71q-30 32 -58.5 68t-51 76t-36 84t-13.5 92q0 67 26 128.5t72.5 108t109.5 74t138 27.5q66 0 125.5 -18t104 -52.5t70.5 -85t26 -116.5q0 -72 -18.5 -129t-54 -104t-87 -86t-116.5 -73l371 -358q45 87 71.5 185.5 t26.5 194.5v31q0 16 -2 32l-115 29q-12 3 -12 13q0 1 0.5 2.5t1.5 7t3.5 16t7.5 28.5q4 14 21 14h352q11 0 11 -8q0 -1 -0.5 -3t-1 -9t-2 -19t-4.5 -32q-1 -13 -19 -18l-100 -26q0 -64 -8.5 -132.5t-26 -136.5t-44.5 -134.5t-64 -127.5l62 -60l54 -51l42 -39q18 -16 27 -26 q6 -6 23 -12.5t38 -13t43 -12.5l38 -10q8 -2 8 -9q-1 -2 -1 -5l-1 -9q-1 -6 -3 -16t-6 -27q-3 -14 -21 -14h-318q-11 0 -14.5 1.5t-3.5 6.5q0 1 1.5 9.5t8.5 43.5q-6 12 -27.5 38.5t-55.5 63.5q-85 -89 -200.5 -142t-267.5 -53q-85 0 -165 22.5t-142 70t-99.5 122 t-37.5 178.5zM901 252l-111 113l-118 116l-110 108l-89 87q-47 -27 -86 -57.5t-67 -64t-44 -70.5t-16 -78q0 -48 23.5 -99.5t70.5 -93.5t118 -69.5t166 -27.5q79 0 145 36.5t118 99.5zM542 837l23 13l22 12q45 29 76 60.5t49.5 63.5t26.5 63t8 59q0 52 -20.5 89.5t-51 61.5 t-67 35.5t-67.5 11.5q-45 0 -76.5 -10t-42.5 -24q-4 -5 -10.5 -16.5t-12.5 -27t-10.5 -35.5t-4.5 -43q0 -52 10.5 -93.5t30.5 -78t49.5 -70.5t67.5 -71z" />
<glyph unicode="'" horiz-adv-x="344" d="M86 1287q0 14 14.5 35.5t34.5 42t41.5 35t35.5 14.5q13 0 34 -16t40.5 -37t33.5 -40.5t14 -26.5q0 -26 -7 -54t-17 -51q-29 -73 -79 -148.5t-113 -138.5q-7 -7 -17 -3q-5 3 -13 7l-23 12q-8 6 -3 14l14 31l24 60q14 36 29.5 82t27.5 98q-29 19 -50 43t-21 41z" />
<glyph unicode="(" horiz-adv-x="621" d="M95 578q0 301 102 522.5t320 379.5q6 4 10 4q2 0 3.5 -0.5t5.5 -4t12 -11.5l21 -21q4 -4 4 -11t-6 -13q-41 -42 -78.5 -100t-70 -127.5t-59 -147t-45.5 -157.5t-29 -160t-10 -153t10 -152.5t28.5 -159.5t44.5 -157t58.5 -146t70 -127.5t78.5 -99.5q8 -8 8 -15t-5 -12 l-19 -19q-7 -7 -11 -10.5t-6 -4.5t-4 -1q-7 0 -18 8q-107 79 -185.5 172.5t-129.5 204.5t-75.5 240t-24.5 279z" />
<glyph unicode=")" horiz-adv-x="622" d="M527 578q0 -150 -25 -279t-76 -240t-129 -204.5t-185 -172.5q-11 -8 -18 -8q-2 0 -4 1t-6 4.5t-11 10.5l-19 19q-6 4 -6 12q0 7 8 15q41 41 78.5 99.5t70 127.5t58.5 146t44.5 157t28.5 159t10 153t-10 153.5t-29 159.5t-45.5 157.5t-58.5 147t-70 127.5t-79 100 q-6 6 -6 13q0 6 5 11l21 21l12 12q4 4 5 4h3q5 0 11 -4q218 -158 320 -379.5t102 -522.5z" />
<glyph unicode="*" horiz-adv-x="799" d="M385 1295q-4 3 -4 7q0 3 5 3q25 0 54 4.5t56.5 15t52 26.5t41.5 39q4 6 8.5 8t7.5 2q1 0 6 -1.5t17.5 -6t36.5 -12.5l61 -20q11 -3 11 -10q0 -4 -3 -10q-12 -26 -34.5 -47t-51 -35t-59.5 -21.5t-61 -7.5q-32 0 -53 7t-41 22zM243 1090l-59 -19l-38 -12.5t-21.5 -6.5 t-9.5 -2q-9 0 -11 14.5t-2 25.5q0 34 14.5 69t37.5 64.5t52 51t58 28.5q5 1 15 2t20 1h62q8 0 8 -5q0 -3 -3 -4q-21 -14 -41.5 -35t-37 -45.5t-26.5 -52.5t-10 -56q0 -16 -8 -18zM524 972q-37 0 -70 23.5t-58 57.5t-39.5 73t-14.5 71q0 5 2 15l6 21l19 59q1 6 6 6q3 0 4 -5 q6 -24 19.5 -49.5t32 -49t42 -41.5t50.5 -27q9 -3 11.5 -6.5t3.5 -8.5v-126q0 -13 -14 -13zM357 1316q-33 23 -72 38t-82 15q-29 0 -42 -5t-20 -5q-8 0 -11 5l-74 102q-4 6 -4 9q0 7 9.5 12.5t23 10t28.5 7t25 2.5q29 0 59 -8t57 -21.5t49 -31t36 -37.5q3 -5 7 -13.5 t7 -19.5l11 -34l6 -18q2 -6 2.5 -8.5t0.5 -3.5q0 -4 -4 -4q-2 0 -6 3t-6 5zM387 1310q-3 -2 -6 -2q-4 0 -4 3q0 1 1 4t4 13q6 17 9.5 39.5t3.5 42.5q0 34 -8.5 66.5t-27.5 58.5q-5 9 -5 14q0 3 2 7l75 102q4 6 9 6t16 -9t22 -27t19 -45t8 -63q0 -42 -11 -82t-31 -67 q-3 -5 -10.5 -11.5t-15.5 -12.5z" />
<glyph unicode="+" horiz-adv-x="1024" d="M440 208q-1 20 -1.5 51t-0.5 70v85v93q-85 -1 -158 -1h-113q-21 0 -21 21v5q1 4 2 12l3 24q2 16 6 44q4 32 37 32h242v234q0 20 6 25t15 7q49 8 70 11t30 3q8 0 12 -6.5t3 -17.5v-256h279q29 0 29 -23v-3q0 -2 -2 -9t-4 -20l-6 -35q-2 -10 -11 -21t-27 -13 q-35 -4 -104 -6.5t-154 -4.5v-277q0 -14 -5.5 -19.5t-15.5 -9.5q-43 -11 -61 -15t-27 -4t-15.5 5t-7.5 19z" />
<glyph unicode="," horiz-adv-x="467" d="M93 103l79 -91l-100 -301l4 -16l41 -20l19 4l211 315l26 121l-78 102l-71 31l-93 -70z" />
<glyph unicode="-" horiz-adv-x="874" d="M74 452q-15 0 -15 12q0 2 1 8l4 18l6 37l12 61q5 20 26 20h668q22 0 22 -15q0 -2 -0.5 -6.5t-3.5 -16.5q-2 -12 -6 -32l-9 -53q-2 -6 -8.5 -11.5t-17.5 -6.5q-31 -3 -87.5 -5.5t-124.5 -4t-141.5 -2.5t-138.5 -1.5t-115 -1t-72 -0.5z" />
<glyph unicode="." horiz-adv-x="468" d="M233 -33q-16 1 -39.5 17.5t-45 38t-37 44t-15.5 36.5q0 15 16.5 39.5t39 47.5t47 39.5t39.5 15.5q14 -1 36.5 -17.5t44 -38t37.5 -44t18 -36.5q1 -17 -15.5 -41.5t-39.5 -47t-47 -38.5t-39 -15z" />
<glyph unicode="/" horiz-adv-x="881" d="M646 1476q6 14 20 14q2 0 6 -2l16 -5l32 -11l56 -21q11 -5 11 -17q0 -3 -1 -7.5t-2 -6.5l-571 -1617q-4 -10 -8.5 -13t-13.5 -3q-3 0 -9 1q-4 1 -16 5l-32 11l-50 18q-11 4 -13.5 7t-2.5 8q0 7 5 20z" />
<glyph unicode="0" horiz-adv-x="1113" d="M539 -25q-94 0 -170.5 36.5t-131 106.5t-84 171.5t-29.5 231.5q0 72 8.5 139t26.5 127t45.5 111t65.5 92q57 63 135 94t168 31q93 0 169.5 -37t131 -106.5t84.5 -170.5t30 -230q0 -72 -9 -139.5t-26.5 -128t-44.5 -111.5t-63 -90q-58 -63 -136.5 -95t-169.5 -32zM360 298 q11 -34 30 -71.5t48 -69t68.5 -52t90.5 -20.5q29 0 53.5 5.5t41.5 18.5q20 17 38 53.5t31.5 86.5t21.5 111t8 126q0 40 -2.5 84t-8.5 88t-14.5 85t-20.5 75q-13 35 -33 68.5t-48.5 60t-66 42.5t-84.5 16q-60 0 -94 -24q-20 -18 -37.5 -54t-31 -85.5t-21 -110t-7.5 -126.5 q0 -39 2.5 -80.5t7 -82t12 -77.5t16.5 -67z" />
<glyph unicode="1" horiz-adv-x="754" d="M111 11q0 2 1.5 13t6.5 29q2 8 6 12.5t15 8.5q12 4 41.5 10.5t61.5 14.5l80 18v824h-207q-17 0 -17 12q0 1 1.5 9t11.5 41q2 8 7.5 12t10.5 6q4 2 32 9l68 18l84 22l86 20l67 16q28 6 34 7q12 0 12 -12v-983l44 -8l41 -9q20 -4 35.5 -8t23.5 -7q5 -3 9.5 -6t4.5 -10 q0 -3 -3 -15.5t-11 -39.5q-3 -9 -7.5 -12t-14.5 -3h-503q-13 0 -17 2t-4 9z" />
<glyph unicode="2" horiz-adv-x="1051" d="M278 91q21 3 52 7q32 2 70 6l78 8q41 4 80 7q92 8 197 16q5 5 17 21l26 40l30 48l29 48q4 7 7 9t8 2q4 0 14.5 -2.5t42.5 -11.5q9 -3 11.5 -6t2.5 -11q0 -17 -5 -46.5t-13.5 -63.5t-19 -69.5t-21.5 -64.5q-6 -14 -15.5 -21t-28.5 -7h-676q-17 0 -24.5 4.5t-12.5 15.5 q-14 33 -19 47t-5 20q0 11 10 21l45 46l76 74l90 90l92 94l80 82q36 37 53 58q25 28 49.5 59t44 65t31.5 71.5t12 79.5q0 52 -20.5 86t-53.5 54t-75 28t-84 8q-37 0 -70.5 -3.5t-69.5 -10.5l-69 -189q-3 -8 -7 -12.5t-13 -4.5q-11 0 -59 12q-9 2 -12 6t-4 11q-3 26 -5 59.5 t-2 61.5v31q0 14 1 23q2 18 10 29t25 20q40 21 88.5 36t95.5 24.5t89 13.5t70 4q84 0 152 -19.5t116 -57t74 -92.5t26 -127q0 -55 -26 -114.5t-70.5 -121.5t-104.5 -125t-128 -125q-68 -64 -140 -124z" />
<glyph unicode="3" horiz-adv-x="917" d="M127 0q0 10 13 13q81 23 157.5 53t148.5 75q37 23 62.5 48.5t41 52t22 53.5t6.5 52q0 60 -26 99.5t-68 63.5t-96 35.5t-110 16.5q-17 3 -17 13q0 4 2 15.5t7 31.5q2 10 7 17t14 15l100 95l106 99l89 84l51 47q-20 -3 -60 -6.5t-89 -6.5l-102 -6q-53 -4 -98 -6l-78 -4 q-32 -2 -40 -1q-17 0 -25 3.5t-13 14.5l-16 51l-10 32.5t-5 19t-1 9.5q0 5 3 7.5t14 2.5h642q14 0 19 -3t11 -15l11 -30q6 -11 8 -18l3 -10q1 -3 1 -5q0 -6 -6 -15q-7 -9 -33 -37l-61 -67l-75 -81l-75 -78l-60 -63q-25 -26 -31 -31q61 -8 116 -29.5t96.5 -57t66 -85 t24.5 -112.5q0 -86 -32 -146t-99 -110q-69 -52 -145.5 -84.5t-145 -50.5t-120 -24t-71.5 -6q-12 0 -16 2.5t-6 9.5q-6 19 -9 34.5t-3 22.5z" />
<glyph unicode="4" horiz-adv-x="1007" d="M117 309q-19 0 -27 12q-22 31 -28.5 44t-6.5 21t5 16l507 696q10 15 25 15q6 1 12 -1l12 -4l117 -36q12 -3 12 -13q0 -7 -2 -10.5t-7 -9.5l-493 -622q112 5 202 8t163 5v213q0 14 3 20.5t12 9.5q45 11 73 17l44 10q16 4 24 5t14 1q9 0 13 -4t4 -16v-248q15 2 33 2h36 q18 0 31 1t18 1q11 0 14 -3t3 -11q0 -5 -3 -29t-10 -68q-2 -13 -7 -17.5t-20 -4.5h-95v-336q0 -10 -3 -14.5t-14 -7.5q-73 -14 -110 -22.5t-44 -8.5q-10 0 -13 5t-3 15v369h-491z" />
<glyph unicode="5" horiz-adv-x="916" d="M95 -28q0 8 3.5 11t13.5 5q224 50 345.5 133.5t121.5 202.5q0 120 -80.5 173t-226.5 53q-29 0 -55 -2t-47 -2q-9 0 -16 4t-7 18q0 2 0.5 7.5t1 23t1.5 49.5t2.5 86.5t4 134.5t5.5 194q1 27 33 27h586q11 0 15 -4.5t4 -11.5q0 -21 -37 -108q-4 -10 -12.5 -13t-19.5 -3 q-9 0 -38 1l-69 3q-40 2 -86 3l-90 4q-44 2 -79 4.5t-54 4.5q-3 -51 -7 -111l-8 -111l-11 -119q32 5 65 6.5t65 1.5q75 0 140.5 -18t113.5 -55.5t76 -95.5t28 -137q0 -77 -34 -144t-104.5 -121t-179 -93.5t-258.5 -61.5q-6 -1 -17 -2.5t-23 -2.5l-23 -2q-11 -1 -18 -1 q-10 0 -13 10q-7 29 -9.5 41.5t-2.5 17.5z" />
<glyph unicode="6" horiz-adv-x="1011" d="M102 410q0 125 46.5 235.5t125.5 201t184.5 158.5t224.5 109q16 6 28 6q6 0 9 -1.5t8 -6.5l20 -20q8 -8 12 -12.5t5 -7.5t1 -6q0 -5 -3 -7l-11 -7q-94 -50 -176 -112t-143.5 -138.5t-97 -167.5t-35.5 -199q0 -69 16 -132.5t48.5 -113t82 -79t117.5 -29.5q43 0 70 9t45 24 q27 23 38.5 71.5t11.5 106.5q0 53 -10 102.5t-35 88t-66.5 62.5t-104.5 27q-17 1 -30 1h-17q-8 1 -9.5 3t-1.5 7t2 14.5t9 30.5q1 10 15 15q24 9 56.5 15.5t66.5 6.5q73 0 131.5 -21t99 -61.5t62 -98.5t21.5 -132q0 -80 -29 -149t-83 -119.5t-131.5 -79.5t-174.5 -29 q-89 0 -162.5 30t-126 86t-81 137t-28.5 182z" />
<glyph unicode="7" horiz-adv-x="943" d="M158 4q0 3 1.5 8t8 18.5t20.5 39.5l40 72l66 116l98 170l135 235l180 312q-43 -4 -97 -7.5t-111 -6.5l-113 -6q-56 -3 -104 -5l-82 -2q-34 -1 -48 -1q-8 0 -15.5 3t-11.5 11q-19 51 -27.5 78.5t-8.5 35.5q0 14 20 14h721q15 0 20.5 -3t10.5 -17q14 -33 18.5 -45t4.5 -18 q0 -7 -1.5 -11.5t-4.5 -10.5l-538 -1021q-6 -11 -12 -15t-15 -4q-3 0 -9.5 1t-21.5 5l-40 12l-68 21q-16 7 -16 21z" />
<glyph unicode="8" horiz-adv-x="1013" d="M122 257q0 51 16 94t43.5 80t64.5 67t80 56q-37 22 -68.5 48.5t-55 60t-36.5 75t-13 92.5q0 60 25 112t71.5 90.5t111.5 61t146 22.5q69 0 132.5 -18.5t112 -53t77.5 -84t29 -112.5q0 -49 -13.5 -89.5t-37.5 -75t-56 -63t-68 -52.5q45 -24 83 -53t65.5 -66t43 -82 t15.5 -101q0 -69 -28 -123.5t-77.5 -91.5t-117 -56.5t-146.5 -19.5q-73 0 -144.5 15t-128 48.5t-91.5 87t-35 131.5zM677 343q-26 27 -63 52.5t-76 47.5t-75 40l-59 30q-45 -48 -75.5 -102t-30.5 -114q0 -45 21 -84t56.5 -68.5t81 -46t93.5 -16.5q42 0 83 6.5t70 33.5 q17 16 22.5 38t5.5 47q0 36 -14 71.5t-40 64.5zM372 749q15 -17 43.5 -35.5t61.5 -37l68 -36.5l64 -32q14 18 28.5 41.5t26 49.5t18.5 53.5t7 54.5q0 49 -20 88.5t-53 66.5t-76 41.5t-89 14.5q-35 0 -67 -9.5t-49 -38.5q-8 -10 -13.5 -33t-5.5 -52q0 -34 11.5 -69t44.5 -67z " />
<glyph unicode="9" horiz-adv-x="1033" d="M167 -1q0 7 4.5 10t14.5 6q158 51 262.5 117t167 145t88 169t25.5 188q0 33 -5.5 74t-18.5 82.5t-34 80.5t-51.5 69.5t-71 49t-92.5 18.5q-41 0 -73.5 -8t-55 -31t-34 -64t-11.5 -107q0 -75 19.5 -128.5t55 -88.5t86 -54t113.5 -26q5 -1 9 -3t6 -9q6 -17 9 -31t3 -19 t-2.5 -8t-11.5 -6q-26 -8 -55.5 -11t-54.5 -3q-94 0 -161.5 26t-111 70.5t-64.5 104.5t-21 129q0 85 32 154t86.5 118t126 75t150.5 26q108 0 189 -36t134.5 -101.5t80 -156.5t26.5 -201q0 -121 -37 -226t-108.5 -190t-176.5 -147t-241 -97q-18 -5 -40.5 -10t-45.5 -9 t-44 -6.5t-36 -2.5q-6 0 -10.5 2t-6.5 11l-10 36q-4 14 -3 19z" />
<glyph unicode=":" horiz-adv-x="526" d="M233 -33q-16 1 -39.5 17.5t-45 38t-37 44t-15.5 36.5q0 15 16.5 39.5t39 47.5t47 39.5t39.5 15.5q14 -1 36.5 -17.5t44 -38t37.5 -44t18 -36.5q1 -17 -15.5 -41.5t-39.5 -47t-47 -38.5t-39 -15zM233 593q-16 2 -39.5 18.5t-45 38.5t-37 44.5t-15.5 36.5q0 15 16.5 39.5 t39 47.5t47 39t39.5 15q14 -1 36.5 -17t44 -38t37.5 -44.5t18 -36.5q1 -17 -15.5 -41.5t-39.5 -47.5t-47 -39t-39 -15z" />
<glyph unicode=";" horiz-adv-x="521" d="M96 103q0 7 4 17t10 20.5t12.5 20.5t11.5 17q24 30 49 50t45 20q14 0 33 -7.5t38 -23.5q35 -29 56.5 -57t21.5 -45q0 -28 -7.5 -61.5t-18.5 -59.5q-32 -81 -87 -163.5t-125 -151.5q-7 -8 -19 -4l-40 20q-5 3 -5 8t1 8l14 35l24.5 66t30.5 91t30 109q-32 21 -55.5 46.5 t-23.5 44.5zM241 593q-16 1 -39.5 17.5t-45 38.5t-37 44.5t-15.5 36.5q0 15 16.5 39.5t39.5 47.5t47 39t40 15q13 -1 35.5 -17.5t44 -38t37.5 -44t18 -36.5q1 -17 -15.5 -41.5t-39.5 -47t-47 -38.5t-39 -15z" />
<glyph unicode="&#x3c;" horiz-adv-x="1024" d="M121 400q-8 4 -14.5 11t-6.5 21v86q0 12 6.5 20t14.5 12l714 330q6 2 10 2q11 0 17 -12l40 -94q4 -5 4 -11q0 -13 -16 -21l-596 -269l598 -274q13 -6 13 -17q0 -6 -3 -12l-42 -95q-6 -12 -17 -12q-4 0 -10 2z" />
<glyph unicode="=" horiz-adv-x="1024" d="M168 654q-21 0 -21 21q0 1 1 5q0 4 1 12l3 24q2 16 6 44q4 32 37 32h657q29 0 29 -23v-4q0 -2 -1.5 -8.5t-4 -19.5t-6.5 -36q-2 -10 -11 -20.5t-27 -12.5q-28 -3 -78.5 -5t-114 -4t-133 -2.5t-133.5 -1.5t-118 -1h-86zM168 360q-21 0 -21 21q0 1 1 5q0 4 1 12l3 24 q2 16 6 44q4 32 37 32h657q29 0 29 -23v-3q0 -2 -1.5 -9t-3.5 -20l-7 -35q-2 -10 -11 -21t-27 -13q-27 -3 -78.5 -5t-114.5 -4t-132.5 -2.5t-134 -1.5t-118.5 -1h-85z" />
<glyph unicode="&#x3e;" horiz-adv-x="1024" d="M190 67q-6 -2 -10 -2q-11 0 -17 12l-42 95q-3 6 -3 12q0 11 13 17l598 274l-596 269q-16 8 -16 21q0 6 4 11l40 94q6 12 17 12q4 0 10 -2l714 -330q8 -4 14.5 -12t6.5 -20v-86q0 -14 -6.5 -21t-14.5 -11z" />
<glyph unicode="?" horiz-adv-x="841" d="M255 380q-15 4 -18 20q-2 7 -5 26t-6 41.5t-5.5 44.5t-3.5 34q-1 15 1.5 22t16.5 15q82 45 134 84.5t81 76.5t38.5 71t6.5 69q-4 50 -27.5 88t-55.5 63t-66 37.5t-59 12.5l-20 -138q-11 -10 -29 -18.5t-35 -10.5t-38 6.5t-39 23t-31 34t-15 40.5q-3 30 17.5 54.5t52.5 42 t70 28t71 12.5q62 6 131 -7.5t128 -46.5t100 -84.5t47 -121.5q5 -64 -19 -114.5t-66 -91.5t-97.5 -74.5t-113.5 -62.5q-2 -15 -5.5 -38.5t-7 -49.5t-8 -52t-8.5 -45q-3 -10 -12 -11q-2 0 -8 1l-18 3q-12 2 -30 6zM295 -33q-16 1 -39.5 17.5t-45 38t-37 44t-15.5 36.5 q0 15 16.5 39.5t39 47.5t47 39.5t39.5 15.5q14 -1 36.5 -17.5t44 -38t37.5 -44t18 -36.5q1 -17 -15.5 -41.5t-39.5 -47t-47 -38.5t-39 -15z" />
<glyph unicode="@" horiz-adv-x="1666" d="M1050 195q10 -12 22.5 -20.5t23.5 -8.5q45 0 99.5 33.5t101.5 91.5t78.5 137t31.5 169q0 106 -35.5 194.5t-101 152.5t-157.5 99.5t-205 35.5q-86 0 -169.5 -27t-159.5 -75t-140.5 -115.5t-111.5 -148.5t-73.5 -173t-26.5 -189q0 -135 44 -232.5t114.5 -160t158 -92 t174.5 -29.5q39 0 78 6.5t74 16.5t64.5 20t49.5 18q3 1 7 2t7 1q6 0 10 -4l14 -15q3 -5 3 -8t-1 -5.5t-5 -7.5q-14 -19 -44.5 -46t-76 -51.5t-107 -41.5t-136.5 -17q-137 0 -245 47.5t-182.5 131.5t-114 198.5t-39.5 249.5q0 127 34.5 242t95 213t142.5 177t177 134.5 t199 85.5t208 30q160 0 278.5 -48.5t196 -131t115.5 -192t38 -231.5q0 -91 -24.5 -169t-65 -141.5t-93.5 -112t-110 -81.5t-114 -50t-105 -17q-27 0 -49 14.5t-39 35.5t-27.5 43.5t-14.5 38.5h-14q-22 -25 -50.5 -49t-61.5 -42.5t-70 -29.5t-75 -11q-41 0 -77 17.5t-64 53.5 t-44 91t-16 130q0 70 15 140.5t43 135.5t67.5 121t87.5 97.5t103.5 65t116.5 23.5q48 0 92.5 -16.5t72.5 -48.5l47 16q18 6 28.5 9t16 3.5t9.5 0.5q14 0 14 -15q0 -7 -4.5 -24.5t-10.5 -38.5l-12 -41q-6 -20 -7 -34zM823 816q-38 -17 -74.5 -58t-65 -98.5t-45.5 -128 t-17 -146.5q0 -30 3.5 -59.5t11.5 -55.5t21 -47.5t33 -35.5q47 2 103.5 14.5t103.5 35.5l76 408q-9 45 -24 77t-34.5 52.5t-43 30.5t-48.5 11z" />
<glyph unicode="A" horiz-adv-x="1336" d="M-27 8v3q0 2 1 9l5 21q3 14 8 40q3 15 19 19l139 42l437 1205q5 14 13 24t22 15l41 11q15 4 24 6t13.5 2.5t6.5 0.5q10 0 16.5 -6t12.5 -23l476 -1244l29 -6q20 -4 41 -9l39 -10q19 -4 27 -7q12 -5 12 -14q0 -1 -0.5 -4t-2.5 -11l-4 -21l-8 -37q-3 -14 -21 -14h-481 q-11 0 -14.5 1.5t-3.5 6.5q0 1 0.5 4t1.5 9.5t3 18t6 31.5q3 15 19 19l39 12l49 14l60 17l-122 321q-49 -5 -109 -7.5t-124 -4t-130 -2t-127 -0.5l-42 -120l-33 -95l-30 -87q10 -2 38 -9l59 -15l58.5 -17t34.5 -11q12 -5 12 -14q0 -1 -1.5 -12t-9.5 -46q-3 -14 -21 -14h-460 q-11 0 -14.5 1.5t-3.5 6.5zM614 1155q-6 -32 -24 -94l-44 -142l-56 -171l-60 -180h404z" />
<glyph unicode="B" horiz-adv-x="1219" d="M88 0q-17 0 -17 8v3q0 2 1.5 8t3.5 18.5t7 33.5q3 14 18 19q14 5 41 13l53 16q31 10 66 20v1107q-10 2 -35.5 9l-53.5 15l-52 17q-25 8 -32 11q-12 5 -12 14q0 1 0.5 3.5t1.5 8.5t3 17t6 29q3 14 21 14h340q127 0 239 -10t195.5 -43.5t132 -98t48.5 -172.5 q0 -70 -28.5 -123.5t-74.5 -92t-104 -62.5t-116 -35q75 -10 145 -35.5t124 -68t86.5 -103t32.5 -139.5q0 -90 -23.5 -154.5t-67 -109t-104.5 -71.5t-135.5 -41.5t-161 -19.5t-180.5 -5h-368zM869 1051q0 69 -37.5 115t-97.5 74.5t-134 43.5t-147 21v-1224q51 6 105.5 15 t106.5 24t98.5 37.5t82 55.5t56 78t20.5 106q0 69 -28 119t-75 86t-108 59.5t-127 39.5q-17 5 -24 8t-7 13q0 3 1 9.5t5 25.5q2 9 9.5 13t20.5 7q64 16 115.5 42t88 60.5t56.5 78t20 93.5z" />
<glyph unicode="C" horiz-adv-x="1228" d="M691 -35q-135 0 -245.5 45.5t-189 131t-122 208t-43.5 275.5q0 105 17 203.5t51 186t85.5 160t119.5 125.5q83 63 175.5 91t206.5 28q56 0 110.5 -8t108.5 -19q25 3 47 7q19 2 36 4.5t23 2.5q14 0 18.5 -7t6.5 -18l14 -131q5 -55 9 -91t6 -57l3 -30q1 -11 1.5 -14t0.5 -4 q0 -9 -9 -12q-40 -11 -54 -14t-21 -3q-12 0 -18 13l-87 191q-30 13 -59 23t-59.5 17t-64.5 10.5t-75 3.5q-38 0 -74.5 -6.5t-68 -17t-57.5 -24.5t-44 -30q-30 -27 -57.5 -71.5t-47.5 -106.5t-32 -142.5t-12 -179.5q0 -55 7.5 -111.5t23 -110t38 -102t52.5 -87.5 q69 -89 154 -128.5t177 -39.5q26 0 62 7t75.5 18.5t78.5 24.5l72 24q33 12 55.5 21t28.5 11q12 3 18 3q9 0 15 -10q20 -30 25 -39t5 -12q0 -5 -6 -11q-51 -48 -102.5 -85t-109 -62t-123.5 -38t-145 -13z" />
<glyph unicode="D" horiz-adv-x="1428" d="M71 8q0 1 0.5 3t1.5 8t3 19l7 33q3 14 18 19q14 5 41 13l54 16q31 10 66 20v1107q-10 2 -35.5 9l-53.5 15l-53 17q-24 8 -31 11q-12 5 -12 14q0 1 0.5 2.5t1.5 7.5t3.5 17t6.5 31q3 14 17 14h425q69 0 140.5 -4.5t141.5 -17.5t135 -36t121 -60q71 -48 121.5 -109 t82.5 -132.5t47 -152.5t15 -168q0 -68 -9 -138t-30 -137.5t-55 -129t-83 -113.5q-66 -68 -149.5 -105.5t-176 -55.5t-190 -21.5t-191.5 -3.5h-363q-17 0 -17 8zM454 87q175 22 302 61t210 109t123 176.5t40 263.5q0 165 -60.5 285t-185.5 198q-37 23 -86 42.5t-105 34.5 t-117 26t-121 18v-1214z" />
<glyph unicode="E" horiz-adv-x="1246" d="M454 99q2 1 136.5 15.5t406.5 40.5q6 5 21 26l32 47l32 50l23 39q12 22 25 22q2 0 10 -1.5t29 -6.5q11 -3 15 -9.5t4 -16.5q0 -12 -5.5 -47t-14.5 -78.5t-21.5 -88t-25.5 -75.5q-5 -10 -11 -13t-15 -3h-1010q-17 0 -17 8v2q0 2 1.5 8.5t3.5 18.5t7 34q3 15 18 19 q14 5 42 14l54 16l68 21v1107q-10 2 -36 9l-53 15l-53 16q-24 7 -31 10q-6 2 -8.5 5t-2.5 11t2 17.5t9 38.5q4 14 21 14h850q26 2 48 5q19 2 35.5 3.5t19.5 1.5q14 0 19.5 -6.5t7.5 -18.5l5 -49q3 -30 6 -64.5t7 -69.5l6 -64q3 -28 4.5 -46.5t1.5 -19.5q0 -11 -7 -13 q-39 -11 -54 -13.5t-18 -2.5q-11 0 -19 17l-89 202q-108 9 -202 19l-81 9l-80 8l-68 8q-30 3 -48 6v-555q24 4 55 7.5t63.5 6t63.5 4.5l57 3q25 2 41 2l15 1q3 10 11 33l17 47l17 47q9 21 13 29q5 11 13 11q1 0 3.5 -0.5t8.5 -2t16 -4.5l28 -8q13 -4 13 -18l-18 -418 q-1 -17 -8 -17h-3q-1 0 -7 1t-17 3.5t-31 6.5q-8 2 -11 6.5t-6 13.5q-5 14 -12 37l-13 48q-8 27 -16 59l-31 1q-32 0 -77 2t-95.5 6t-89.5 11v-560z" />
<glyph unicode="F" horiz-adv-x="1167" d="M264 1248q-10 2 -36 9l-54 15l-52 16q-25 7 -32 10q-12 5 -12 13q0 1 0.5 3t1.5 8t3.5 17t6.5 31q3 14 20 14h868q27 2 49 5q19 2 35 3.5t19 1.5q14 0 19 -6.5t7 -18.5l5 -49q3 -30 6 -64.5l6 -69.5l7 -64q3 -28 4.5 -46.5t1.5 -19.5q0 -5 -1.5 -8.5t-7.5 -5.5 q-38 -10 -51 -12.5t-18 -2.5q-12 0 -20 17l-88 202l-132 11l-143 12l-130 11q-59 6 -90 11v-550q36 6 88.5 10.5t102 7.5t84.5 4.5t36 1.5q3 10 11 33l17 48l17 48q9 22 13 29q3 5 5.5 7.5t7.5 2.5q3 0 13 -3l43 -13q13 -4 13 -17l-18 -419q-1 -17 -8 -17q-4 0 -15 2l-42 10 q-8 2 -11.5 7t-6.5 14q-5 14 -12 38l-14 47l-10 40q-5 16 -5 15q-1 0 -34.5 0.5t-81.5 2.5t-101 6t-92 11v-500q6 -1 26 -5l46 -10l55 -11l55 -11q25 -5 43 -10l22 -5q12 -4 12 -14q0 -2 -1 -5l-4 -11l-6 -23l-13 -38q-5 -14 -21 -14h-583q-17 0 -17 8q0 1 0.5 3t1.5 8t4 19 l6 33q3 15 18 19q14 5 42 14l54 16l68 21v1107z" />
<glyph unicode="G" horiz-adv-x="1400" d="M1043 523q-6 1 -27 5l-46 10l-57 12l-57 13l-45 11q-19 4 -24 6q-12 5 -12 13q0 2 2 13t9 46q4 14 21 14h540q11 0 14.5 -1.5t3.5 -6.5q0 -2 -2.5 -14.5t-10.5 -56.5q-1 -6 -6.5 -10.5t-12.5 -8.5q-12 -7 -29 -16t-34 -17l-40 -20v-291q0 -13 -3 -20t-8 -14 q-35 -50 -84 -91t-110 -71t-131.5 -46.5t-148.5 -16.5q-74 0 -134.5 6t-115 23.5t-106.5 49.5t-110 84q-47 42 -82.5 100t-59.5 125t-36 140.5t-12 148.5q0 76 11.5 161.5t42 170.5t83 166t134.5 149q39 33 87 57t102 40.5t112 24.5t116 8q63 0 129 -7t118 -19q28 2 51 5 q20 2 37.5 4t21.5 2q13 0 18 -7t7 -18l19 -177l9 -96t4 -40.5t1 -10.5q0 -5 -2.5 -8t-4.5 -5q-42 -11 -56 -14t-18 -3q-8 0 -12.5 4.5t-8.5 12.5l-85 185q-22 13 -54.5 24t-69.5 18.5t-75 11.5t-71 4q-45 0 -88.5 -5t-81 -15t-67 -23.5t-48.5 -31.5q-33 -31 -61 -74.5 t-49 -106t-33 -147.5t-12 -198q0 -54 8.5 -114.5t27.5 -120t50 -113.5t77 -93q42 -38 83.5 -61.5t82.5 -37t83 -18.5t85 -5q27 0 62 3.5t70 11.5t66.5 19.5t52.5 28.5v339z" />
<glyph unicode="H" horiz-adv-x="1542" d="M455 143q10 -2 38 -9l59 -16q32 -8 59 -16t35 -11q12 -5 12 -14q0 -4 -2.5 -18t-10.5 -45q-4 -14 -21 -14h-537q-17 0 -17 8q0 1 0.5 3t1.5 8.5t3 18.5t6 33q3 15 19 19q14 5 41 13l54 16q32 10 68 20v1107q-10 2 -35.5 9l-53.5 15l-52 17q-25 8 -32 11q-12 5 -12 13 q0 1 0.5 3t1.5 8.5t4 17.5l6 30q3 14 21 14h538q10 0 13 -1.5t3 -6.5q0 -2 -0.5 -4.5t-2 -9.5t-4.5 -19.5t-7 -34.5q-3 -15 -19 -19q-14 -5 -44 -13l-59 -16q-35 -10 -74 -20v-484h632v485q-7 1 -22 5l-35 9l-40 11l-41 11q-19 5 -33 9.5t-19 6.5q-12 5 -12 14q0 2 2.5 15.5 t10.5 47.5q4 14 21 14h536q11 0 14.5 -1.5t3.5 -6.5q0 -2 -2.5 -14.5t-8.5 -46.5q-3 -15 -19 -19l-41 -14l-55 -16l-68 -21v-1107q10 -2 35 -9l54 -15l53 -17t32 -11q12 -5 12 -14q0 -4 -3 -16.5t-9 -41.5q-3 -14 -21 -14h-538q-17 0 -17 8q0 1 0.5 3t2 9t3.5 20t6 36 q1 14 18 19l44 13l60 16q35 10 76 20v504q-104 -6 -200 -10t-178 -7t-147 -5t-107 -3v-480z" />
<glyph unicode="I" horiz-adv-x="720" d="M70 8q0 1 2 12t10 52q3 15 18 19q14 5 42 13l54 16l67 20v1106q-10 2 -35.5 9l-53.5 15l-52 17q-25 8 -32 11q-12 5 -12 14q0 2 2 13t9 45q3 14 20 14h524q11 0 14.5 -1.5t3.5 -6.5q0 -2 -0.5 -4.5t-2 -9t-3.5 -18t-6 -31.5q-3 -15 -19 -19q-14 -5 -42 -14l-55 -16 l-68 -20v-1104q10 -2 36 -9l55 -15l53.5 -17t32.5 -11q12 -5 12 -14q0 -4 -2.5 -16.5t-10.5 -43.5q-4 -14 -21 -14h-523q-17 0 -17 8z" />
<glyph unicode="J" horiz-adv-x="687" d="M258 1246q-10 2 -39 9l-61 15l-62 17q-28 8 -35 11q-12 5 -12 14q0 1 1 4l1 9q1 6 3.5 17t5.5 28q3 14 21 14h534q17 0 17 -8q0 -2 -0.5 -4.5t-2 -9t-3.5 -18t-6 -31.5q-3 -15 -19 -19q-14 -5 -39 -13l-50 -16q-29 -10 -62 -20v-821q0 -95 -4 -167t-15 -130.5t-31 -108.5 t-51.5 -100.5t-76.5 -107.5l-107 -129q-5 -6 -14 -6q-8 0 -13 4l-24 16q-8 6 -12.5 10t-5.5 6.5t-1 5.5q0 7 3 16l23 58l33 82l36 93q19 47 34 89t24.5 74t9.5 46v1071z" />
<glyph unicode="K" horiz-adv-x="1409" d="M71 8q0 1 0.5 3.5t2 9t3.5 18.5t6 32q3 15 18 19q14 5 41 13l54 16q31 10 66 20v1107q-10 2 -35 9l-53 15l-52 16q-24 8 -31 11q-12 5 -12 14q0 2 2 13t10 46q3 14 21 14h523q11 0 14.5 -1.5t3.5 -6.5q0 -1 -0.5 -3.5t-1.5 -9t-3 -18.5l-7 -32q-3 -15 -19 -19 q-14 -5 -42 -13l-56 -16q-33 -10 -70 -20v-1094q10 -2 38 -9l61 -16l59 -16q27 -8 35 -11q12 -5 12 -13q0 -1 -1 -4l-2 -10l-4 -20q-2 -14 -7 -38q-3 -14 -21 -14h-535q-11 0 -14.5 1.5t-3.5 6.5zM725 751q1 -2 21 -27l50 -64l72 -90l82 -103l85 -105l77 -95l62 -73 q25 -30 35 -40q9 -9 32.5 -19t50.5 -19l54 -17l43 -13q12 -3 12 -14q0 -2 -3 -13t-10 -45q-3 -14 -17 -14h-362q-11 0 -14.5 1.5t-3.5 6.5q0 1 0.5 3t1.5 8.5t3 18t6 31.5q-5 9 -27 40l-55 75l-74 98l-83 108l-81 105l-71 91l-50 64l-19 24q-12 13 -12 26q0 14 14 28 l475 518l-180 52q-12 3 -12 14q0 1 0.5 3.5t1.5 8l3 16.5l7 30q3 14 22 14h501q11 0 14.5 -1.5t3.5 -6.5q0 -2 -0.5 -4.5t-1.5 -9t-4 -19t-7 -33.5q-3 -13 -19 -19l-156 -51l-51 -58l-75 -84l-90 -97l-93 -98l-87 -87q-41 -40 -71 -65z" />
<glyph unicode="L" horiz-adv-x="1191" d="M980 155q16 19 32 43l32 46l28 42l20 32q15 21 27 21h3q1 0 5.5 -1t12.5 -3t22 -6q15 -4 15 -20q0 -17 -5 -52.5t-13.5 -77.5t-21 -85.5t-27.5 -77.5q-5 -10 -11 -13t-15 -3h-997q-17 0 -17 8q0 1 0.5 3t1.5 9t3 19t6 32q3 14 18 19l41 14l55 16l68 21v1107 q-10 2 -35.5 8.5t-53.5 14.5l-52 15q-24 8 -31 11q-12 5 -12 14q0 3 2 14t9 45q3 14 20 14h529q11 0 14.5 -1.5t3.5 -6.5q0 -2 -2.5 -14t-9.5 -49q-3 -15 -19 -19q-14 -5 -42 -14l-58 -16l-71 -21v-1143q31 5 81.5 11t108.5 12l117 12l108 11l78.5 6.5t31.5 2.5z" />
<glyph unicode="M" horiz-adv-x="1883" d="M262 1236q-10 2 -35 10l-53 16l-51 16q-24 7 -31 10q-12 5 -12 14q0 3 3 15t11 53q3 14 20 14h316q17 0 25.5 -5.5t13.5 -18.5l490 -1112l452 1103q14 33 50 33h334q11 0 14.5 -1.5t3.5 -6.5q0 -3 -3 -17t-10 -55q-3 -15 -19 -19q-14 -5 -41 -13l-54 -17q-32 -10 -68 -20 v-1097q10 -2 36 -9l54 -15l52 -16q25 -8 33 -11q12 -5 12 -14q0 -2 -1.5 -12t-9.5 -47q-3 -14 -21 -14h-523q-14 0 -14 11q0 1 0.5 3.5t1.5 9t3 18t6 29.5q3 15 19 19q14 5 41 13l53 16q31 10 66 20v1010q-9 -33 -32 -97l-53 -144l-67 -176l-74 -185l-191 -470 q-9 -22 -18.5 -34.5t-26.5 -19.5q-28 -11 -45 -17l-27 -10q-10 -3 -15.5 -4t-10.5 -1q-21 0 -29 19l-465 1133q4 -38 7 -101t5.5 -141t4 -164.5t3.5 -171.5q4 -199 6 -427q10 -2 36 -9l55 -15l54 -16q25 -8 33 -11q12 -5 12 -14q0 -1 -0.5 -3.5t-1.5 -8.5t-3.5 -17.5 t-5.5 -29.5q-3 -14 -21 -14h-466q-17 0 -17 8q0 1 2 12l10 51q3 14 18 19q14 5 41 13l53 16l65 20v1097z" />
<glyph unicode="N" horiz-adv-x="1525" d="M77 9q0 2 0.5 5t1.5 9.5t3.5 17.5t5.5 30q3 14 18 19q14 5 40 13l52 16q30 10 64 20v1107q-10 2 -35.5 9l-53.5 15l-53 16q-24 8 -31 11q-12 5 -12 14q0 1 0.5 4t2 9.5t3.5 17.5t6 28q3 14 20 14h273q20 0 31 -6t22 -21l731 -1058q-4 42 -7.5 99.5t-5.5 123t-3.5 136.5 t-1.5 141l-2 137v122v136q0 29 1 52l-189 51q-12 3 -12 14v5l2 9q1 6 3 16.5t6 28.5q3 14 20 14h475q11 0 14.5 -1.5t3.5 -6.5q0 -3 -2.5 -14.5t-9.5 -48.5q-3 -15 -19 -19q-14 -5 -39 -13l-51 -16q-29 -10 -62 -20v-1189q0 -17 -4.5 -30.5t-21.5 -20.5l-49 -17 q-18 -6 -28 -9t-14.5 -4t-8.5 -1q-17 0 -31 20l-752 1105q4 -33 7 -87t5.5 -121.5t4.5 -144t3 -153.5t1.5 -150t1 -134t0.5 -106v-65q10 -2 38 -9l59 -15l58 -16q27 -8 35 -11q12 -5 12 -14q0 -3 -2 -13l-9 -46q-3 -14 -21 -14h-483q-11 0 -11 9z" />
<glyph unicode="O" horiz-adv-x="1405" d="M90 623q0 105 18.5 204.5t55 188t91.5 162.5t127.5 127.5t162.5 83.5t198 30q116 0 220 -45t182.5 -129.5t124.5 -206.5t46 -276q0 -160 -43.5 -304.5t-126 -254t-202 -174t-272.5 -64.5q-123 0 -229 45t-184.5 129.5t-123.5 206.5t-45 277zM414 290q30 -38 69 -68.5 t83.5 -52.5t93.5 -33.5t100 -11.5q31 0 63.5 4.5t64 15t60 28t52.5 42.5q29 32 50 82t34.5 106.5t20 113t6.5 101.5q0 112 -9.5 200.5t-41.5 165.5q-26 63 -69 114.5t-97 88t-116.5 56.5t-126.5 20q-30 0 -62.5 -4.5t-64 -15t-60.5 -26.5t-53 -39q-31 -31 -53 -82t-36 -109 t-20.5 -116.5t-6.5 -103.5q0 -63 4.5 -127.5t17 -126t36 -118.5t61.5 -104z" />
<glyph unicode="P" horiz-adv-x="1150" d="M69 8q0 1 0.5 3.5t1.5 9t3 18.5l7 32q3 15 19 19q14 5 41 13l54 16q32 10 68 20v1107q-10 2 -35.5 9l-53.5 15l-52 17q-25 8 -32 11q-12 5 -12 14q0 3 2 13l9 45q3 14 21 14h362q61 0 126.5 -2t130 -12t125 -31t110.5 -59q60 -46 96.5 -121t36.5 -184q0 -97 -40 -171.5 t-107 -125.5q-39 -29 -85 -49t-93.5 -32.5t-93 -18t-81.5 -5.5q-15 0 -15 11q0 2 1.5 9.5t6.5 34.5q2 7 6.5 11.5t17.5 9.5q73 31 125 59t85.5 64.5t49 86t15.5 123.5q0 91 -35 152.5t-94.5 98.5t-138 53t-165.5 17v-1165q6 -1 24 -5l40 -9q23 -5 48 -11l47 -11 q22 -5 38.5 -9.5t21.5 -6.5q12 -5 12 -14q0 -3 -2 -12.5t-9 -45.5q-3 -14 -21 -14h-568q-11 0 -14.5 1.5t-3.5 6.5z" />
<glyph unicode="Q" horiz-adv-x="1406" d="M1006 78l152 -161l148 -159q9 -9 9 -16q0 -3 -3.5 -11t-20.5 -40q-6 -12 -18 -12q-19 0 -52 13t-73.5 36t-87 53t-93.5 64l-93 69q-45 36 -83 70zM90 623q0 105 18.5 204.5t55 188t91.5 162.5t127.5 127.5t162.5 83.5t198 30q116 0 220 -45t182.5 -129.5t124.5 -206.5 t46 -276q0 -160 -43.5 -304.5t-126 -254t-202 -174t-272.5 -64.5q-123 0 -229 45t-184.5 129.5t-123.5 206.5t-45 277zM414 290q30 -38 69 -68.5t83.5 -52.5t93.5 -33.5t100 -11.5q31 0 63.5 4.5t64 15t60 28t52.5 42.5q29 32 50 82t34.5 106.5t20 113t6.5 101.5 q0 112 -9.5 200.5t-41.5 165.5q-26 63 -69 114.5t-97 88t-116.5 56.5t-126.5 20q-30 0 -62.5 -4.5t-64 -15t-60.5 -26.5t-53 -39q-31 -31 -53 -82t-36 -109t-20.5 -116.5t-6.5 -103.5q0 -63 4.5 -127.5t17 -126t36 -118.5t61.5 -104z" />
<glyph unicode="R" horiz-adv-x="1293" d="M70 8q0 1 0.5 3.5t1.5 9t3 18.5t6 32q3 15 19 19q14 5 41 13l54 16q32 10 68 20v1107q-10 2 -35.5 9t-53.5 15.5t-52 16.5t-31 11q-12 5 -12 14q0 3 2 13.5t9 44.5q3 14 20 14h352q63 0 128 -2t129 -11t125 -29t115 -56q32 -21 58 -50t44.5 -63.5t28.5 -73t10 -78.5 q0 -132 -74 -219.5t-229 -131.5l17 -28l34 -58l45 -76l51 -86l50 -86l47 -78l35 -59q15 -24 20 -31q9 -13 30 -24t48 -20.5t56.5 -18.5t56.5 -19q12 -3 12 -14q0 -3 -2 -13t-10 -45q-3 -14 -17 -14h-343q-11 0 -14.5 1.5t-3.5 6.5q0 1 0.5 3.5t1.5 9.5t3.5 20t7.5 36 q-4 6 -20 34l-38 69l-50 93l-57 103l-56 103l-49 89l-34 64q-14 24 -15 26q-8 14 -8 21q0 12 24 20q93 34 147.5 72t83 79.5t37 84.5t8.5 87q0 51 -19 90.5t-51 70t-75.5 52.5t-92 36.5t-100.5 22.5t-102 10v-1153q10 -2 39 -9l60 -16q31 -8 58 -16t34 -11q12 -5 12 -15 q0 -2 -3 -17l-11 -53q-3 -14 -21 -14h-535q-11 0 -14.5 1.5t-3.5 6.5z" />
<glyph unicode="S" horiz-adv-x="1060" d="M719 1294q-11 1 -24 1h-23q-67 0 -124.5 -10t-102 -25t-74.5 -34t-40 -37q-12 -22 -17 -57t-5 -72q0 -55 20.5 -92.5t60.5 -66t98 -52.5t133 -52q70 -26 133 -57t110.5 -74.5t75.5 -104.5t28 -148q0 -102 -37 -184.5t-104 -141t-159 -90.5t-202 -32q-64 0 -122 10 t-107.5 26t-87.5 34.5t-61 35.5q-16 11 -16 29q0 11 6.5 47.5t16.5 81.5t22 89t22 70q4 12 19 12q2 0 5 -0.5t10 -2t20 -5.5l34 -9q11 -3 15 -8.5t6 -19.5q1 -6 3 -35l5 -68q2 -37 5 -76.5t6 -64.5q39 -3 85 -3q53 0 111.5 5.5t111.5 18t94.5 32t60.5 47.5q7 10 13 27.5 t10 37t6.5 39t2.5 34.5q0 68 -22.5 113t-61 76.5t-89.5 54t-109 45.5q-69 26 -133.5 58t-114 77.5t-79.5 110.5t-30 157q0 87 38.5 156.5t104 119t151.5 76t182 26.5q30 0 61.5 -3.5t59 -8.5t48.5 -10l28 -7q20 1 37 2q14 1 27 1.5t17 0.5q23 0 26 -25q2 -20 5.5 -50 t7 -64.5t7.5 -69t6.5 -63t4.5 -47t2 -19.5q0 -11 -7 -14q-38 -12 -54 -15t-20 -3q-15 0 -22 16l-13 27l-20 43l-23 52l-23 54l-21 46z" />
<glyph unicode="T" horiz-adv-x="1353" d="M369 8q0 1 0.5 3.5t1.5 9.5t3.5 20t7.5 35q3 15 19 19q14 5 43 13l59 16q34 10 74 20v1143q-30 -5 -76 -10t-94 -9l-92 -9q-44 -4 -69 -7q-4 -4 -14 -20l-22 -38l-26 -48l-26 -50l-24 -44l-15 -28q-7 -12 -13 -16.5t-13 -4.5q-3 0 -11 2t-41 12q-11 2 -15 8.5t-4 16.5 q0 9 3.5 32.5t9 55t13 67.5t16 70.5t17.5 64.5t17 49q2 6 7.5 9t17.5 3h3q3 0 13 -1l31 -3q20 -2 57 -5h931q25 2 46 5l34 4q17 2 23 2q23 0 26 -25l5 -48l8 -70l8 -76l8 -71l5 -53t2 -22q0 -5 -1 -8t-6 -5q-61 -19 -69 -19q-9 0 -14 4.5t-8 12.5l-111 236q-85 6 -173 14.5 t-172 23.5v-1146q10 -2 40 -9l64 -16l63 -16q29 -7 37 -10q12 -5 12 -14q0 -1 -0.5 -3.5t-1.5 -9t-3.5 -18.5t-6.5 -33q-3 -14 -21 -14h-565q-11 0 -14.5 1.5t-3.5 6.5z" />
<glyph unicode="U" horiz-adv-x="1466" d="M411 536q0 -94 29.5 -173.5t83 -137t126.5 -90t160 -32.5q63 0 113.5 20t86.5 57q49 48 73.5 124t24.5 173v765q-10 2 -38 10l-57 16q-30 9 -55.5 17.5t-32.5 11.5q-12 5 -12 14q0 1 1.5 11t9.5 48q3 14 20 14h456q11 0 14.5 -1.5t3.5 -6.5q0 -1 -0.5 -3t-1.5 -8.5 t-3.5 -18.5t-6.5 -33q-3 -13 -19 -19q-14 -5 -36.5 -14t-45.5 -17l-55 -21v-770q0 -111 -33.5 -204.5t-99 -160.5t-163 -104.5t-225.5 -37.5q-130 0 -226 37.5t-159.5 104t-94.5 159t-31 203.5v777q-10 2 -33 9l-48 15l-47 16q-22 8 -29 11q-12 5 -12 14q0 2 2 13l9 46 q3 14 21 14h523q11 0 14.5 -1.5t3.5 -6.5q0 -1 -0.5 -3t-1.5 -10l-5 -23q-3 -15 -9 -42q-3 -15 -19 -19q-14 -5 -43 -13l-59 -14q-34 -9 -74 -17v-699z" />
<glyph unicode="V" horiz-adv-x="1345" d="M731 202q27 103 68 231l89 267l96 282l94 274l-157 29q-7 2 -14 5.5t-7 13.5q0 3 2 14.5t10 50.5q2 9 7 12t15 3h415q18 0 18 -10q0 -3 -3 -17.5t-10 -52.5q-3 -15 -17 -19l-114 -33l-449 -1221q-9 -24 -22.5 -35.5t-45.5 -18.5q-24 -5 -37.5 -7t-21 -3.5t-10.5 -1.5h-4 q-10 0 -16 6t-13 23l-496 1258l-18 4l-39 11l-39 11l-18 4q-19 6 -19 20q0 1 0.5 3t1.5 8.5t3.5 19.5t7.5 36q2 9 7 12t15 3h493q18 0 18 -10q0 -2 -2 -14.5t-10 -51.5q-2 -10 -5 -14.5t-14 -6.5l-150 -37z" />
<glyph unicode="W" horiz-adv-x="1983" d="M653 235l145 424l145 418l-56 178q-6 1 -24 6l-38 11l-37 10q-17 5 -20 6q-6 2 -11.5 5.5t-5.5 12.5q0 1 0.5 4t1.5 10t3 18.5t6 30.5q2 9 7 12t15 3h502q18 0 18 -10q0 -1 -0.5 -3t-1.5 -9t-3.5 -19.5t-6.5 -34.5q-2 -10 -5 -14.5t-14 -6.5l-179 -39l312 -1013 q4 25 20 82t40 133l51 166l57 179l151 460l-181 31q-6 1 -11 4t-5 13q0 1 0.5 4t1.5 9.5t4 18.5l6 32q3 17 24 17h425q18 0 18 -9q0 -1 -1 -3l-2 -10q-1 -8 -3.5 -22t-7.5 -37q-3 -15 -17 -19l-112 -32l-415 -1220q-8 -25 -22 -36t-45 -18q-20 -5 -31.5 -7.5t-18.5 -3.5 t-10 -1.5t-5 -0.5q-10 0 -16.5 6.5t-12.5 23.5l-295 925q-6 -31 -23 -85l-38 -123l-48 -144l-52 -153l-135 -383q-8 -24 -22.5 -35.5t-45.5 -18.5q-20 -5 -32.5 -7.5t-19.5 -3.5t-10 -1.5t-5 -0.5q-11 0 -17.5 6t-11.5 23l-400 1257l-119 31q-6 2 -13 6t-7 14q0 1 0.5 3.5 t1.5 9.5t3.5 20t7.5 34q2 9 7 12t15 3h478q18 0 18 -10q0 -2 -0.5 -4.5t-2 -9.5t-3.5 -19.5t-6 -32.5q-2 -10 -5 -14t-14 -7l-142 -37z" />
<glyph unicode="X" horiz-adv-x="1346" d="M28 9q0 1 0.5 3.5t1.5 10t4 21.5l6 36q3 15 17 19l124 37l393 539l-402 577l-117 27q-6 2 -13 5.5t-7 14.5q0 1 0.5 3t1.5 9t3.5 20.5t7.5 37.5q2 9 7 12t15 3h489q18 0 18 -10q0 -2 -2 -13.5t-9 -48.5q-2 -10 -5 -14t-14 -7l-133 -43l300 -452q13 24 32 56l42 68l47 76 l49 74l119 179l-148 44q-8 2 -14.5 7t-6.5 13q0 2 2 13l9 46q2 9 12 10.5t20 1.5h422q18 0 18 -9v-3q0 -1 -1 -8l-5 -22l-9 -40q-3 -15 -17 -19l-122 -31l-387 -552l402 -568l122 -37q6 -2 12 -6t6 -12q0 -3 -2 -15t-9 -47q-2 -9 -7 -12t-15 -3h-494q-18 0 -18 10 q0 1 1.5 12.5t9.5 49.5q2 10 5 14t14 7l132 43l-299 447q-12 -23 -32 -55l-42 -67l-48 -74l-50 -74l-122 -178l150 -45q20 -6 20 -20q0 -1 -0.5 -3t-1.5 -8t-4 -17l-6 -30q-2 -9 -12 -10.5t-20 -1.5h-422q-18 0 -18 9z" />
<glyph unicode="Y" horiz-adv-x="1199" d="M324 8q0 1 0.5 3t1.5 9t3 19t6 32q3 15 19 19q14 5 40 13l52 16q30 10 64 20v419l-409 693l-108 31q-6 2 -13.5 5.5t-7.5 14.5q0 1 0.5 3.5t1.5 9t3.5 19.5t7.5 35q2 9 7 12t15 3h468q18 0 18 -10q0 -1 -0.5 -3t-1.5 -8.5t-3 -18.5l-7 -32q-2 -10 -5 -14t-14 -7l-146 -44 l336 -580q15 45 47 114l71 149l82 161l74 153l-164 49q-9 2 -15 7t-6 13q0 1 1.5 11t9.5 48q2 9 12 10.5t20 1.5h411q18 0 18 -10q0 -1 -0.5 -3.5t-2 -9.5t-4 -21t-7.5 -37q-3 -15 -17 -19l-112 -32l-368 -692v-421q10 -2 37 -9l57 -16l57 -17t34 -11q12 -5 12 -14 q0 -1 -1.5 -12t-9.5 -46q-3 -14 -21 -14h-525q-11 0 -14.5 1.5t-3.5 6.5z" />
<glyph unicode="Z" horiz-adv-x="1236" d="M946 160q4 4 13.5 19t20.5 35l25 44l25 44l18 34q8 14 10 17q8 12 15 16.5t15 4.5q2 0 9.5 -1.5t37.5 -9.5q11 -3 15 -10t4 -16q0 -20 -7 -63t-17.5 -91.5t-22.5 -94t-23 -72.5q-5 -10 -10.5 -13t-14.5 -3h-907q-14 0 -22 5t-14 19l-24 60q-9 23 -13.5 35.5t-6 18 t-1.5 8.5q0 13 9 24l856 1113q-27 -5 -69 -9.5t-92 -9t-105 -8.5l-107 -8q-124 -9 -263 -16l-93 -202q-9 -17 -22 -17q-4 0 -19.5 3.5t-54.5 14.5q-5 2 -6 5t-1 8q0 3 3 25t7 55l9 72l10 74l9 62q3 27 5 37q2 12 7 18.5t19 6.5q2 0 19 -1.5t37 -3.5q23 -3 52 -5h814 q11 0 15 -3t8 -14q10 -31 16.5 -49.5t9.5 -28.5t4 -14t1 -6q0 -13 -8 -23l-862 -1130q17 3 55 6l88 7q50 4 108.5 8t116.5 7q136 8 299 16z" />
<glyph unicode="[" horiz-adv-x="622" d="M181 1427q0 24 12.5 34.5t34.5 10.5h341q12 0 12 -8v-2q0 -2 -1 -6.5t-3 -14.5t-5 -27q-3 -15 -19 -19q-14 -5 -47 -13l-66 -17q-40 -10 -84 -20v-1533q6 -1 23.5 -5t40.5 -10t48.5 -12t47.5 -12l40 -11q16 -4 21 -6q12 -5 12 -14q0 -2 -1.5 -9.5t-9.5 -34.5 q-4 -14 -21 -14h-344q-15 0 -23.5 11t-8.5 25v1707z" />
<glyph unicode="\" horiz-adv-x="882" d="M77 1420q-4 9 -4 16q0 10 12 15l55 21l33 11q12 4 17 5.5t9 1.5q5 0 8.5 -2.5t7.5 -11.5l573 -1423q2 -3 3.5 -7.5t1.5 -8.5q0 -9 -4 -12.5t-12 -6.5l-53 -19l-30 -11q-10 -4 -14.5 -4.5t-7.5 -0.5q-17 0 -24 16z" />
<glyph unicode="]" horiz-adv-x="619" d="M62 -238l36 10l62 16l64 15l39 9v1533q-49 10 -90 20q-36 8 -70.5 16.5t-48.5 13.5q-7 2 -11.5 5t-4.5 9q0 2 1.5 10.5t8.5 38.5q2 9 6 11.5t15 2.5h322q22 0 34.5 -10.5t12.5 -34.5v-1707q0 -14 -8.5 -25t-23.5 -11h-354q-14 0 -14 9q0 2 1.5 11.5t6.5 36.5 q2 9 5.5 13.5t10.5 7.5z" />
<glyph unicode="^" horiz-adv-x="792" d="M397 1107l-134 -81l-71 -43q-24 -14 -30 -16.5t-7 -2.5q-4 0 -9 5l-28 27q-10 10 -14.5 15t-5.5 7.5t-1 5.5q0 5 5 10l229 223q12 12 31 12h71q8 0 16.5 -2.5t14.5 -9.5l227 -228q6 -6 6 -10q0 -2 -1 -4t-5.5 -7.5t-14.5 -14.5l-26 -24q-5 -5 -10 -5q-2 0 -8 2 q-6 3 -30 17l-72 43z" />
<glyph unicode="_" horiz-adv-x="1103" d="M141 2q0 2 0.5 5.5t2.5 14.5l6 32q4 20 10 55q4 20 25 20h749q18 0 18 -15q0 -2 -0.5 -6t-2.5 -14l-5 -26l-8 -43q-2 -6 -8 -13t-18 -8q-35 -2 -97 -4q-61 -2 -137 -4l-158 -4q-82 -2 -154 -2.5t-128.5 -1t-81.5 -0.5q-13 0 -13 14z" />
<glyph unicode="a" horiz-adv-x="971" d="M68 241q0 49 8.5 85t26.5 63.5t46.5 48t68.5 37.5q31 13 71.5 22.5t83 15.5t84 8.5t74.5 2.5q41 0 80 -3v54q0 34 -3 74.5t-13.5 79t-30.5 71.5t-54 51q-22 12 -57 18t-71 6q-18 0 -35.5 -2t-31.5 -5l-34 -182q-13 -7 -28.5 -11t-32.5 -4q-20 0 -40.5 8.5t-37.5 23.5 t-28 34.5t-11 41.5q0 33 26 57.5t58 42.5q40 22 90.5 40t99.5 30.5t90.5 19t62.5 6.5q73 0 122.5 -23t80 -63t44 -95.5t13.5 -119.5v-472q23 -42 65 -66t95 -38q11 -3 11 -12q0 -3 -1.5 -9t-6.5 -30q-2 -6 -4.5 -10t-13.5 -9q-17 -8 -43 -17t-53.5 -17t-55 -13.5t-47.5 -5.5 q-5 0 -11 2t-8 7q-13 33 -27 62q-12 25 -26 49t-26 37q-16 -24 -51 -51.5t-79.5 -51t-92 -39t-89.5 -15.5q-71 0 -120 25t-79.5 64t-44.5 86t-14 91zM356 112q13 -6 34 -6q24 0 54 5.5t60.5 14t58.5 19t48 20.5v293q-81 -6 -141 -18.5t-101.5 -27.5t-65 -30t-32.5 -25 q-12 -12 -15.5 -29.5t-3.5 -36.5q0 -26 8.5 -54t22.5 -53t33 -44.5t40 -27.5z" />
<glyph unicode="b" horiz-adv-x="1087" d="M326 104l-58 -43q-31 -23 -59.5 -42t-50 -31.5t-28.5 -12.5q-8 0 -12 6q-14 18 -21.5 28.5t-11 16.5t-4.5 8.5t-1 4.5q0 5 5 15l43 78l41 79v1068q-26 28 -66.5 48t-78.5 27q-11 2 -11 9q0 2 0.5 7t5.5 26q3 11 16 15l41 12q34 10 79 21t94 19.5t87 8.5q11 0 11 -10v-635 q31 25 71.5 51.5t84 48t88 35t84.5 13.5q93 0 156 -41.5t101.5 -108t55 -150t16.5 -168.5q0 -113 -35.5 -212t-100.5 -174q-25 -29 -54.5 -55t-64.5 -46.5t-75.5 -32.5t-88.5 -12q-41 0 -75.5 6.5t-65.5 21.5t-60 39.5t-58 61.5zM347 240q29 -35 66 -58t77 -37t80.5 -20 t75.5 -6q67 0 99 16q19 9 35 43.5t26.5 81t16.5 98.5t6 94q0 57 -9.5 111.5t-27.5 101.5t-44 85t-59 62q-11 8 -27.5 13t-34.5 5q-20 0 -54 -5t-73.5 -13.5t-80 -19t-72.5 -21.5v-531z" />
<glyph unicode="c" horiz-adv-x="873" d="M598 887q-63 -1 -124.5 -20t-115.5 -73q-54 -57 -76.5 -125t-22.5 -139q0 -76 19.5 -150t64.5 -139q17 -26 40.5 -48.5t51.5 -39t61 -26.5t69 -10t75.5 10t73.5 21.5t59 21.5t32 10q6 0 10 -5q8 -11 10 -15.5t2 -6.5q0 -5 -9 -15q-18 -21 -49.5 -49t-73 -53.5t-91 -43 t-103.5 -17.5q-108 0 -188 37.5t-133 102t-79.5 150.5t-26.5 183q0 133 40 231.5t109 163.5t160.5 96.5t194.5 31.5q49 0 88.5 -6.5t69.5 -18.5q28 -12 50 -35t22 -57q0 -23 -11 -45t-28 -39.5t-38 -28.5t-41 -11q-17 0 -34 4.5t-29 11.5z" />
<glyph unicode="d" horiz-adv-x="1104" d="M737 1279q-26 28 -66 48t-78 27q-11 2 -11 9q0 1 0.5 5.5t5.5 27.5q3 11 16 15q6 2 39 12t77 21t93 19.5t87 8.5q11 0 11 -10v-1260q12 -27 36 -45.5t48.5 -31t46 -19t29.5 -8.5q11 -3 11 -12q0 -2 -1.5 -9.5t-7.5 -33.5q-2 -6 -5 -8.5t-11 -6.5q-5 -2 -30 -10.5 t-56.5 -18t-63.5 -17t-51 -7.5q-6 0 -11 2t-7 7q-12 33 -25 61q-11 24 -24.5 48t-27.5 37q-23 -33 -54.5 -61.5t-69 -49.5t-79 -32.5t-84.5 -11.5q-72 0 -143.5 24.5t-128.5 79.5t-92.5 142.5t-35.5 212.5q0 120 35 219.5t95 171t140 111t170 39.5q57 0 116 -17t107 -55v376 zM734 658q-21 46 -54.5 81.5t-74 60t-85.5 37t-89 12.5q-15 0 -32 -1.5t-33 -6t-30 -12.5t-24 -22q-64 -87 -64 -269q0 -79 18.5 -145.5t47 -118.5t62.5 -87.5t65 -52.5q17 -10 28 -13.5t27 -3.5q59 0 119 13t119 36v492z" />
<glyph unicode="e" horiz-adv-x="921" d="M245 488q5 -71 28.5 -137t62.5 -118t92.5 -83t118.5 -31q47 0 91 10.5t80 22.5t60.5 22.5t32.5 10.5q6 0 10 -5q8 -12 10 -16t2 -6q0 -6 -9 -16q-19 -21 -54 -49.5t-80.5 -55t-98.5 -44.5t-108 -18q-81 0 -155.5 26t-130.5 83t-89.5 148t-33.5 221q0 109 32.5 204.5 t92 166t143 111t185.5 40.5q76 0 135 -25t99.5 -68.5t61.5 -101.5t21 -124q0 -67 -21 -134q-5 -17 -13.5 -25.5t-27.5 -8.5h-537zM328 833q-12 -12 -25.5 -35.5t-25.5 -57.5t-20.5 -78.5t-11.5 -98.5l433 34q0 64 -20 113t-54 82t-78.5 49.5t-95.5 16.5q-12 0 -26 -0.5 t-28 -3t-26.5 -7.5t-21.5 -14z" />
<glyph unicode="f" horiz-adv-x="724" d="M60 8q0 1 0.5 3t1.5 8.5t3.5 19.5t7.5 36q2 8 6.5 11.5t12.5 6.5l36 13l43 14l51 16v675l-154 47q-10 2 -10 10v2q1 2 2 9t3.5 20.5t7.5 36.5q3 14 21 14h130q0 136 21 234.5t67.5 162.5t121 94.5t181.5 30.5q106 0 165 -28q25 -11 45.5 -33.5t20.5 -54.5 q0 -23 -11 -45.5t-28 -40t-38 -28.5t-41 -11q-17 0 -34.5 5.5t-29.5 11.5l-32 163q-78 -11 -124 -54t-69.5 -106t-30 -141t-6.5 -160h297q14 0 14 -8q0 -3 -1.5 -10.5t-3 -16t-3 -16t-1.5 -9.5q-2 -8 -5 -12.5t-11 -7.5q-11 -4 -38 -11t-65 -15l-85 -16q-47 -8 -98 -15v-687 q7 -2 25.5 -5l43.5 -7l53 -10q27 -4 51.5 -8.5t42.5 -8.5t23 -6q12 -5 12 -14q0 -3 -1.5 -11.5t-8.5 -41.5q-3 -14 -21 -14h-542q-11 0 -14.5 1.5t-3.5 6.5z" />
<glyph unicode="g" horiz-adv-x="1005" d="M388 -500q-40 0 -84 6t-84.5 17.5t-74.5 27t-55 33.5q-35 31 -47 68.5t-12 76.5q0 36 16.5 70.5t43 66.5t58.5 60l64 55q-31 10 -54 27.5t-38.5 38.5t-23.5 43t-8 43q0 36 17 66t43 54t56.5 42.5t57.5 30.5q-32 17 -60 41t-48 56.5t-31.5 73t-11.5 90.5q0 78 23 148.5 t71.5 124t125 84.5t184.5 31q62 0 115 -16t96 -45q35 17 72 28.5t70 19t59 10.5t39 3q7 0 11 -1.5t6 -7.5q8 -18 9.5 -22t1.5 -7q0 -7 -9 -16l-157 -130q28 -62 28 -135q0 -81 -25 -150t-74.5 -119.5t-123.5 -79t-172 -28.5q-37 0 -75.5 5.5t-75.5 19.5l-21 -31 q-12 -18 -22.5 -36.5t-18 -36t-7.5 -29.5q0 -14 9.5 -24.5t22.5 -15.5q15 -5 39.5 -8.5t68.5 -5.5t112.5 -2.5t171.5 -0.5q69 0 123.5 -10.5t93 -33.5t58.5 -61t20 -93q0 -76 -39 -150.5t-112.5 -133.5t-180 -95.5t-241.5 -36.5zM691 -43q-158 0 -263.5 2t-165.5 11l-23 -42 q-13 -24 -24 -50.5t-19 -53t-8 -48.5q0 -23 9 -35q24 -34 98.5 -60.5t190.5 -26.5q30 0 68 2t76 7.5t72 16t56 27.5q19 15 37 49.5t18 85.5q0 23 -3 44t-15 36.5t-36.5 25t-67.5 9.5zM547 398q35 0 64 9.5t47 27.5q10 10 17.5 28.5t12 41t7 47t2.5 45.5q0 59 -16.5 108 t-49 84.5t-81.5 55t-114 19.5q-18 0 -38 -2.5t-37.5 -7.5t-30.5 -11.5t-19 -15.5q-17 -26 -27.5 -61.5t-10.5 -79.5q0 -53 20 -104.5t56.5 -92.5t87 -66t110.5 -25z" />
<glyph unicode="h" horiz-adv-x="1180" d="M198 1279q-26 28 -66 48t-78 27q-11 2 -11 9q0 1 0.5 5.5t5.5 27.5q3 11 16 15q5 2 38.5 11.5t79 20.5t95 20t87.5 9q12 0 12 -10v-660q40 33 88 64t97 55t97.5 38t90.5 14q44 0 88.5 -17t80 -58t58 -109t22.5 -171v-492q10 -2 32 -8l46 -11q24 -6 44.5 -12t28.5 -9 q12 -5 12 -14q0 -1 -0.5 -3.5t-1.5 -8.5t-3 -17t-6 -29q-3 -14 -21 -14h-413q-11 0 -14.5 1.5t-3.5 6.5q0 1 0.5 3.5t1.5 9t3.5 19.5t7.5 35q2 8 6.5 11.5t12.5 8.5q3 2 17.5 7t30.5 12l42 17v419q0 55 -8.5 98.5t-22 75.5t-30.5 54t-33 35q-10 8 -18.5 10.5t-19.5 2.5 q-23 0 -60.5 -6.5t-80.5 -16.5t-88 -22.5t-83 -24.5v-630q9 -2 31 -8l48 -12q25 -6 46 -12t29 -9q12 -5 12 -14q0 -3 -2 -12.5t-10 -44.5q-3 -14 -21 -14h-455q-17 0 -17 8q0 1 0.5 3.5t1.5 9.5t4 20l6 34q2 8 6.5 11.5t12.5 6.5q15 6 37 13t42 14l50 16v1143z" />
<glyph unicode="i" horiz-adv-x="590" d="M55 8q0 1 0.5 3t1.5 8l3 18q2 12 6 33q3 13 19 19q14 5 36 11l43 12l51 14v646q-26 27 -66 47.5t-78 27.5q-11 2 -11 9q0 1 0.5 5.5t5.5 27.5q3 11 16 15q4 2 21 7t42 11l55 14q31 8 63 14.5t63 10.5t57 4q11 0 11 -10v-829q10 -2 32 -8l44 -12l44 -12q21 -6 29 -9 q12 -5 12 -14q0 -1 -0.5 -3t-1.5 -8t-3 -17t-6 -29q-3 -14 -21 -14h-450q-11 0 -14.5 1.5t-3.5 6.5zM380 1175q-8 -6 -24 -9q-11 -1 -24 -1h-11q-18 1 -37.5 3.5t-36 7t-29 10t-17.5 11.5q-7 9 -9 27q-2 14 -2 28v12q2 35 11 69.5t22 45.5q8 7 24 9q11 1 23 1h13 q18 -1 37 -3.5t35.5 -7t29.5 -10.5t19 -12q7 -8 9 -26q1 -12 1 -25v-13q-1 -18 -3.5 -36t-7 -34.5t-10.5 -28.5t-13 -18z" />
<glyph unicode="j" horiz-adv-x="519" d="M191 772q-26 27 -65.5 47.5t-77.5 27.5q-11 2 -11 9q0 1 0.5 6.5t5.5 26.5q3 11 16 15l40 12q33 10 78 21t94.5 19.5t87.5 8.5q11 0 11 -10v-927q0 -60 -4 -122.5t-16 -121t-34 -110.5t-57 -90.5t-85.5 -61t-119.5 -22.5q-32 0 -66 6.5t-63 20.5t-47.5 36.5t-18.5 54.5 q0 23 12 46.5t30.5 43t40 31.5t39.5 12q14 0 29 -3t34 -11l45 -176q35 40 55.5 80t31 90t13 114.5t2.5 154.5v772zM346 1175q-8 -6 -24 -9q-11 -1 -24 -1h-11q-18 1 -37 3.5t-35.5 7t-29.5 10t-18 11.5q-7 9 -9 27q-2 11 -2 22q0 9 1 18q1 35 10 69.5t22 45.5q8 7 25 9 q11 1 23 1h13q18 -1 37 -3.5t35.5 -7t29 -10.5t18.5 -12q8 -8 10 -26v-22v-16q-1 -18 -3.5 -36t-7 -34.5t-10.5 -28.5t-13 -18z" />
<glyph unicode="k" horiz-adv-x="1142" d="M194 1279q-26 28 -66 48t-78 27q-11 2 -11 9q0 1 0.5 5.5t5.5 27.5q3 11 16 15q5 2 38.5 11.5t79 20.5t95.5 20t88 9q11 0 11 -10v-1336q10 -2 33 -8l46 -11q25 -6 46.5 -12t29.5 -9q12 -5 12 -14q0 -2 -2 -11t-9 -47q-3 -14 -21 -14h-449q-11 0 -14.5 1.5t-3.5 6.5 q0 1 0.5 3t1.5 8.5t3 18.5l7 32q3 14 19 19q14 5 34 11l41 12l47 14v1153zM605 587l168 -212l66 -81l63 -75l52 -59q22 -24 34 -33q7 -5 23 -11t37 -12l41 -14q21 -6 38 -10q11 -2 11 -10q0 -2 -2 -11t-9 -45q-3 -14 -21 -14h-318q-11 0 -14.5 1.5t-3.5 6.5q0 1 0.5 3t1.5 7 l3 16l5 27q-5 11 -22.5 37.5t-43.5 61.5l-56 76l-63 82l-166 211q-9 10 -9 19t11 18l321 278l-110 26q-15 4 -15 17v3q0 1 1 5.5t2.5 14t4.5 26.5q3 14 21 14h384q13 0 13 -11q0 -2 -2 -13t-8 -40q-3 -14 -15 -17l-122 -33z" />
<glyph unicode="l" horiz-adv-x="572" d="M194 1279q-26 28 -66 48t-78 27q-11 2 -11 9q0 1 0.5 5.5t5.5 27.5q3 11 16 15q5 2 38.5 11.5t79 20.5t95.5 20t88 9q11 0 11 -10v-1336q10 -2 33 -8l47 -11q25 -6 46.5 -12t29.5 -9q12 -5 12 -14q0 -2 -2 -11t-9 -47q-3 -14 -21 -14h-450q-11 0 -14.5 1.5t-3.5 6.5 q0 1 0.5 3t1.5 8.5t3 18.5l7 32q3 14 19 19q14 5 34 11l41 12l47 14v1153z" />
<glyph unicode="m" horiz-adv-x="1781" d="M216 752q-15 28 -36.5 45t-43.5 27t-41 14t-28 7q-11 3 -11 9q0 1 0.5 5.5t5.5 27.5q2 6 4.5 8.5t9.5 5.5l18 6q16 5 40 11l51 14q28 8 56 14t52.5 10t41.5 4q6 0 8 -2t4 -7l35 -150q40 34 87.5 65t96 55t95.5 38t88 14q33 0 65.5 -9t61.5 -29t54 -53t42 -82 q40 34 89.5 65.5t100.5 55.5t99.5 38t88.5 14q67 0 114.5 -24.5t77.5 -81.5t44 -151t14 -233v-357q9 -2 32 -8l46 -11q25 -6 46 -12t29 -9q12 -5 12 -14q0 -2 -2 -12l-9 -46q-3 -14 -21 -14h-416q-11 0 -14.5 1.5t-3.5 6.5q0 1 0.5 3.5t1.5 9t3.5 19.5t7.5 35q2 8 6.5 12 t12.5 8l19 8l31 12l40 16v348q0 78 -7.5 135.5t-20.5 98.5t-31 66t-38 37q-18 11 -32 11t-47.5 -5t-77 -14t-92 -21.5t-92.5 -27.5q6 -21 9 -54t4.5 -71t1.5 -78v-78v-352q10 -2 32 -8l48 -12l45 -12q21 -6 29 -9q12 -5 12 -14q0 -1 -1.5 -10.5t-9.5 -46.5q-3 -14 -21 -14 h-416q-11 0 -14.5 1.5t-3.5 6.5q0 1 0.5 3t1.5 9t3.5 20t7.5 35q2 8 6.5 12t12.5 7q5 2 19.5 8.5t30.5 12.5q18 7 39 16v370q0 75 -8.5 130t-22.5 93t-32.5 61.5t-39.5 34.5q-14 7 -27 7q-20 0 -53 -5.5t-73.5 -15.5t-84.5 -22l-87 -26q2 -16 3.5 -33.5t1.5 -37.5v-27 q0 -24 -0.5 -64t-0.5 -90v-102v-278q10 -2 33 -8l46 -12l46 -12q21 -6 28 -9q12 -5 12 -14v-2q-1 -2 -2 -8t-3 -17t-5 -30q-3 -14 -21 -14h-453q-11 0 -14.5 1.5t-3.5 6.5v2q0 2 1.5 8.5t4 19.5t7.5 37q2 8 6.5 11.5t12.5 6.5l36 13l41 14l49 16v616z" />
<glyph unicode="n" horiz-adv-x="1200" d="M216 752q-12 26 -34 43.5t-45 28t-42.5 15t-27.5 6.5q-11 3 -11 9q0 1 0.5 5.5t5.5 27.5q2 6 4.5 8.5t9.5 5.5l18 6q16 5 40 11l51 14q28 8 56 14t52.5 10t41.5 4q6 0 8 -2t4 -7l35 -157q40 34 89.5 66.5t101 57.5t102 40t92.5 15q44 0 89 -17t81 -57.5t58.5 -109 t22.5 -171.5v-492q9 -2 32 -8l46 -11q25 -6 46 -12t29 -9q12 -5 12 -14l-1 -2q0 -2 -1 -8l-3 -18q-2 -11 -6 -30q-3 -14 -21 -14h-415q-11 0 -14.5 1.5t-3.5 6.5q0 1 0.5 3.5t1.5 9t3.5 19.5t7.5 35q2 8 6.5 12t12.5 8l20 8q14 6 30 12q18 7 39 16v419q0 57 -9 100.5 t-22.5 76t-30.5 54t-33 33.5q-20 13 -39 13q-21 0 -60.5 -7t-85 -17.5t-91 -23.5t-78.5 -24l2 -21q1 -9 2 -19t1 -17v-572q10 -2 33 -8l46 -12l46 -12q21 -6 29 -9q11 -5 11 -14q0 -1 -1 -12t-9 -45q-3 -14 -21 -14h-453q-11 0 -14.5 1.5t-3.5 6.5q0 1 0.5 3t1.5 9t3.5 20 t7.5 35q2 8 6.5 11.5t12.5 6.5q15 6 36 13l42 14l48 16v616z" />
<glyph unicode="o" horiz-adv-x="1022" d="M568 109q43 0 85 12.5t70 40.5q14 14 24 41t16 57.5t9 62t3 54.5q0 109 -25.5 196t-70 147.5t-104.5 92.5t-129 32q-31 0 -54 -4t-40 -11.5t-29.5 -17t-23.5 -19.5q-11 -13 -20.5 -37t-16.5 -54.5t-11 -63.5t-4 -64q0 -82 19 -165t58.5 -149.5t100 -108.5t143.5 -42z M73 437q0 104 32 201t90 172t139.5 120t179.5 45q89 0 168 -27.5t138.5 -84.5t94 -144t34.5 -207q0 -106 -33.5 -203t-91.5 -171.5t-136.5 -118.5t-168.5 -44q-93 0 -174.5 27t-141.5 83.5t-95 143.5t-35 208z" />
<glyph unicode="p" horiz-adv-x="1102" d="M368 -349q7 -1 26 -5l44 -8l50 -9l50 -9q24 -5 41.5 -9t22.5 -6q11 -5 11 -15v-4q0 -1 -1 -6l-3 -14q-2 -10 -5 -27q-3 -14 -21 -14h-534q-11 0 -14.5 1.5t-3.5 6.5q0 1 0.5 3t1.5 8.5t3.5 19.5t6.5 36q2 8 6 11.5t13 6.5l36 12l42 15l49 16v1091q-13 26 -33.5 43 t-42.5 27.5t-41.5 15.5t-29.5 7q-11 2 -11 9q0 2 1 7.5t5 25.5q2 6 5 8.5t11 6.5q6 3 37 12t71.5 19.5t81.5 18.5t66 8q10 0 12 -10l31 -125l74 50q40 26 82 48t87 36t90 14q79 0 142 -31.5t106.5 -91.5t66.5 -146.5t23 -196.5q0 -68 -14.5 -133.5t-41.5 -124.5t-65 -109 t-85 -87q-42 -33 -95.5 -55.5t-112.5 -22.5q-72 0 -136 24.5t-105 80.5v-429zM364 770q2 -17 3 -38t1 -34v-458q28 -35 66 -58.5t78.5 -37.5t81 -20t75.5 -6q31 0 55 4t38 11q14 6 29 32t27 65t20 89t8 106q0 71 -12 130.5t-32 107.5t-48 84.5t-59 61.5q-17 13 -33.5 17.5 t-33.5 4.5q-21 0 -53 -5t-68.5 -13.5t-73.5 -19.5t-69 -23z" />
<glyph unicode="q" horiz-adv-x="1083" d="M733 98q-54 -54 -125.5 -88.5t-152.5 -34.5q-69 0 -137.5 27t-122.5 84.5t-88 147t-34 215.5q0 104 33 201t99 178q28 35 63 62t73.5 45.5t79 28t80.5 9.5q42 0 80 -5.5t73.5 -19.5t68 -39t63.5 -64q22 18 48.5 36.5t51 33.5t44.5 25t28 10q7 0 13 -7l17 -23 q7 -9 10 -14.5t3.5 -8.5t0.5 -6q0 -7 -7 -19l-8 -14l-14 -25l-24 -41l-37 -64v-1068q10 -2 32.5 -8t47.5 -14l46 -14q22 -6 29 -9q12 -5 12 -14q0 -1 -0.5 -3.5t-1.5 -8.5l-3 -18q-2 -12 -6 -32q-3 -14 -21 -14h-528q-11 0 -14.5 1.5t-3.5 6.5q0 1 0.5 2.5t1.5 6.5l3 16 q2 11 6 29q3 14 19 18q15 5 48 13l68 15q40 9 86 18v447zM733 658q-17 38 -48 72.5t-71 61t-87 42t-95 15.5q-41 0 -70 -7.5t-51 -35.5q-17 -21 -29 -51t-19.5 -65t-11 -74t-3.5 -79q0 -56 11 -113t33.5 -109.5t57 -98t82.5 -78.5q15 -11 32 -16t35 -5q59 0 119 13t115 36 v492z" />
<glyph unicode="r" horiz-adv-x="823" d="M218 752q-13 27 -34.5 44.5t-44 27.5t-41.5 14l-29 7q-11 3 -11 9q0 1 1 5.5t5 27.5q2 6 4.5 8.5t9.5 5.5l18 6q16 5 39 11.5t50.5 13.5t55 13t51.5 10t41 4q6 0 8 -2t4 -7l46 -189q34 59 64.5 99t60 64.5t60 35t63.5 10.5q23 0 51.5 -7t53.5 -21q23 -13 41 -34.5 t18 -51.5q0 -24 -11 -49t-28.5 -45.5t-39 -34t-43.5 -13.5q-19 0 -37.5 4.5t-31.5 10.5l-20 111q-24 -10 -50.5 -26.5t-53 -35.5t-50.5 -39l-41 -36v-578q4 -1 22 -3.5t43 -7.5l54 -9l54 -9q26 -5 45 -9t24 -6q12 -7 12 -14q0 -3 -1.5 -11.5t-8.5 -41.5q-3 -14 -21 -14h-545 q-11 0 -14.5 1.5t-3.5 6.5q0 1 0.5 3t1.5 9l3 20l7 35q2 8 6.5 11.5t12.5 6.5l36 13l43 14l51 16v616z" />
<glyph unicode="s" horiz-adv-x="824" d="M523 886q-30 -2 -63 -8.5t-65.5 -16t-62 -23t-52.5 -30.5q-14 -10 -22 -27t-8 -43q0 -23 8.5 -42.5t22 -35.5t31 -28.5t35.5 -22.5q34 -18 72 -30l77 -24q38 -12 76.5 -26t73.5 -36q47 -29 76 -80t29 -125q0 -79 -28 -138t-76.5 -98t-114 -58t-139.5 -19q-67 0 -117 9 t-87.5 23.5t-65 31.5t-49.5 34q-3 3 -6.5 7t-3.5 11q0 12 4 39.5t10 59t13 59.5t12 40q6 13 17 13q1 0 5 -0.5t12 -2.5l23 -5l38 -10q8 -2 10.5 -6t4.5 -12l34 -178q36 0 78.5 3t84.5 9.5t80.5 18t65.5 29.5q20 13 28 33.5t8 43.5q0 38 -14.5 69.5t-52.5 56.5 q-30 19 -64.5 32.5t-70.5 24.5l-70 24q-35 12 -65 29q-69 38 -110 98t-41 145q0 71 31 122.5t83 84.5t118 48.5t137 15.5q59 0 107 -12t83 -32q12 -7 24 -16.5t22 -21.5t16.5 -26.5t6.5 -31.5q0 -23 -11 -44.5t-28 -38t-38 -26.5t-40 -10q-17 0 -33.5 4t-28.5 10z" />
<glyph unicode="t" horiz-adv-x="717" d="M30 857q-11 3 -11 13q0 1 0.5 3t1.5 9t3.5 19.5t7.5 34.5q3 14 19 14h132l20 208q1 13 13 17l72 29l40 16q13 6 17 7t6 1q11 0 11 -12v-266h302q13 0 13 -9v-3q0 -1 -1 -7t-3.5 -18t-6.5 -34q-2 -7 -5.5 -11t-14.5 -7l-32 -7q-23 -6 -59.5 -13t-85.5 -15t-107 -15v-444 q0 -41 5.5 -80.5t17 -73.5t29.5 -60t42 -40q16 -9 47 -9q26 0 57 5.5t59 11.5t48 11.5t23 5.5q7 0 10 -7l10 -26q3 -6 3 -8q0 -5 -9 -11q-21 -14 -54 -33.5t-70.5 -36.5t-75.5 -29t-68 -12q-59 0 -106 19t-79.5 60.5t-50 106t-17.5 155.5v495z" />
<glyph unicode="u" horiz-adv-x="1159" d="M180 782q-13 15 -31.5 28t-39 23t-41 16.5t-35.5 8.5q-10 1 -10 9q0 1 0.5 3t2 9t4 20.5t7.5 36.5q3 14 21 14h270q31 0 31 -31v-515q0 -58 9 -103t23 -78t31 -54.5t34 -33.5q12 -9 25.5 -12.5t27.5 -3.5q30 0 66.5 4t73 11.5t71 17.5t61.5 22v626l-170 55q-12 4 -12 13 q0 3 3 16l11 52q3 14 19 14h296q31 0 31 -31v-720q12 -26 35.5 -44t48.5 -30t46 -18.5t29 -8.5q11 -3 11 -13q0 -2 -1.5 -9t-6.5 -33q-2 -10 -16 -15q-6 -2 -29 -10.5t-53 -18t-62.5 -17t-56.5 -7.5q-14 0 -18 9q-12 32 -26 62q-12 25 -27 50.5t-29 39.5q-29 -32 -70.5 -61 t-89.5 -51t-99.5 -35.5t-102.5 -13.5q-49 0 -96 17t-84 58.5t-59.5 110t-22.5 171.5v450z" />
<glyph unicode="v" horiz-adv-x="1026" d="M794 824l-122 42q-7 2 -13.5 6t-6.5 12q0 2 1.5 11.5t8.5 40.5q3 14 21 14h327q17 0 17 -9q0 -1 -1.5 -9.5t-6.5 -33.5q-3 -11 -16 -18l-94 -59l-307 -779q-9 -23 -21 -33.5t-43 -17.5q-20 -4 -31.5 -6.5t-18 -3.5t-8.5 -1h-5q-11 0 -16 6t-11 22l-331 813l-122 47 q-6 2 -13 6.5t-7 12.5q0 2 1.5 10t8.5 39q3 14 21 14h424q17 0 17 -9q0 -2 -1.5 -10t-8.5 -39q-2 -9 -5 -12.5t-13 -7.5l-108 -46l251 -630z" />
<glyph unicode="w" horiz-adv-x="1494" d="M532 42q-8 -23 -18 -31.5t-25 -12.5l-40 -10l-24 -5q-9 -2 -13.5 -2.5t-7.5 -0.5q-9 0 -15.5 6.5t-8.5 14.5l-244 820l-122 47q-11 5 -15.5 8t-4.5 9v3q0 1 1 6.5t3 15t6 26.5q2 9 7 11.5t14 2.5h409q11 0 14.5 -1.5t3.5 -6.5q0 -1 -0.5 -3t-1.5 -7.5t-3 -15.5t-6 -26 q-2 -7 -5 -10.5t-11 -7.5l-104 -49l173 -624l230 731q6 20 23 20h42q16 0 24 -20l282 -731l154 627l-137 39q-13 4 -20.5 8t-7.5 13v2q0 2 1 7l3 15q2 9 5 26q2 9 7 11.5t14 2.5h354q17 0 17 -9q0 -1 -1.5 -8t-6.5 -36q-2 -7 -5 -10t-11 -7l-97 -57l-225 -752 q-6 -21 -11.5 -34t-11.5 -21t-13.5 -12t-17.5 -7l-41 -9l-24 -6q-9 -2 -13 -2.5t-6 -0.5q-15 0 -21 15l-244 662z" />
<glyph unicode="x" horiz-adv-x="1127" d="M597 559l214 280l-115 30q-12 4 -12 14v3l2 8l3 15q2 10 5 27q3 14 21 14h346q11 0 14.5 -1.5t3.5 -6.5q0 -1 -0.5 -3t-1.5 -9t-3.5 -19t-6.5 -33q-3 -14 -19 -18l-100 -26l-293 -352l288 -367l137 -31q13 -3 13 -16q0 -1 -1 -10t-8 -44q-2 -9 -7 -11.5t-14 -2.5h-443 q-11 0 -14.5 1.5t-3.5 6.5q0 1 0.5 3t1.5 8l3 17q2 12 6 30q4 14 15 17l99 29l-202 271l-210 -273l111 -28q12 -5 12 -14q0 -2 -1.5 -11.5t-8.5 -42.5q-3 -14 -21 -14h-350q-11 0 -14.5 1.5t-3.5 6.5q0 3 1.5 13t9.5 44q2 8 6.5 11.5t12.5 6.5l109 38l287 342l-290 378 l-119 26q-13 4 -13 16q0 4 2 14l8 39q2 9 7 11.5t14 2.5h426q11 0 14 -2t3 -7q0 -1 -1.5 -10.5t-9.5 -43.5q-2 -5 -4.5 -9.5t-10.5 -7.5l-92 -32z" />
<glyph unicode="y" horiz-adv-x="1037" d="M304 826l262 -621l212 619l-127 44q-7 3 -11 6t-4 11q0 3 2 12t7 38q2 9 6 12t13 3h342q11 0 14.5 -1.5t3.5 -6.5q0 -2 -1.5 -10t-7.5 -36q-2 -8 -5.5 -12t-9.5 -7l-94 -52l-238 -663q-51 -142 -96.5 -252t-90.5 -190.5t-92 -131t-102 -72.5q-41 -16 -85 -16 q-30 0 -64.5 6t-64 20.5t-48.5 37t-19 55.5q0 22 12 46t30 43t39.5 31.5t40.5 12.5q15 0 35.5 -4t34.5 -14l30 -158q17 10 47 46.5t65 91.5t73 123t71 142q-2 2 -2 3l-377 838l-126 49q-9 3 -12 6.5t-3 8.5v3q0 2 1 7.5t3 15t5 26.5q2 9 7 11.5t14 2.5h440q11 0 14.5 -1.5 t3.5 -6.5q0 -1 -0.5 -3t-1.5 -7l-3 -15q-2 -10 -5 -27q-2 -12 -19 -18z" />
<glyph unicode="z" horiz-adv-x="912" d="M661 115l10 31l15 48q8 25 16 47.5t13 31.5q7 13 23 14q22 2 38.5 2.5t24.5 0.5q7 0 12 -2.5t7 -15.5q2 -12 3 -37.5t1 -56.5q0 -23 -0.5 -47.5t-1.5 -46.5t-2 -39t-2 -25q-3 -20 -33 -20h-673q-18 0 -24 15l-14 33l-8 19q-3 7 -3.5 10.5t-0.5 6.5q0 7 4 12.5t9 13.5 l575 741l-390 -19q-3 -10 -10 -29l-14 -39l-14 -38q-7 -18 -11 -26q-6 -12 -22 -13q-17 -2 -39 -3t-30 -1q-7 0 -12 3t-7 15q-2 15 -2.5 39.5t-0.5 50.5q0 40 1.5 78t3.5 56q3 20 34 20h635q17 0 22 -14l16 -49l10 -28q4 -11 5.5 -16t1.5 -8q0 -6 -2.5 -11.5t-4.5 -9.5 l-545 -714z" />
<glyph unicode="{" horiz-adv-x="652" d="M389 797q0 -66 -25 -107.5t-56 -66t-59 -34.5t-34 -11q6 -2 34 -12t59 -34t56 -66t25 -106v-540l88 -37l67 -28l45 -20q8 -4 11 -7t5 -11q3 -17 5 -27t3 -14t1 -6v-3q0 -5 -3.5 -6.5t-14.5 -1.5q-87 0 -148.5 4.5t-102.5 14.5t-65.5 26t-36.5 38t-15.5 51.5t-3.5 66.5 v530q0 23 -16 47t-37.5 45t-45 37.5t-38.5 25.5q-5 3 -13 12t-8 21t7 20t14 12q14 7 37 22t45.5 35t38.5 43t16 47v539q0 37 3.5 66.5t15.5 51.5t36.5 38t65.5 26t102.5 14.5t148.5 4.5q11 0 14.5 -1.5t3.5 -6.5q0 -2 -2 -10l-7 -40q-2 -8 -5 -11t-11 -7l-45 -21l-67 -28 l-88 -36v-539z" />
<glyph unicode="|" horiz-adv-x="504" d="M327 -325q0 -9 -2 -16t-12 -11l-65 -24l-36 -14q-12 -4 -16.5 -5t-6.5 -1q-12 0 -12 12v1868q0 18 13 22l66 25l36 13q12 4 15.5 5.5t6.5 1.5q13 0 13 -18v-1858z" />
<glyph unicode="}" horiz-adv-x="652" d="M263 1336l-88 36q-35 14 -67.5 28.5t-44.5 20.5q-8 4 -11 7t-5 11l-7 40q-2 8 -2 10q0 5 3.5 6.5t14.5 1.5q87 0 148.5 -4.5t102.5 -14.5t65.5 -26t36.5 -38t15.5 -51.5t3.5 -66.5v-539q0 -24 16.5 -47t38.5 -43t45 -35t37 -22q7 -4 14 -12t7 -20t-8 -21t-13 -12 q-15 -9 -38.5 -25.5t-45 -37.5t-37.5 -45t-16 -47v-530q0 -37 -3.5 -66.5t-15.5 -51.5t-36.5 -38t-65.5 -26t-102.5 -14.5t-148.5 -4.5q-11 0 -14.5 1.5t-3.5 6.5v3q0 2 1 6t3 14t5 27q2 8 5 11t11 7l45 20l67 28l88 37v540q0 64 25 106t56 66t59 34t34 12q-6 1 -34 11 t-59 34.5t-56 66t-25 107.5v539z" />
<glyph unicode="~" horiz-adv-x="861" d="M139 479q-7 -7 -13 -7q-10 0 -11 12l-7 38l-4 24q-2 9 -2 13.5v6.5q0 10 7 18l45 44q24 22 49.5 40.5t53.5 30t60 11.5q42 0 77.5 -19.5t65.5 -42.5l54 -42q24 -20 43 -20q13 0 34.5 8t45 20.5t46.5 27t39 27.5q6 6 13 6q12 0 14 -15q4 -24 6 -37.5t3 -21t1.5 -10.5 t0.5 -5q0 -13 -6 -20l-44 -44q-24 -22 -50 -40.5t-55 -30t-61 -11.5q-42 0 -77 19.5t-65 42.5l-53 42q-24 20 -43 20q-14 0 -36 -7.5t-46 -19.5t-47 -27t-38 -31z" />
<glyph unicode="&#xa2;" horiz-adv-x="934" d="M617 891q-11 -1 -25.5 -1t-31.5 -2q-1 -47 -1.5 -95.5t-1 -91.5t-1 -78t-0.5 -54v-25v-56v-80v-95q0 -50 -0.5 -102.5t-0.5 -102.5h4q32 0 69 8.5t71.5 20t64.5 23.5l47 18q2 1 5.5 2t6.5 1q6 -1 14.5 -7t8.5 -20q0 -6 -9 -16q-50 -59 -124 -102t-158 -56q0 -47 -0.5 -79 t-0.5 -35q0 -9 -2 -16t-12 -10l-52 -20q-20 -8 -30.5 -11.5t-14 -4t-4.5 -0.5q-12 0 -12 12q0 1 0.5 47.5t1.5 117.5q-80 12 -144.5 50.5t-109.5 98.5t-69.5 139.5t-24.5 174.5q0 104 26 189t73 149t112.5 107.5t144.5 64.5v126q0 18 13 22l53 20q19 8 29.5 11.5t14 4 t5.5 0.5q12 0 12 -18q0 -5 -1 -46t-2 -100q9 0 18 0.5t18 0.5q116 0 175 -34q22 -11 38.5 -32t16.5 -50q0 -23 -11 -45t-28 -39.5t-37.5 -28.5t-40.5 -11q-17 0 -32 4t-27 11zM436 478v60q0 40 0.5 91t0.5 109v118q-21 -10 -41.5 -24t-39.5 -33q-56 -57 -79 -132t-23 -149 q0 -48 11 -101.5t32.5 -104.5t55 -94.5t78.5 -71.5l1 -1q1 57 1.5 112.5t1 101t1 77.5t0.5 42z" />
<glyph unicode="&#xa3;" horiz-adv-x="1153" d="M418 100q31 5 72 9.5t84.5 8.5t85.5 7l77 5q34 2 56 3.5t25 1.5q10 11 23 28t25 35l24 36l18 28q8 12 13.5 15.5t13.5 3.5q9 0 47 -11q11 -4 14 -9t3 -14q0 -12 -4.5 -40.5t-12.5 -63t-18.5 -70t-23.5 -62.5q-3 -6 -8 -8.5t-10 -2.5h-819q-11 0 -14.5 2t-3.5 7q0 1 0.5 3 t1.5 8.5t3 18.5t6 32q3 15 19 19q13 4 35 10l44 12l54 14l57 389l-170 31q-13 3 -13 14q0 2 3 18l11 57q4 20 24 20h165l22 152q12 85 43.5 155t82.5 119t123 76t165 27q63 0 104.5 -12t60.5 -17q19 1 35 2q14 1 26.5 1.5t16.5 0.5q15 0 21 -6.5t7 -18.5l11 -132 q4 -50 6.5 -76.5t3 -36t0.5 -10.5q0 -10 -7 -12q-21 -5 -35 -9l-22 -6q-8 -2 -12.5 -3t-6.5 -1q-8 0 -12 4.5t-7 12.5l-92 193q-13 2 -26 2.5t-27 0.5q-41 0 -79 -5.5t-69.5 -14.5t-53.5 -19.5t-31 -20.5q-12 -15 -28 -75t-33 -176l-14 -95h389q17 0 17 -15q0 -5 -1.5 -17.5 t-6.5 -36.5q-1 -6 -5 -11t-16 -7l-61 -12q-46 -10 -105 -20l-122 -20l-111 -17z" />
<glyph unicode="&#xa7;" horiz-adv-x="958" d="M372 905q0 -1 -0.5 -4t-1.5 -10.5t-3 -20.5t-6 -34q-2 -8 -3 -11t-5 -6q-35 -30 -57.5 -70.5t-22.5 -85.5q0 -44 20 -75.5t57 -57t89 -47.5t117 -46q66 -25 122 -53t96.5 -63.5t63 -80.5t22.5 -103q0 -72 -31.5 -131.5t-84.5 -101.5t-123 -65t-147 -23q-58 0 -122.5 14 t-119 39t-90.5 58.5t-36 71.5q0 25 10 49t26.5 42.5t36.5 29.5t40 11q17 0 33 -4.5t27 -10.5l27 -170q132 0 220 11.5t125 48.5q12 12 19 38.5t7 49.5q0 36 -21 64t-56.5 52t-83 45t-100.5 42q-81 33 -140.5 66.5t-99 72.5t-59 87.5t-19.5 111.5q0 44 15 82t39 69.5t53.5 56 t59 41t55.5 25t42 8.5q10 0 10 -12zM586 488q0 1 1.5 14.5t9.5 54.5q2 8 3 11t5 6q35 30 57.5 70.5t22.5 85.5q0 43 -20 75t-57 57.5t-89.5 47.5t-116.5 46q-67 25 -122.5 53t-96 63.5t-63 80t-22.5 103.5q0 72 31.5 131.5t84.5 101.5t123 65t147 23q57 0 122 -14.5 t119.5 -39t90.5 -58t36 -71.5q0 -26 -10.5 -49.5t-26.5 -42t-36.5 -29.5t-39.5 -11q-17 0 -33 4.5t-27 10.5l-27 170q-132 0 -220 -11.5t-125 -48.5q-12 -12 -19.5 -38.5t-7.5 -49.5q0 -36 21 -64t57 -52t83.5 -45t100.5 -42q81 -33 140.5 -66.5t99 -72.5t59 -87.5 t19.5 -111.5q0 -44 -15 -82t-39 -69.5t-53.5 -56t-59 -41t-55.5 -25t-42 -8.5q-10 0 -10 12z" />
<glyph unicode="&#xa9;" horiz-adv-x="1373" d="M377 553q0 78 21.5 144t64 115t105 76.5t144.5 27.5q16 0 33 -1.5t32.5 -4t28 -5t20.5 -3.5q12 2 28.5 4.5t22.5 2.5q16 0 18 -16q6 -56 10 -90t6 -53q3 -18 3 -24v-7q0 -7 -6 -8l-42 -11q-9 -2 -13 -3q-8 0 -13 11l-35 81q-28 13 -60 17.5t-62 4.5q-35 0 -64.5 -9 t-46.5 -27q-16 -15 -25.5 -36.5t-14.5 -46.5t-6.5 -51t-1.5 -50q0 -46 13.5 -94.5t39.5 -81.5q31 -41 68.5 -57.5t70.5 -16.5q16 0 47.5 8.5t63 19t56 19.5t26.5 10q10 3 14 3q2 0 4 -0.5t4 -4.5l6 -10l11 -21q2 -4 2 -10q0 -4 -4 -8q-23 -25 -52 -47t-62.5 -38.5 t-71.5 -26.5t-78 -10q-68 0 -124.5 24.5t-96.5 68t-62 103.5t-22 132zM248 612q0 -118 30.5 -214.5t89 -165t144.5 -106t198 -37.5q84 0 159 35t132 95.5t90.5 141.5t33.5 173q0 118 -29.5 214t-87 164.5t-142 106t-193.5 37.5q-89 0 -166 -35t-134.5 -95t-90.5 -141 t-34 -173zM99 540q0 135 40 251.5t118 203t194 136t268 49.5q108 0 208 -35.5t177 -107.5t123.5 -181t46.5 -255q0 -135 -40 -251.5t-118 -202t-192.5 -134t-262.5 -48.5q-126 0 -229.5 40.5t-177.5 115t-114.5 181t-40.5 238.5z" />
<glyph unicode="&#xaa;" horiz-adv-x="971" d="M68 241q0 49 8.5 85t26.5 63.5t46.5 48t68.5 37.5q31 13 71.5 22.5t83 15.5t84 8.5t74.5 2.5q41 0 80 -3v54q0 34 -3 74.5t-13.5 79t-30.5 71.5t-54 51q-22 12 -57 18t-71 6q-18 0 -35.5 -2t-31.5 -5l-34 -182q-13 -7 -28.5 -11t-32.5 -4q-20 0 -40.5 8.5t-37.5 23.5 t-28 34.5t-11 41.5q0 33 26 57.5t58 42.5q40 22 90.5 40t99.5 30.5t90.5 19t62.5 6.5q73 0 122.5 -23t80 -63t44 -95.5t13.5 -119.5v-472q23 -42 65 -66t95 -38q11 -3 11 -12q0 -3 -1.5 -9t-6.5 -30q-2 -6 -4.5 -10t-13.5 -9q-17 -8 -43 -17t-53.5 -17t-55 -13.5t-47.5 -5.5 q-5 0 -11 2t-8 7q-13 33 -27 62q-12 25 -26 49t-26 37q-16 -24 -51 -51.5t-79.5 -51t-92 -39t-89.5 -15.5q-71 0 -120 25t-79.5 64t-44.5 86t-14 91zM356 112q13 -6 34 -6q24 0 54 5.5t60.5 14t58.5 19t48 20.5v293q-81 -6 -141 -18.5t-101.5 -27.5t-65 -30t-32.5 -25 q-12 -12 -15.5 -29.5t-3.5 -36.5q0 -26 8.5 -54t22.5 -53t33 -44.5t40 -27.5z" />
<glyph unicode="&#xab;" horiz-adv-x="669" d="M411 1287q0 14 14.5 35.5t34.5 42t41.5 35t35.5 14.5q13 0 34 -16t40.5 -37t33.5 -40.5t14 -26.5q0 -26 -7 -54t-17 -51q-29 -73 -79 -148.5t-113 -138.5q-7 -7 -17 -3l-14 7l-22 12q-7 6 -3 14l13 31l24.5 60t30 82t27.5 98q-29 19 -50 43t-21 41zM86 1287 q0 14 14.5 35.5t34.5 42t41.5 35t35.5 14.5q13 0 34 -16t40.5 -37t33.5 -40.5t14 -26.5q0 -26 -7 -54t-17 -51q-29 -73 -79 -148.5t-113 -138.5q-7 -7 -17 -3q-5 3 -13 7l-23 12q-7 6 -3 14l14 31l24 60t29.5 82t27.5 98q-29 19 -50 43t-21 41z" />
<glyph unicode="&#xad;" horiz-adv-x="874" d="M74 452q-15 0 -15 12q0 2 1 8l4 18l6 37l12 61q5 20 26 20h668q22 0 22 -15q0 -2 -0.5 -6.5t-3.5 -16.5q-2 -12 -6 -32l-9 -53q-2 -6 -8.5 -11.5t-17.5 -6.5q-31 -3 -87.5 -5.5t-124.5 -4t-141.5 -2.5t-138.5 -1.5t-115 -1t-72 -0.5z" />
<glyph unicode="&#xae;" horiz-adv-x="1204" d="M204 1097q0 -95 32 -178t90.5 -145.5t140.5 -98.5t183 -36q75 0 138.5 33.5t110.5 89t73.5 127t26.5 147.5q0 101 -33 185.5t-91.5 146t-140 95.5t-177.5 34q-77 0 -142 -35t-112 -91.5t-73 -128t-26 -145.5zM592 541q-101 0 -192.5 40t-161 110.5t-110.5 166.5t-41 207 q0 114 39.5 211t110 167.5t167.5 110.5t213 40q99 0 189.5 -40.5t160 -111.5t110.5 -168t41 -210q0 -114 -40 -210t-110.5 -165.5t-166.5 -108.5t-209 -39zM372 806q-5 0 -7 0.5t-2 5.5v2q0 2 1 6.5t3 12.5t5 22q3 10 11 14q5 2 14 5t17 6l21 6v410q-6 1 -17 4l-22 6 q-12 3 -20 6l-11 4q-5 2 -5 10q0 4 2 12t8 29q2 10 13 10h151q26 0 55 -1.5t57.5 -5.5t55 -11.5t49.5 -19.5q15 -8 28.5 -20.5t23 -28t15.5 -33t6 -35.5q0 -52 -25.5 -87.5t-89.5 -61.5l30 -51l33 -57l30 -47q12 -20 16 -26q8 -10 29 -19l39 -17q7 -4 7 -9q0 -3 -1.5 -9 t-6.5 -23q-3 -9 -11 -9h-154q-11 0 -11 9q-1 3 1 11l5 21q-4 7 -18 34l-32 61l-37 70l-32 59q-4 6 -4 13q0 6 14 12q44 18 72.5 47.5t28.5 69.5q0 28 -16 46.5t-40 30t-53 17t-54 8.5v-431q20 -5 38 -9q15 -4 28 -7t17 -5q8 -3 8 -9q0 -2 -1.5 -8t-9.5 -28q-2 -8 -5 -10 t-10 -2h-237z" />
<glyph unicode="&#xb2;" horiz-adv-x="1051" d="M278 91q21 3 52 7q32 2 70 6l78 8q41 4 80 7q92 8 197 16q5 5 17 21l26 40l30 48l29 48q4 7 7 9t8 2q4 0 14.5 -2.5t42.5 -11.5q9 -3 11.5 -6t2.5 -11q0 -17 -5 -46.5t-13.5 -63.5t-19 -69.5t-21.5 -64.5q-6 -14 -15.5 -21t-28.5 -7h-676q-17 0 -24.5 4.5t-12.5 15.5 q-14 33 -19 47t-5 20q0 11 10 21l45 46l76 74l90 90l92 94l80 82q36 37 53 58q25 28 49.5 59t44 65t31.5 71.5t12 79.5q0 52 -20.5 86t-53.5 54t-75 28t-84 8q-37 0 -70.5 -3.5t-69.5 -10.5l-69 -189q-3 -8 -7 -12.5t-13 -4.5q-11 0 -59 12q-9 2 -12 6t-4 11q-3 26 -5 59.5 t-2 61.5v31q0 14 1 23q2 18 10 29t25 20q40 21 88.5 36t95.5 24.5t89 13.5t70 4q84 0 152 -19.5t116 -57t74 -92.5t26 -127q0 -55 -26 -114.5t-70.5 -121.5t-104.5 -125t-128 -125q-68 -64 -140 -124z" />
<glyph unicode="&#xb3;" horiz-adv-x="917" d="M127 0q0 10 13 13q81 23 157.5 53t148.5 75q37 23 62.5 48.5t41 52t22 53.5t6.5 52q0 60 -26 99.5t-68 63.5t-96 35.5t-110 16.5q-17 3 -17 13q0 4 2 15.5t7 31.5q2 10 7 17t14 15l100 95l106 99l89 84l51 47q-20 -3 -60 -6.5t-89 -6.5l-102 -6q-53 -4 -98 -6l-78 -4 q-32 -2 -40 -1q-17 0 -25 3.5t-13 14.5l-16 51l-10 32.5t-5 19t-1 9.5q0 5 3 7.5t14 2.5h642q14 0 19 -3t11 -15l11 -30q6 -11 8 -18l3 -10q1 -3 1 -5q0 -6 -6 -15q-7 -9 -33 -37l-61 -67l-75 -81l-75 -78l-60 -63q-25 -26 -31 -31q61 -8 116 -29.5t96.5 -57t66 -85 t24.5 -112.5q0 -86 -32 -146t-99 -110q-69 -52 -145.5 -84.5t-145 -50.5t-120 -24t-71.5 -6q-12 0 -16 2.5t-6 9.5q-6 19 -9 34.5t-3 22.5z" />
<glyph unicode="&#xb6;" horiz-adv-x="1391" d="M583 -31q-1 103 1 213q0 47 1 100t2.5 108.5t3.5 112.5l4 113q-92 0 -158.5 12.5t-113 30t-75.5 37t-46 34.5q-51 46 -84 110.5t-33 156.5q0 103 31.5 173.5t87.5 114.5q47 36 103 56t115.5 29.5t119.5 11.5t116 2h637q11 0 14.5 -1.5t3.5 -6.5q0 -1 -0.5 -3.5t-1.5 -8.5 l-3 -18q-2 -12 -6 -33q-3 -15 -19 -19q-13 -5 -41 -13l-54 -16l-66 -20v-1223q0 -7 -2 -12.5t-10 -8.5l-74 -31q-28 -11 -44 -16.5t-23 -7t-12 -1.5q-9 0 -11.5 5.5t-2.5 14.5v49v100q0 61 0.5 139.5t0.5 165.5v178q0 91 0.5 177.5t0.5 164.5v139q0 61 -0.5 99.5t-0.5 47.5 h-182v-1202q0 -7 -2.5 -13t-9.5 -9l-70 -29q-27 -11 -43 -17t-24 -8t-13 -2q-11 0 -14 7.5t-3 16.5z" />
<glyph unicode="&#xb7;" horiz-adv-x="538" d="M247 380q-16 1 -39.5 17.5t-45 38t-37 44t-15.5 36.5q0 15 16.5 39.5t39 47.5t47 39.5t39.5 15.5q14 -1 36.5 -17.5t44 -38t37.5 -44t18 -36.5q1 -17 -15.5 -41.5t-39.5 -47t-47 -38.5t-39 -15z" />
<glyph unicode="&#xb9;" horiz-adv-x="754" d="M111 11q0 2 1.5 13t6.5 29q2 8 6 12.5t15 8.5q12 4 41.5 10.5t61.5 14.5l80 18v824h-207q-17 0 -17 12q0 1 1.5 9t11.5 41q2 8 7.5 12t10.5 6q4 2 32 9l68 18l84 22l86 20l67 16q28 6 34 7q12 0 12 -12v-983l44 -8l41 -9q20 -4 35.5 -8t23.5 -7q5 -3 9.5 -6t4.5 -10 q0 -3 -3 -15.5t-11 -39.5q-3 -9 -7.5 -12t-14.5 -3h-503q-13 0 -17 2t-4 9z" />
<glyph unicode="&#xba;" horiz-adv-x="1022" d="M568 109q43 0 85 12.5t70 40.5q14 14 24 41t16 57.5t9 62t3 54.5q0 109 -25.5 196t-70 147.5t-104.5 92.5t-129 32q-31 0 -54 -4t-40 -11.5t-29.5 -17t-23.5 -19.5q-11 -13 -20.5 -37t-16.5 -54.5t-11 -63.5t-4 -64q0 -82 19 -165t58.5 -149.5t100 -108.5t143.5 -42z M73 437q0 104 32 201t90 172t139.5 120t179.5 45q89 0 168 -27.5t138.5 -84.5t94 -144t34.5 -207q0 -106 -33.5 -203t-91.5 -171.5t-136.5 -118.5t-168.5 -44q-93 0 -174.5 27t-141.5 83.5t-95 143.5t-35 208z" />
<glyph unicode="&#xbb;" horiz-adv-x="669" d="M411 1287q0 14 14.5 35.5t34.5 42t41.5 35t35.5 14.5q13 0 34 -16t40.5 -37t33.5 -40.5t14 -26.5q0 -26 -7 -54t-17 -51q-29 -73 -79 -148.5t-113 -138.5q-7 -7 -17 -3l-14 7l-22 12q-7 6 -3 14l13 31l24.5 60t30 82t27.5 98q-29 19 -50 43t-21 41zM86 1287 q0 14 14.5 35.5t34.5 42t41.5 35t35.5 14.5q13 0 34 -16t40.5 -37t33.5 -40.5t14 -26.5q0 -26 -7 -54t-17 -51q-29 -73 -79 -148.5t-113 -138.5q-7 -7 -17 -3q-5 3 -13 7l-23 12q-7 6 -3 14l14 31l24 60t29.5 82t27.5 98q-29 19 -50 43t-21 41z" />
<glyph unicode="&#xbc;" horiz-adv-x="1262" d="M684 171q-8 0 -11 7q-11 23 -14 30.5t-3 13.5t3 10l270 415q6 9 13 9q2 0 4.5 -0.5t6.5 -0.5l119 -24q8 -1 8 -8t-6 -14l-264 -357q16 1 38 2l43 2l43 2q20 1 33 1v93q0 11 9 15l66 14l35 7q12 2 16 3t6 1q7 0 9 -5t2 -11v-109q17 0 31 1q12 0 23 1t14 0q6 0 8.5 -1.5 t2.5 -8.5q0 -1 -0.5 -4t-1 -11t-2 -22t-4.5 -38q-2 -6 -5 -9.5t-11 -3.5h-55v-177q0 -8 -1.5 -10.5t-6.5 -4.5l-66 -14q-24 -5 -37.5 -7.5t-18.5 -3t-8 -0.5q-9 0 -9 10v207h-279zM359 212q-8 -11 -18 -11q-3 0 -8 1t-16 4.5t-30.5 10.5t-52.5 20q-8 4 -8 11q0 1 1.5 4.5 t9.5 15.5l26 36l51 68l82 110l124 164l172 229l228 304q10 13 21 13q2 0 7 -1.5t17 -5.5t32.5 -12.5t55.5 -21.5q9 -4 9 -10q0 -2 -1.5 -5.5t-10.5 -15.5l-28 -38l-51 -68l-84 -110l-125 -164l-174 -227zM97 810q0 5 1.5 14.5t6.5 33.5q1 7 13 11q7 2 24 5t35 7l46 9v443 h-125q-9 0 -9 7q0 2 1 10t6 36q2 4 5 6l7 4q2 0 22 4l48 10l60 12l62 12q28 6 48.5 9t24.5 3q9 0 9 -8v-547q32 -5 63.5 -11t42.5 -10q7 -3 7 -8q0 -2 -1.5 -11.5t-9.5 -40.5q-3 -8 -14 -8h-361q-8 0 -10 2t-2 6z" />
<glyph unicode="&#xbd;" horiz-adv-x="1367" d="M364 212q-8 -11 -18 -11q-3 0 -8 1t-16 4.5t-30.5 10.5t-52.5 20q-8 4 -8 11q0 1 1.5 4.5t9.5 15.5l26 36l50 68l83 110l123 164l172 229l229 304q10 13 21 13q2 0 7 -1.5t17 -5.5t32.5 -12.5t55.5 -21.5q9 -4 9 -10q0 -2 -1.5 -5.5t-10.5 -15.5l-27 -38l-52 -68 l-84 -110l-125 -164l-173 -227zM102 810q0 5 1.5 14.5t6.5 33.5q1 7 13 11q7 2 24 5t35 7l46 9v443h-125q-9 0 -9 7q0 2 1 10t6 36q2 4 5 6l7 4q3 0 23 4l47 10l61 12l60 12q28 6 49 9t25 3q9 0 9 -8v-547q32 -5 63.5 -11t42.5 -10q7 -3 7 -8q0 -2 -1.5 -11.5t-9.5 -40.5 q-3 -8 -14 -8h-361q-8 0 -10 2t-2 6zM968 83q9 2 26 5q16 2 38 4l47 4q25 2 49 5q57 4 124 10q17 0 22 -19l18 -57q6 -19 6 -26q0 -9 -6.5 -11t-15.5 -2h-456q-15 0 -19 12q-8 20 -10.5 29t-2.5 11q0 4 1 6l2 4q7 6 23 24l38 44l48 52l48 54l40 46l27 30q35 42 53 80.5 t18 62.5q0 31 -22.5 53t-73.5 22q-41 0 -128 -22q-3 -1 -7 -2t-7 -1q-5 0 -9 8q-14 32 -19.5 45.5t-5.5 18.5q0 7 5 10q24 18 55 29t61 17t55 8.5t37 2.5q51 0 92 -12.5t70 -35.5t45 -56.5t16 -75.5q0 -45 -26.5 -93.5t-67.5 -97.5t-91 -97z" />
<glyph unicode="&#xbe;" horiz-adv-x="1298" d="M718 171q-8 0 -11 7q-11 23 -14 30.5t-3 13.5t3 10l270 415q6 9 13 9q2 0 4.5 -0.5t6.5 -0.5l119 -24q8 -1 8 -8t-6 -14l-264 -357q16 1 38 2l43 2l43 2q20 1 33 1v93q0 11 9 15l66 14l35 7q12 2 16 3t6 1q7 0 9 -5t2 -11v-109q17 0 31 1q12 0 23 1t14 0q6 0 8.5 -1.5 t2.5 -8.5q0 -1 -0.5 -4t-1 -11t-2 -22t-4.5 -38q-2 -6 -5 -9.5t-11 -3.5h-55v-177q0 -8 -1.5 -10.5t-6.5 -4.5l-66 -14q-24 -5 -37.5 -7.5t-18.5 -3t-8 -0.5q-9 0 -9 10v207h-279zM373 212q-8 -11 -18 -11q-3 0 -8 1t-16 4.5t-30.5 10.5t-52.5 20q-8 4 -8 11q0 1 1.5 4.5 t9.5 15.5l26 36l51 68l82 110l124 164l172 229l228 304q10 13 21 13q2 0 7 -1.5t17 -5.5t32.5 -12.5t55.5 -21.5q9 -4 9 -10q0 -2 -1.5 -5.5t-10.5 -15.5l-28 -38l-51 -68l-84 -110l-125 -164l-174 -227zM99 816q0 6 11 10q34 6 79.5 17t86.5 29.5t70 47.5t29 71 q0 38 -17.5 62t-43 38t-56 19.5t-55.5 5.5q-10 0 -12.5 2.5t-2.5 7.5q0 2 1 6l6 28q2 5 3.5 9.5t6.5 9.5l51 51l56 52l48 46l29 26l-79 -8l-74 -7q-34 -3 -61.5 -4.5t-44.5 -1.5q-5 0 -10.5 2t-6.5 6q-9 26 -14 42l-8 26q-3 10 -4 14t-1 6q0 7 10 7h413q8 0 12.5 -1.5 t6.5 -8.5q11 -30 13 -36.5t2 -8.5q0 -6 -3 -9l-19 -22l-33 -36l-39 -44l-39 -43l-32 -35q-14 -15 -18 -19q36 -6 67 -21t54 -39t36.5 -56.5t13.5 -74.5q0 -43 -18.5 -76.5t-50 -58.5t-73 -42t-86 -27.5t-90 -15t-85.5 -4.5q-9 0 -12 2t-5 7q-8 27 -10 36.5t-2 12.5z" />
<glyph unicode="&#xc2;" horiz-adv-x="1336" d="M702 1684l-134 -81l-71 -43q-24 -14 -30 -16.5t-7 -2.5q-4 0 -9 5l-28 27q-10 10 -14.5 15t-5.5 7.5t-1 5.5q0 5 5 10l229 223q12 12 31 12h71q8 0 16.5 -2.5t14.5 -9.5l227 -228q6 -6 6 -10q0 -2 -1 -4t-5.5 -7.5t-14.5 -14.5l-26 -24q-5 -5 -10 -5q-2 0 -8 2 q-6 3 -30 17l-72 43zM-27 8v3q0 2 1 9l5 21q3 14 8 40q3 15 19 19l139 42l437 1205q5 14 13 24t22 15l41 11q15 4 24 6t13.5 2.5t6.5 0.5q10 0 16.5 -6t12.5 -23l476 -1244l29 -6q20 -4 41 -9l39 -10q19 -4 27 -7q12 -5 12 -14q0 -1 -0.5 -4t-2.5 -11l-4 -21l-8 -37 q-3 -14 -21 -14h-481q-11 0 -14.5 1.5t-3.5 6.5q0 1 0.5 4t1.5 9.5t3 18t6 31.5q3 15 19 19l39 12l49 14l60 17l-122 321q-49 -5 -109 -7.5t-124 -4t-130 -2t-127 -0.5l-42 -120l-33 -95l-30 -87q10 -2 38 -9l59 -15l58.5 -17t34.5 -11q12 -5 12 -14q0 -1 -1.5 -12t-9.5 -46 q-3 -14 -21 -14h-460q-11 0 -14.5 1.5t-3.5 6.5zM614 1155q-6 -32 -24 -94l-44 -142l-56 -171l-60 -180h404z" />
<glyph unicode="&#xc3;" horiz-adv-x="1336" d="M410 1580q-7 -7 -13 -7q-10 0 -11 12l-7 38l-4 24q-2 9 -2 13.5v6.5q0 10 7 18l45 44q24 22 49.5 40.5t53.5 30t60 11.5q42 0 77.5 -19.5t65.5 -42.5l54 -42q24 -20 43 -20q13 0 34.5 8t45 20.5t46.5 27t39 27.5q6 6 13 6q12 0 14 -15q4 -24 6 -37.5t3 -21t1.5 -10.5 t0.5 -5q0 -13 -6 -20l-44 -44q-24 -22 -50 -40.5t-55 -30t-61 -11.5q-42 0 -77 19.5t-65 42.5l-53 42q-24 20 -43 20q-14 0 -36 -7.5t-46 -19.5t-47 -27t-38 -31zM-27 8v3q0 2 1 9l5 21q3 14 8 40q3 15 19 19l139 42l437 1205q5 14 13 24t22 15l41 11q15 4 24 6t13.5 2.5 t6.5 0.5q10 0 16.5 -6t12.5 -23l476 -1244l29 -6q20 -4 41 -9l39 -10q19 -4 27 -7q12 -5 12 -14q0 -1 -0.5 -4t-2.5 -11l-4 -21l-8 -37q-3 -14 -21 -14h-481q-11 0 -14.5 1.5t-3.5 6.5q0 1 0.5 4t1.5 9.5t3 18t6 31.5q3 15 19 19l39 12l49 14l60 17l-122 321 q-49 -5 -109 -7.5t-124 -4t-130 -2t-127 -0.5l-42 -120l-33 -95l-30 -87q10 -2 38 -9l59 -15l58.5 -17t34.5 -11q12 -5 12 -14q0 -1 -1.5 -12t-9.5 -46q-3 -14 -21 -14h-460q-11 0 -14.5 1.5t-3.5 6.5zM614 1155q-6 -32 -24 -94l-44 -142l-56 -171l-60 -180h404z" />
<glyph unicode="&#xca;" horiz-adv-x="1246" d="M1063 1684l-134 -81l-71 -43q-24 -14 -30 -16.5t-7 -2.5q-4 0 -9 5l-28 27q-10 10 -14.5 15t-5.5 7.5t-1 5.5q0 5 5 10l229 223q12 12 31 12h71q8 0 16.5 -2.5t14.5 -9.5l227 -228q6 -6 6 -10q0 -2 -1 -4t-5.5 -7.5t-14.5 -14.5l-26 -24q-5 -5 -10 -5q-2 0 -8 2 q-6 3 -30 17l-72 43zM454 99q2 1 136.5 15.5t406.5 40.5q6 5 21 26l32 47l32 50l23 39q12 22 25 22q2 0 10 -1.5t29 -6.5q11 -3 15 -9.5t4 -16.5q0 -12 -5.5 -47t-14.5 -78.5t-21.5 -88t-25.5 -75.5q-5 -10 -11 -13t-15 -3h-1010q-17 0 -17 8v2q0 2 1.5 8.5t3.5 18.5t7 34 q3 15 18 19q14 5 42 14l54 16l68 21v1107q-10 2 -36 9l-53 15l-53 16q-24 7 -31 10q-6 2 -8.5 5t-2.5 11t2 17.5t9 38.5q4 14 21 14h850q26 2 48 5q19 2 35.5 3.5t19.5 1.5q14 0 19.5 -6.5t7.5 -18.5l5 -49q3 -30 6 -64.5t7 -69.5l6 -64q3 -28 4.5 -46.5t1.5 -19.5 q0 -11 -7 -13q-39 -11 -54 -13.5t-18 -2.5q-11 0 -19 17l-89 202q-108 9 -202 19l-81 9l-80 8l-68 8q-30 3 -48 6v-555q24 4 55 7.5t63.5 6t63.5 4.5l57 3q25 2 41 2l15 1q3 10 11 33l17 47l17 47q9 21 13 29q5 11 13 11q1 0 3.5 -0.5t8.5 -2t16 -4.5l28 -8q13 -4 13 -18 l-18 -418q-1 -17 -8 -17h-3q-1 0 -7 1t-17 3.5t-31 6.5q-8 2 -11 6.5t-6 13.5q-5 14 -12 37l-13 48q-8 27 -16 59l-31 1q-32 0 -77 2t-95.5 6t-89.5 11v-560z" />
<glyph unicode="&#xce;" horiz-adv-x="720" d="M371 1684l-134 -81l-71 -43q-24 -14 -30 -16.5t-7 -2.5q-4 0 -9 5l-28 27q-10 10 -14.5 15t-5.5 7.5t-1 5.5q0 5 5 10l229 223q12 12 31 12h71q8 0 16.5 -2.5t14.5 -9.5l227 -228q6 -6 6 -10q0 -2 -1 -4t-5.5 -7.5t-14.5 -14.5l-26 -24q-5 -5 -10 -5q-2 0 -8 2 q-6 3 -30 17l-72 43zM70 8q0 1 2 12t10 52q3 15 18 19q14 5 42 13l54 16l67 20v1106q-10 2 -35.5 9l-53.5 15l-52 17q-25 8 -32 11q-12 5 -12 14q0 2 2 13t9 45q3 14 20 14h524q11 0 14.5 -1.5t3.5 -6.5q0 -2 -0.5 -4.5t-2 -9t-3.5 -18t-6 -31.5q-3 -15 -19 -19 q-14 -5 -42 -14l-55 -16l-68 -20v-1104q10 -2 36 -9l55 -15l53.5 -17t32.5 -11q12 -5 12 -14q0 -4 -2.5 -16.5t-10.5 -43.5q-4 -14 -21 -14h-523q-17 0 -17 8z" />
<glyph unicode="&#xd0;" horiz-adv-x="1131" d="M1039 918q-3 -16 -17 -16h-51l-61 10q-20 -34 -48 -88l-58 -113l-62 -117l-56 -100l58 -75l62 -81l58 -78l52 -68l39 -52q16 -22 22 -29q5 -8 5 -14.5t-7 -16.5q-25 -34 -55.5 -61.5t-54.5 -46.5q-12 -7 -19 4l-42 61l-53 75l-59 82l-60 83l-56 76l-47 62l-143 177 l-120 146l-96 114l-69 79q-12 14 -15.5 31t-3.5 40v344q-20 13 -47 22t-53 12q-8 1 -8 8q0 5 1.5 17.5t2.5 17.5q1 10 17 15l51 16l68 20q36 10 67.5 17.5t48.5 9.5q10 1 13 -11q1 -7 4 -22.5t6 -33.5t5 -35.5t2 -28.5q1 -101 2 -181q0 -34 1 -67t1.5 -59.5t1.5 -43.5t3 -18 l185 -220l180 -221q10 66 28 144t40.5 156.5t47 151.5t47.5 129q2 8 4.5 10.5t7.5 4.5l33 6q3 0 6 -8q1 -5 6 -16q4 -12 12 -26l17 -31q9 -16 19 -29h150q12 0 12 -13zM717 -572q-10 0 -24.5 10t-28 23.5t-23 28.5t-9.5 24t10 24t24 28.5t28.5 23.5t22.5 10q9 0 23.5 -10.5 t28.5 -25t24 -29t10 -22.5q0 -9 -10.5 -23.5t-24.5 -28t-28.5 -23.5t-22.5 -10zM717 -312q-10 0 -24.5 10t-28 23.5t-23 28t-9.5 24.5q0 9 10 23.5t24 28t28.5 23.5t22.5 10q9 0 23.5 -10.5t28.5 -25t24 -29t10 -22.5q0 -9 -10.5 -23.5t-24.5 -28t-28.5 -23t-22.5 -9.5z M483 -312q-10 0 -24.5 10t-28 23.5t-23 28t-9.5 24.5q0 9 10 23.5t24 28t28.5 23.5t22.5 10q9 0 23.5 -10.5t28 -25t23.5 -29t10 -22.5q0 -9 -10 -23.5t-24 -28t-28.5 -23t-22.5 -9.5zM203 -312q-10 0 -24.5 10t-28 23.5t-23.5 28t-10 24.5q0 9 10.5 23.5t24.5 28t28.5 23.5 t22.5 10q9 0 23 -10.5t28 -25t24 -29t10 -22.5q0 -9 -10 -23.5t-24 -28t-28.5 -23t-22.5 -9.5zM342 -528q-10 0 -24.5 10t-28 23.5t-23 28t-9.5 24.5q0 9 10 23.5t24 28t28.5 23.5t22.5 10q9 0 23.5 -10.5t28.5 -25t24 -29t10 -22.5q0 -9 -10.5 -23.5t-24.5 -28t-28.5 -23 t-22.5 -9.5z" />
<glyph unicode="&#xd1;" horiz-adv-x="1131" d="M1039 918q-3 -16 -17 -16h-51l-61 10q-20 -34 -48 -88l-58 -113l-62 -117l-56 -100l58 -75l62 -81l58 -78l52 -68l39 -52q16 -22 22 -29q5 -8 5 -14.5t-7 -16.5q-25 -34 -55.5 -61.5t-54.5 -46.5q-12 -7 -19 4l-42 61l-53 75l-59 82l-60 83l-56 76l-47 62l-143 177 l-120 146l-96 114l-69 79q-12 14 -15.5 31t-3.5 40v344q-20 13 -47 22t-53 12q-8 1 -8 8q0 5 1.5 17.5t2.5 17.5q1 10 17 15l51 16l68 20q36 10 67.5 17.5t48.5 9.5q10 1 13 -11q1 -7 4 -22.5t6 -33.5t5 -35.5t2 -28.5q1 -101 2 -181q0 -34 1 -67t1.5 -59.5t1.5 -43.5t3 -18 l185 -220l180 -221q10 66 28 144t40.5 156.5t47 151.5t47.5 129q2 8 4.5 10.5t7.5 4.5l33 6q3 0 6 -8q1 -5 6 -16q4 -12 12 -26l17 -31q9 -16 19 -29h150q12 0 12 -13zM597 -312q-10 0 -24.5 10t-28 23.5t-23 28t-9.5 24.5q0 9 10 23.5t24 28t28.5 23.5t22.5 10 q9 0 23.5 -10.5t28.5 -25t24 -29t10 -22.5q0 -9 -10.5 -23.5t-24.5 -28t-28.5 -23t-22.5 -9.5zM317 -312q-10 0 -24.5 10t-28 23.5t-23 28t-9.5 24.5q0 9 10 23.5t24 28t28.5 23.5t22.5 10q9 0 23.5 -10.5t28 -25t23.5 -29t10 -22.5q0 -9 -10 -23.5t-24 -28t-28.5 -23 t-22.5 -9.5zM457 -528q-11 0 -25.5 10t-28 23.5t-23 28t-9.5 24.5q0 9 10.5 23.5t24.5 28t28.5 23.5t22.5 10q9 0 23 -10.5t28 -25t24 -29t10 -22.5q0 -9 -10 -23.5t-24 -28t-28.5 -23t-22.5 -9.5z" />
<glyph unicode="&#xd2;" horiz-adv-x="1131" d="M1039 918q-3 -16 -17 -16h-51l-61 10q-20 -34 -48 -88l-58 -113l-62 -117l-56 -100l58 -75l62 -81l58 -78l52 -68l39 -52q16 -22 22 -29q5 -8 5 -14.5t-7 -16.5q-25 -34 -55.5 -61.5t-54.5 -46.5q-12 -7 -19 4l-42 61l-53 75l-59 82l-60 83l-56 76l-47 62l-143 177 l-120 146l-96 114l-69 79q-12 14 -15.5 31t-3.5 40v344q-20 13 -47 22t-53 12q-8 1 -8 8q0 5 1.5 17.5t2.5 17.5q1 10 17 15l51 16l68 20q36 10 67.5 17.5t48.5 9.5q10 1 13 -11q1 -7 4 -22.5t6 -33.5t5 -35.5t2 -28.5q1 -101 2 -181q0 -34 1 -67t1.5 -59.5t1.5 -43.5t3 -18 l185 -220l180 -221q10 66 28 144t40.5 156.5t47 151.5t47.5 129q2 8 4.5 10.5t7.5 4.5l33 6q3 0 6 -8q1 -5 6 -16q4 -12 12 -26l17 -31q9 -16 19 -29h150q12 0 12 -13zM320 -312q-10 0 -24.5 10t-28 23.5t-23 28t-9.5 24.5q0 9 10 23.5t24 28t28.5 23.5t22.5 10 q9 0 23.5 -10.5t28 -25t23.5 -29t10 -22.5q0 -9 -10 -23.5t-24 -28t-28.5 -23t-22.5 -9.5zM601 -312q-10 0 -24.5 10t-28 23.5t-23 28t-9.5 24.5q0 9 10 23.5t24 28t28.5 23.5t22.5 10q9 0 23.5 -10.5t28 -25t23.5 -29t10 -22.5q0 -9 -10 -23.5t-24 -28t-28.5 -23 t-22.5 -9.5z" />
<glyph unicode="&#xd4;" horiz-adv-x="1405" d="M743 1684l-134 -81l-71 -43q-24 -14 -30 -16.5t-7 -2.5q-4 0 -9 5l-28 27q-10 10 -14.5 15t-5.5 7.5t-1 5.5q0 5 5 10l229 223q12 12 31 12h71q8 0 16.5 -2.5t14.5 -9.5l227 -228q6 -6 6 -10q0 -2 -1 -4t-5.5 -7.5t-14.5 -14.5l-26 -24q-5 -5 -10 -5q-2 0 -8 2 q-6 3 -30 17l-72 43zM90 623q0 105 18.5 204.5t55 188t91.5 162.5t127.5 127.5t162.5 83.5t198 30q116 0 220 -45t182.5 -129.5t124.5 -206.5t46 -276q0 -160 -43.5 -304.5t-126 -254t-202 -174t-272.5 -64.5q-123 0 -229 45t-184.5 129.5t-123.5 206.5t-45 277zM414 290 q30 -38 69 -68.5t83.5 -52.5t93.5 -33.5t100 -11.5q31 0 63.5 4.5t64 15t60 28t52.5 42.5q29 32 50 82t34.5 106.5t20 113t6.5 101.5q0 112 -9.5 200.5t-41.5 165.5q-26 63 -69 114.5t-97 88t-116.5 56.5t-126.5 20q-30 0 -62.5 -4.5t-64 -15t-60.5 -26.5t-53 -39 q-31 -31 -53 -82t-36 -109t-20.5 -116.5t-6.5 -103.5q0 -63 4.5 -127.5t17 -126t36 -118.5t61.5 -104z" />
<glyph unicode="&#xd5;" horiz-adv-x="1405" d="M451 1580q-7 -7 -13 -7q-10 0 -11 12l-7 38l-4 24q-2 9 -2 13.5v6.5q0 10 7 18l45 44q24 22 49.5 40.5t53.5 30t60 11.5q42 0 77.5 -19.5t65.5 -42.5l54 -42q24 -20 43 -20q13 0 34.5 8t45 20.5t46.5 27t39 27.5q6 6 13 6q12 0 14 -15q4 -24 6 -37.5t3 -21t1.5 -10.5 t0.5 -5q0 -13 -6 -20l-44 -44q-24 -22 -50 -40.5t-55 -30t-61 -11.5q-42 0 -77 19.5t-65 42.5l-53 42q-24 20 -43 20q-14 0 -36 -7.5t-46 -19.5t-47 -27t-38 -31zM90 623q0 105 18.5 204.5t55 188t91.5 162.5t127.5 127.5t162.5 83.5t198 30q116 0 220 -45t182.5 -129.5 t124.5 -206.5t46 -276q0 -160 -43.5 -304.5t-126 -254t-202 -174t-272.5 -64.5q-123 0 -229 45t-184.5 129.5t-123.5 206.5t-45 277zM414 290q30 -38 69 -68.5t83.5 -52.5t93.5 -33.5t100 -11.5q31 0 63.5 4.5t64 15t60 28t52.5 42.5q29 32 50 82t34.5 106.5t20 113 t6.5 101.5q0 112 -9.5 200.5t-41.5 165.5q-26 63 -69 114.5t-97 88t-116.5 56.5t-126.5 20q-30 0 -62.5 -4.5t-64 -15t-60.5 -26.5t-53 -39q-31 -31 -53 -82t-36 -109t-20.5 -116.5t-6.5 -103.5q0 -63 4.5 -127.5t17 -126t36 -118.5t61.5 -104z" />
<glyph unicode="&#xd7;" horiz-adv-x="1024" d="M253 322q-12 11 -19 18t-10.5 11.5t-4.5 7t-1 5.5q0 13 15 28l188 179l-65 59l-58 56l-50 48l-38 36q-8 8 -8 17q0 3 1 6t5 8.5t12 15t23 24.5q20 20 27 25t14 5q9 0 22 -12l209 -197l208 195q5 6 10.5 8t10.5 2t12.5 -4.5t30.5 -21.5q20 -17 25.5 -22.5t5.5 -13.5 q0 -11 -10 -24q-12 -15 -33 -37l-47 -49l-58 -58l-65 -64l196 -186q10 -10 10 -20q0 -5 -4.5 -11.5t-21.5 -26.5t-24 -26.5t-15 -6.5q-14 0 -33 14q-29 22 -82 68l-116 104l-111 -108l-81 -77q-9 -9 -20 -9q-5 0 -14.5 5.5t-35.5 28.5z" />
<glyph unicode="&#xdb;" horiz-adv-x="1466" d="M741 1684l-134 -81l-71 -43q-24 -14 -30 -16.5t-7 -2.5q-4 0 -9 5l-28 27q-10 10 -14.5 15t-5.5 7.5t-1 5.5q0 5 5 10l229 223q12 12 31 12h71q8 0 16.5 -2.5t14.5 -9.5l227 -228q6 -6 6 -10q0 -2 -1 -4t-5.5 -7.5t-14.5 -14.5l-26 -24q-5 -5 -10 -5q-2 0 -8 2 q-6 3 -30 17l-72 43zM411 536q0 -94 29.5 -173.5t83 -137t126.5 -90t160 -32.5q63 0 113.5 20t86.5 57q49 48 73.5 124t24.5 173v765q-10 2 -38 10l-57 16q-30 9 -55.5 17.5t-32.5 11.5q-12 5 -12 14q0 1 1.5 11t9.5 48q3 14 20 14h456q11 0 14.5 -1.5t3.5 -6.5 q0 -1 -0.5 -3t-1.5 -8.5t-3.5 -18.5t-6.5 -33q-3 -13 -19 -19q-14 -5 -36.5 -14t-45.5 -17l-55 -21v-770q0 -111 -33.5 -204.5t-99 -160.5t-163 -104.5t-225.5 -37.5q-130 0 -226 37.5t-159.5 104t-94.5 159t-31 203.5v777q-10 2 -33 9l-48 15l-47 16q-22 8 -29 11 q-12 5 -12 14q0 2 2 13l9 46q3 14 21 14h523q11 0 14.5 -1.5t3.5 -6.5q0 -1 -0.5 -3t-1.5 -10l-5 -23q-3 -15 -9 -42q-3 -15 -19 -19q-14 -5 -43 -13l-59 -14q-34 -9 -74 -17v-699z" />
<glyph unicode="&#xe2;" horiz-adv-x="971" d="M530 1240l-134 -81l-71 -43q-24 -14 -30 -16.5t-7 -2.5q-4 0 -9 5l-28 27q-10 10 -14.5 15t-5.5 7.5t-1 5.5q0 5 5 10l229 223q12 12 31 12h71q8 0 16.5 -2.5t14.5 -9.5l227 -228q6 -6 6 -10q0 -2 -1 -4t-5.5 -7.5t-14.5 -14.5l-26 -24q-5 -5 -10 -5q-2 0 -8 2 q-6 3 -30 17l-72 43zM68 241q0 49 8.5 85t26.5 63.5t46.5 48t68.5 37.5q31 13 71.5 22.5t83 15.5t84 8.5t74.5 2.5q41 0 80 -3v54q0 34 -3 74.5t-13.5 79t-30.5 71.5t-54 51q-22 12 -57 18t-71 6q-18 0 -35.5 -2t-31.5 -5l-34 -182q-13 -7 -28.5 -11t-32.5 -4 q-20 0 -40.5 8.5t-37.5 23.5t-28 34.5t-11 41.5q0 33 26 57.5t58 42.5q40 22 90.5 40t99.5 30.5t90.5 19t62.5 6.5q73 0 122.5 -23t80 -63t44 -95.5t13.5 -119.5v-472q23 -42 65 -66t95 -38q11 -3 11 -12q0 -3 -1.5 -9t-6.5 -30q-2 -6 -4.5 -10t-13.5 -9q-17 -8 -43 -17 t-53.5 -17t-55 -13.5t-47.5 -5.5q-5 0 -11 2t-8 7q-13 33 -27 62q-12 25 -26 49t-26 37q-16 -24 -51 -51.5t-79.5 -51t-92 -39t-89.5 -15.5q-71 0 -120 25t-79.5 64t-44.5 86t-14 91zM356 112q13 -6 34 -6q24 0 54 5.5t60.5 14t58.5 19t48 20.5v293q-81 -6 -141 -18.5 t-101.5 -27.5t-65 -30t-32.5 -25q-12 -12 -15.5 -29.5t-3.5 -36.5q0 -26 8.5 -54t22.5 -53t33 -44.5t40 -27.5z" />
<glyph unicode="&#xe3;" horiz-adv-x="971" d="M238 1136q-7 -7 -13 -7q-10 0 -11 12l-7 38l-4 24q-2 9 -2 13.5v6.5q0 10 7 18l45 44q24 22 49.5 40.5t53.5 30t60 11.5q42 0 77.5 -19.5t65.5 -42.5l54 -42q24 -20 43 -20q13 0 34.5 8t45 20.5t46.5 27t39 27.5q6 6 13 6q12 0 14 -15q4 -24 6 -37.5t3 -21t1.5 -10.5 t0.5 -5q0 -13 -6 -20l-44 -44q-24 -22 -50 -40.5t-55 -30t-61 -11.5q-42 0 -77 19.5t-65 42.5l-53 42q-24 20 -43 20q-14 0 -36 -7.5t-46 -19.5t-47 -27t-38 -31zM68 241q0 49 8.5 85t26.5 63.5t46.5 48t68.5 37.5q31 13 71.5 22.5t83 15.5t84 8.5t74.5 2.5q41 0 80 -3v54 q0 34 -3 74.5t-13.5 79t-30.5 71.5t-54 51q-22 12 -57 18t-71 6q-18 0 -35.5 -2t-31.5 -5l-34 -182q-13 -7 -28.5 -11t-32.5 -4q-20 0 -40.5 8.5t-37.5 23.5t-28 34.5t-11 41.5q0 33 26 57.5t58 42.5q40 22 90.5 40t99.5 30.5t90.5 19t62.5 6.5q73 0 122.5 -23t80 -63 t44 -95.5t13.5 -119.5v-472q23 -42 65 -66t95 -38q11 -3 11 -12q0 -3 -1.5 -9t-6.5 -30q-2 -6 -4.5 -10t-13.5 -9q-17 -8 -43 -17t-53.5 -17t-55 -13.5t-47.5 -5.5q-5 0 -11 2t-8 7q-13 33 -27 62q-12 25 -26 49t-26 37q-16 -24 -51 -51.5t-79.5 -51t-92 -39t-89.5 -15.5 q-71 0 -120 25t-79.5 64t-44.5 86t-14 91zM356 112q13 -6 34 -6q24 0 54 5.5t60.5 14t58.5 19t48 20.5v293q-81 -6 -141 -18.5t-101.5 -27.5t-65 -30t-32.5 -25q-12 -12 -15.5 -29.5t-3.5 -36.5q0 -26 8.5 -54t22.5 -53t33 -44.5t40 -27.5z" />
<glyph unicode="&#xea;" horiz-adv-x="921" d="M527 1240l-134 -81l-71 -43q-24 -14 -30 -16.5t-7 -2.5q-4 0 -9 5l-28 27q-10 10 -14.5 15t-5.5 7.5t-1 5.5q0 5 5 10l229 223q12 12 31 12h71q8 0 16.5 -2.5t14.5 -9.5l227 -228q6 -6 6 -10q0 -2 -1 -4t-5.5 -7.5t-14.5 -14.5l-26 -24q-5 -5 -10 -5q-2 0 -8 2 q-6 3 -30 17l-72 43zM245 488q5 -71 28.5 -137t62.5 -118t92.5 -83t118.5 -31q47 0 91 10.5t80 22.5t60.5 22.5t32.5 10.5q6 0 10 -5q8 -12 10 -16t2 -6q0 -6 -9 -16q-19 -21 -54 -49.5t-80.5 -55t-98.5 -44.5t-108 -18q-81 0 -155.5 26t-130.5 83t-89.5 148t-33.5 221 q0 109 32.5 204.5t92 166t143 111t185.5 40.5q76 0 135 -25t99.5 -68.5t61.5 -101.5t21 -124q0 -67 -21 -134q-5 -17 -13.5 -25.5t-27.5 -8.5h-537zM328 833q-12 -12 -25.5 -35.5t-25.5 -57.5t-20.5 -78.5t-11.5 -98.5l433 34q0 64 -20 113t-54 82t-78.5 49.5t-95.5 16.5 q-12 0 -26 -0.5t-28 -3t-26.5 -7.5t-21.5 -14z" />
<glyph unicode="&#xee;" horiz-adv-x="590" d="M270 1654l-134 -81l-71 -43q-24 -14 -30 -16.5t-7 -2.5q-4 0 -9 5l-28 27q-10 10 -14.5 15t-5.5 7.5t-1 5.5q0 5 5 10l229 223q12 12 31 12h71q8 0 16.5 -2.5t14.5 -9.5l227 -228q6 -6 6 -10q0 -2 -1 -4t-5.5 -7.5t-14.5 -14.5l-26 -24q-5 -5 -10 -5q-2 0 -8 2 q-6 3 -30 17l-72 43zM55 8q0 1 0.5 3t1.5 8l3 18q2 12 6 33q3 13 19 19q14 5 36 11l43 12l51 14v646q-26 27 -66 47.5t-78 27.5q-11 2 -11 9q0 1 0.5 5.5t5.5 27.5q3 11 16 15q4 2 21 7t42 11l55 14q31 8 63 14.5t63 10.5t57 4q11 0 11 -10v-829q10 -2 32 -8l44 -12l44 -12 q21 -6 29 -9q12 -5 12 -14q0 -1 -0.5 -3t-1.5 -8t-3 -17t-6 -29q-3 -14 -21 -14h-450q-11 0 -14.5 1.5t-3.5 6.5zM380 1175q-8 -6 -24 -9q-11 -1 -24 -1h-11q-18 1 -37.5 3.5t-36 7t-29 10t-17.5 11.5q-7 9 -9 27q-2 14 -2 28v12q2 35 11 69.5t22 45.5q8 7 24 9q11 1 23 1 h13q18 -1 37 -3.5t35.5 -7t29.5 -10.5t19 -12q7 -8 9 -26q1 -12 1 -25v-13q-1 -18 -3.5 -36t-7 -34.5t-10.5 -28.5t-13 -18z" />
<glyph unicode="&#xf1;" horiz-adv-x="1200" d="M327 1136q-7 -7 -13 -7q-10 0 -11 12l-7 38l-4 24q-2 9 -2 13.5v6.5q0 10 7 18l45 44q24 22 49.5 40.5t53.5 30t60 11.5q42 0 77.5 -19.5t65.5 -42.5l54 -42q24 -20 43 -20q13 0 34.5 8t45 20.5t46.5 27t39 27.5q6 6 13 6q12 0 14 -15q4 -24 6 -37.5t3 -21t1.5 -10.5 t0.5 -5q0 -13 -6 -20l-44 -44q-24 -22 -50 -40.5t-55 -30t-61 -11.5q-42 0 -77 19.5t-65 42.5l-53 42q-24 20 -43 20q-14 0 -36 -7.5t-46 -19.5t-47 -27t-38 -31zM216 752q-12 26 -34 43.5t-45 28t-42.5 15t-27.5 6.5q-11 3 -11 9q0 1 0.5 5.5t5.5 27.5q2 6 4.5 8.5t9.5 5.5 l18 6q16 5 40 11l51 14q28 8 56 14t52.5 10t41.5 4q6 0 8 -2t4 -7l35 -157q40 34 89.5 66.5t101 57.5t102 40t92.5 15q44 0 89 -17t81 -57.5t58.5 -109t22.5 -171.5v-492q9 -2 32 -8l46 -11q25 -6 46 -12t29 -9q12 -5 12 -14l-1 -2q0 -2 -1 -8l-3 -18q-2 -11 -6 -30 q-3 -14 -21 -14h-415q-11 0 -14.5 1.5t-3.5 6.5q0 1 0.5 3.5t1.5 9t3.5 19.5t7.5 35q2 8 6.5 12t12.5 8l20 8q14 6 30 12q18 7 39 16v419q0 57 -9 100.5t-22.5 76t-30.5 54t-33 33.5q-20 13 -39 13q-21 0 -60.5 -7t-85 -17.5t-91 -23.5t-78.5 -24l2 -21q1 -9 2 -19t1 -17 v-572q10 -2 33 -8l46 -12l46 -12q21 -6 29 -9q11 -5 11 -14q0 -1 -1 -12t-9 -45q-3 -14 -21 -14h-453q-11 0 -14.5 1.5t-3.5 6.5q0 1 0.5 3t1.5 9t3.5 20t7.5 35q2 8 6.5 11.5t12.5 6.5q15 6 36 13l42 14l48 16v616z" />
<glyph unicode="&#xf4;" horiz-adv-x="1022" d="M514 1240l-134 -81l-71 -43q-24 -14 -30 -16.5t-7 -2.5q-4 0 -9 5l-28 27q-10 10 -14.5 15t-5.5 7.5t-1 5.5q0 5 5 10l229 223q12 12 31 12h71q8 0 16.5 -2.5t14.5 -9.5l227 -228q6 -6 6 -10q0 -2 -1 -4t-5.5 -7.5t-14.5 -14.5l-26 -24q-5 -5 -10 -5q-2 0 -8 2 q-6 3 -30 17l-72 43zM568 109q43 0 85 12.5t70 40.5q14 14 24 41t16 57.5t9 62t3 54.5q0 109 -25.5 196t-70 147.5t-104.5 92.5t-129 32q-31 0 -54 -4t-40 -11.5t-29.5 -17t-23.5 -19.5q-11 -13 -20.5 -37t-16.5 -54.5t-11 -63.5t-4 -64q0 -82 19 -165t58.5 -149.5 t100 -108.5t143.5 -42zM73 437q0 104 32 201t90 172t139.5 120t179.5 45q89 0 168 -27.5t138.5 -84.5t94 -144t34.5 -207q0 -106 -33.5 -203t-91.5 -171.5t-136.5 -118.5t-168.5 -44q-93 0 -174.5 27t-141.5 83.5t-95 143.5t-35 208z" />
<glyph unicode="&#xf5;" horiz-adv-x="1022" d="M222 1136q-7 -7 -13 -7q-10 0 -11 12l-7 38l-4 24q-2 9 -2 13.5v6.5q0 10 7 18l45 44q24 22 49.5 40.5t53.5 30t60 11.5q42 0 77.5 -19.5t65.5 -42.5l54 -42q24 -20 43 -20q13 0 34.5 8t45 20.5t46.5 27t39 27.5q6 6 13 6q12 0 14 -15q4 -24 6 -37.5t3 -21t1.5 -10.5 t0.5 -5q0 -13 -6 -20l-44 -44q-24 -22 -50 -40.5t-55 -30t-61 -11.5q-42 0 -77 19.5t-65 42.5l-53 42q-24 20 -43 20q-14 0 -36 -7.5t-46 -19.5t-47 -27t-38 -31zM568 109q43 0 85 12.5t70 40.5q14 14 24 41t16 57.5t9 62t3 54.5q0 109 -25.5 196t-70 147.5t-104.5 92.5 t-129 32q-31 0 -54 -4t-40 -11.5t-29.5 -17t-23.5 -19.5q-11 -13 -20.5 -37t-16.5 -54.5t-11 -63.5t-4 -64q0 -82 19 -165t58.5 -149.5t100 -108.5t143.5 -42zM73 437q0 104 32 201t90 172t139.5 120t179.5 45q89 0 168 -27.5t138.5 -84.5t94 -144t34.5 -207 q0 -106 -33.5 -203t-91.5 -171.5t-136.5 -118.5t-168.5 -44q-93 0 -174.5 27t-141.5 83.5t-95 143.5t-35 208z" />
<glyph unicode="&#xf7;" horiz-adv-x="1024" d="M168 506q-21 0 -21 21q0 1 1 5q0 4 1 12l3 24q2 16 6 44q4 32 37 32h657q29 0 29 -23v-3q0 -2 -1.5 -9t-3.5 -20l-7 -35q-2 -10 -11 -21t-27 -13q-27 -3 -78 -5t-114 -4t-132.5 -2.5t-134 -1.5t-118.5 -1h-86zM427 205q-6 7 -8.5 22.5t-0.5 34.5q1 15 3 30.5t5.5 29.5 t9 24.5t11.5 14.5q6 5 19.5 6.5t31.5 0.5q15 0 31.5 -2.5t30.5 -6t25.5 -8.5t15.5 -10q6 -8 7.5 -22.5t0.5 -32.5q-1 -15 -3 -30.5t-5.5 -29.5t-9 -25t-11.5 -17q-6 -4 -19.5 -6t-31.5 -1q-15 1 -31 3.5t-30 6t-25.5 8t-15.5 10.5zM426 807q-6 7 -8 23t-1 35q1 15 3.5 30.5 t6 29t8.5 24t11 15.5t19.5 6.5t31.5 0.5q15 -1 31.5 -3t30.5 -5.5t25.5 -8.5t16.5 -10q5 -8 6.5 -23t0.5 -33q0 -15 -3 -30.5t-6 -29.5t-8 -25t-11 -17q-7 -4 -20.5 -6t-31.5 -1q-15 1 -31 3.5t-30 6t-25.5 8t-15.5 10.5z" />
<glyph unicode="&#xfa;" horiz-adv-x="979" d="M881 1052q10 0 13 -3t4 -11q1 -5 3 -17.5t3 -26.5l2 -28q1 -14 1 -20q0 -12 -8 -28l-443 -925q-8 -15 -25 -11q-27 6 -48.5 11.5t-40.5 9.5l-36 8q-18 4 -36 7q-8 3 -10.5 8.5t-1.5 10.5l132 269l124 245l109 207q51 94 90 159q-29 -5 -76.5 -7.5t-120 -4.5t-175.5 -2.5 t-243 -0.5q-16 -2 -16 17v278q-20 11 -49 19t-52 12q-9 1 -7 11l4 36q1 8 12 12q4 2 28 9l60 16l73 20l73 18q15 4 19 -9q6 -25 10 -46q4 -19 7 -37t3 -29v-177h618z" />
<glyph unicode="&#xfb;" horiz-adv-x="1159" d="M493 1240l-134 -81l-71 -43q-24 -14 -30 -16.5t-7 -2.5q-4 0 -9 5l-28 27q-10 10 -14.5 15t-5.5 7.5t-1 5.5q0 5 5 10l229 223q12 12 31 12h71q8 0 16.5 -2.5t14.5 -9.5l227 -228q6 -6 6 -10q0 -2 -1 -4t-5.5 -7.5t-14.5 -14.5l-26 -24q-5 -5 -10 -5q-2 0 -8 2 q-6 3 -30 17l-72 43zM180 782q-13 15 -31.5 28t-39 23t-41 16.5t-35.5 8.5q-10 1 -10 9q0 1 0.5 3t2 9t4 20.5t7.5 36.5q3 14 21 14h270q31 0 31 -31v-515q0 -58 9 -103t23 -78t31 -54.5t34 -33.5q12 -9 25.5 -12.5t27.5 -3.5q30 0 66.5 4t73 11.5t71 17.5t61.5 22v626 l-170 55q-12 4 -12 13q0 3 3 16l11 52q3 14 19 14h296q31 0 31 -31v-720q12 -26 35.5 -44t48.5 -30t46 -18.5t29 -8.5q11 -3 11 -13q0 -2 -1.5 -9t-6.5 -33q-2 -10 -16 -15q-6 -2 -29 -10.5t-53 -18t-62.5 -17t-56.5 -7.5q-14 0 -18 9q-12 32 -26 62q-12 25 -27 50.5 t-29 39.5q-29 -32 -70.5 -61t-89.5 -51t-99.5 -35.5t-102.5 -13.5q-49 0 -96 17t-84 58.5t-59.5 110t-22.5 171.5v450z" />
<glyph unicode="&#x152;" horiz-adv-x="2651" d="M1859 99q2 1 136.5 15.5t406.5 40.5q6 5 21 26l32 47l32 50l23 39q12 22 25 22q2 0 10 -1.5t29 -6.5q11 -3 15 -9.5t4 -16.5q0 -12 -5.5 -47t-14.5 -78.5t-21.5 -88t-25.5 -75.5q-5 -10 -11 -13t-15 -3h-1010q-17 0 -17 8v2q0 2 1.5 8.5t3.5 18.5t7 34q3 15 18 19 q14 5 42 14l54 16l68 21v1107q-10 2 -36 9l-53 15l-53 16q-24 7 -31 10q-6 2 -8.5 5t-2.5 11t2 17.5t9 38.5q4 14 21 14h850q26 2 48 5q19 2 35.5 3.5t19.5 1.5q14 0 19.5 -6.5t7.5 -18.5l5 -49q3 -30 6 -64.5t7 -69.5l6 -64q3 -28 4.5 -46.5t1.5 -19.5q0 -11 -7 -13 q-39 -11 -54 -13.5t-18 -2.5q-11 0 -19 17l-89 202q-108 9 -202 19l-81 9l-80 8l-68 8q-30 3 -48 6v-555q24 4 55 7.5t63.5 6t63.5 4.5l57 3q25 2 41 2l15 1q3 10 11 33l17 47l17 47q9 21 13 29q5 11 13 11q1 0 3.5 -0.5t8.5 -2t16 -4.5l28 -8q13 -4 13 -18l-18 -418 q-1 -17 -8 -17h-3q-1 0 -7 1t-17 3.5t-31 6.5q-8 2 -11 6.5t-6 13.5q-5 14 -12 37l-13 48q-8 27 -16 59l-31 1q-32 0 -77 2t-95.5 6t-89.5 11v-560zM90 623q0 105 18.5 204.5t55 188t91.5 162.5t127.5 127.5t162.5 83.5t198 30q116 0 220 -45t182.5 -129.5t124.5 -206.5 t46 -276q0 -160 -43.5 -304.5t-126 -254t-202 -174t-272.5 -64.5q-123 0 -229 45t-184.5 129.5t-123.5 206.5t-45 277zM414 290q30 -38 69 -68.5t83.5 -52.5t93.5 -33.5t100 -11.5q31 0 63.5 4.5t64 15t60 28t52.5 42.5q29 32 50 82t34.5 106.5t20 113t6.5 101.5 q0 112 -9.5 200.5t-41.5 165.5q-26 63 -69 114.5t-97 88t-116.5 56.5t-126.5 20q-30 0 -62.5 -4.5t-64 -15t-60.5 -26.5t-53 -39q-31 -31 -53 -82t-36 -109t-20.5 -116.5t-6.5 -103.5q0 -63 4.5 -127.5t17 -126t36 -118.5t61.5 -104z" />
<glyph unicode="&#x153;" horiz-adv-x="1943" d="M1267 488q5 -71 28.5 -137t62.5 -118t92.5 -83t118.5 -31q47 0 91 10.5t80 22.5t60.5 22.5t32.5 10.5q6 0 10 -5q8 -12 10 -16t2 -6q0 -6 -9 -16q-19 -21 -54 -49.5t-80.5 -55t-98.5 -44.5t-108 -18q-81 0 -155.5 26t-130.5 83t-89.5 148t-33.5 221q0 109 32.5 204.5 t92 166t143 111t185.5 40.5q76 0 135 -25t99.5 -68.5t61.5 -101.5t21 -124q0 -67 -21 -134q-5 -17 -13.5 -25.5t-27.5 -8.5h-537zM1350 833q-12 -12 -25.5 -35.5t-25.5 -57.5t-20.5 -78.5t-11.5 -98.5l433 34q0 64 -20 113t-54 82t-78.5 49.5t-95.5 16.5q-12 0 -26 -0.5 t-28 -3t-26.5 -7.5t-21.5 -14zM568 109q43 0 85 12.5t70 40.5q14 14 24 41t16 57.5t9 62t3 54.5q0 109 -25.5 196t-70 147.5t-104.5 92.5t-129 32q-31 0 -54 -4t-40 -11.5t-29.5 -17t-23.5 -19.5q-11 -13 -20.5 -37t-16.5 -54.5t-11 -63.5t-4 -64q0 -82 19 -165t58.5 -149.5 t100 -108.5t143.5 -42zM73 437q0 104 32 201t90 172t139.5 120t179.5 45q89 0 168 -27.5t138.5 -84.5t94 -144t34.5 -207q0 -106 -33.5 -203t-91.5 -171.5t-136.5 -118.5t-168.5 -44q-93 0 -174.5 27t-141.5 83.5t-95 143.5t-35 208z" />
<glyph unicode="&#x192;" horiz-adv-x="992" d="M847 1299q-38 12 -80.5 21t-80.5 9q-36 0 -61 -9q-11 -19 -21.5 -48t-20 -63.5t-17.5 -70.5l-16 -72l-14 -65l-10 -51h298q13 0 13 -7q-1 -2 -5 -14l-18 -48q-2 -8 -5.5 -10.5t-11.5 -5.5q-10 -4 -40 -10.5t-71.5 -14.5t-88.5 -15.5t-92 -12.5l-106 -734 q-14 -100 -46.5 -180t-79 -147.5t-105.5 -127t-128 -117.5q-8 -6 -17 -6q-7 0 -12.5 3.5t-7.5 9.5l-16 67l-9 39q-4 14 -5 19.5t-1 8.5q0 11 14 25l112 102q40 37 60 58t25 33.5t8 27.5l163 912l-156 1q-8 0 -8 7q0 1 1 5l3 12l8 24q4 15 12 39q2 8 7.5 11.5t13.5 6.5 l126 39q11 102 41.5 194.5t82 163t126.5 112t174 41.5q17 0 42 -2t51 -5.5t49 -8.5t35 -10t14.5 -14t2.5 -29q0 -36 -12 -97.5t-45 -140.5q-4 -7 -9 -7t-15.5 2t-24.5 5q-7 2 -7 11l-9 69q-5 38 -10 65z" />
<glyph unicode="&#x2c6;" horiz-adv-x="792" d="M397 1107l-134 -81l-71 -43q-24 -14 -30 -16.5t-7 -2.5q-4 0 -9 5l-28 27q-10 10 -14.5 15t-5.5 7.5t-1 5.5q0 5 5 10l229 223q12 12 31 12h71q8 0 16.5 -2.5t14.5 -9.5l227 -228q6 -6 6 -10q0 -2 -1 -4t-5.5 -7.5t-14.5 -14.5l-26 -24q-5 -5 -10 -5q-2 0 -8 2 q-6 3 -30 17l-72 43z" />
<glyph unicode="&#x2dc;" horiz-adv-x="469" d="M-292 161q-7 -7 -13 -7q-10 0 -11 12l-7 38l-4 24q-2 9 -2 13.5v6.5q0 10 7 18l45 44q24 22 49.5 40.5t53.5 30t60 11.5q42 0 77.5 -19.5t65.5 -42.5l54 -42q24 -20 43 -20q13 0 34.5 8t45 20.5t46.5 27t39 27.5q6 6 13 6q12 0 14 -15q4 -24 6 -37.5t3 -21t1.5 -10.5 t0.5 -5q0 -13 -6 -20l-44 -44q-24 -22 -50 -40.5t-55 -30t-61 -11.5q-42 0 -77 19.5t-65 42.5l-53 42q-24 20 -43 20q-14 0 -36 -7.5t-46 -19.5t-47 -27t-38 -31z" />
<glyph unicode="&#x591;" d="M94 -602v12q0 6 2 23v43q0 147 -86 147q-104 0 -104 -135v-47q2 -15 2 -25v-18h-76v131q0 130 131 164v125h74v-125q133 -35 133 -164v-131h-76z" />
<glyph unicode="&#x592;" d="M76 1632q0 -32 -22 -54t-54 -22t-54 22t-22 54q0 31 22.5 53.5t53.5 22.5q32 0 54 -22t22 -54zM186 1444q0 -31 -20.5 -52.5t-52.5 -21.5q-31 0 -53.5 21.5t-22.5 52.5q0 32 22 53t54 21t52.5 -21t20.5 -53zM-37 1444q0 -31 -22 -52.5t-54 -21.5t-52.5 21t-20.5 53 t20.5 53t52.5 21t54 -21t22 -53z" />
<glyph unicode="&#x593;" d="M-37 1751l158 -72l-158 -75l158 -72l-158 -76l158 -74h-84l-156 74l156 76l-156 72l156 75l-156 72l156 76h84z" />
<glyph unicode="&#x594;" d="M76 1677q0 -32 -22 -52.5t-54 -20.5t-54 20.5t-22 52.5q0 31 22.5 53.5t53.5 22.5q32 0 54 -22t22 -54zM76 1452q0 -31 -22 -52.5t-54 -21.5t-54 21t-22 53t22 53t54 21t54 -21t22 -53z" />
<glyph unicode="&#x595;" d="M186 1677q0 -32 -20.5 -52.5t-52.5 -20.5q-31 0 -53.5 21t-22.5 52t22.5 53.5t53.5 22.5t52 -22.5t21 -53.5zM186 1452q0 -31 -20.5 -52.5t-52.5 -21.5q-31 0 -53.5 21.5t-22.5 52.5q0 32 22 53t54 21q31 0 52 -21.5t21 -52.5zM-113 1378v375h76v-375h-76z" />
<glyph unicode="&#x596;" d="M254 -522q-295 0 -295 303q0 6 1 15t3 20h76q-2 -11 -3 -25t-1 -37q0 -48 15.5 -85.5t47.5 -63.5q55 -49 156 -49v-78z" />
<glyph unicode="&#x597;" d="M2 1380l-123 154l123 156l119 -156z" />
<glyph unicode="&#x598;" d="M258 1530q0 -28 -10.5 -52t-28 -41.5t-41.5 -27.5t-51 -10q-65 0 -109 53l-34 50l-33 50q-40 52 -80 52q-32 0 -53 -21t-21 -53q0 -53 53 -72l-20 -55q-88 40 -88 127q0 27 10 51t27.5 41.5t41 28t50.5 10.5q64 0 109 -53l36 -51q18 -25 41 -54q28 -49 70 -49q32 0 53 22 t21 54q0 47 -54 69l21 56q90 -44 90 -125z" />
<glyph unicode="&#x599;" d="M-14 1780q34 -40 61 -83.5t36 -96t-5 -116t-62 -143.5l-49 27q21 40 31.5 83t4.5 85.5t-31 84.5t-76 81z" />
<glyph unicode="&#x59a;" d="M172 -510h-121l-201 205l199 194h123l-199 -194z" />
<glyph unicode="&#x59b;" d="M63 -266q0 -64 -65 -64q-26 0 -45 19t-19 45q0 29 19 48t45 19q65 0 65 -67zM229 -254q0 -134 -86 -207q-68 -59 -209 -59v78q222 0 222 204l-6 56h75q2 -11 3 -28.5t1 -43.5z" />
<glyph unicode="&#x59c;" d="M96 1718q-110 -80 -110 -172q0 -84 75 -166h-96q-61 77 -61 164q0 125 137 225z" />
<glyph unicode="&#x59d;" d="M96 1718q-110 -80 -110 -172q0 -84 75 -166h-96q-61 77 -61 164q0 125 137 225z" />
<glyph unicode="&#x59e;" d="M-4 1718q-111 -83 -111 -172q0 -80 78 -166h-98q-31 39 -46.5 79t-15.5 85q0 62 34 118t104 107zM219 1718q-110 -79 -110 -172q0 -84 75 -166h-94q-63 76 -63 164q0 124 139 225z" />
<glyph unicode="&#x59f;" d="M-76 1380l-123 123q-45 -39 -110 -39q-41 0 -75.5 14t-59 39t-38.5 60.5t-14 77.5q0 40 14 74t39 59.5t59.5 40t74.5 14.5t74.5 -14.5t60 -40t39.5 -59.5t14 -74q0 -62 -37 -111l123 -123zM-184 1655q0 25 -9.5 47t-26.5 38.5t-39.5 26t-49.5 9.5q-26 0 -48 -9.5t-39 -26 t-26.5 -38.5t-9.5 -47q0 -27 9.5 -49.5t26.5 -39t39 -25.5t48 -9q27 0 49.5 9t39.5 25.5t26.5 39t9.5 49.5zM496 1655q0 -41 -14 -76t-39 -60.5t-59.5 -40t-74.5 -14.5q-71 0 -110 39l-123 -123l-41 41l123 123q-39 39 -39 111q0 40 14.5 74t40 59.5t60 40t75.5 14.5 q37 0 71 -15.5t59.5 -41t41 -60t15.5 -71.5zM428 1655q0 24 -9.5 45.5t-26 38.5t-38 27t-45.5 10q-54 0 -89.5 -33.5t-35.5 -87.5q0 -27 9.5 -49.5t26.5 -39t39.5 -25.5t49.5 -9q25 0 47 9t38 25.5t25 39t9 49.5z" />
<glyph unicode="&#x5a0;" d="M406 1655q0 -41 -14 -76t-39 -60.5t-59.5 -40t-74.5 -14.5q-71 0 -110 39l-123 -123l-41 41l123 123q-37 43 -37 111q0 40 14.5 74t40 59.5t59.5 40t74 14.5q39 0 73.5 -15.5t59.5 -41t39.5 -60t14.5 -71.5zM338 1655q0 24 -9.5 45.5t-26 38.5t-38 27t-45.5 10 q-27 0 -49.5 -9t-39 -25t-25.5 -38t-9 -49q0 -54 34.5 -88.5t88.5 -34.5t86.5 34.5t32.5 88.5z" />
<glyph unicode="&#x5a1;" d="M223 1655q0 -70 -35 -111q-36 -55 -98 -55q-15 0 -29 2.5t-26 7.5v-119h-74v357h74v-172q0 -11 39 -11q76 0 76 111v37q-2 17 -2.5 23.5t-0.5 11.5h76v-82z" />
<glyph unicode="&#x5a3;" d="M-184 -539v76h153v281h76v-357h-229z" />
<glyph unicode="&#x5a4;" d="M-18 -530l-175 178l173 170h108l-174 -170l174 -178h-106z" />
<glyph unicode="&#x5a5;" d="M49 -283q0 -235 -297 -235v76q217 0 217 202l-4 58h78q6 -90 6 -101z" />
<glyph unicode="&#x5a6;" d="M199 -346q0 -120 -138 -225l-55 51q111 82 111 170q0 37 -20 78.5t-58 89.5h98q62 -77 62 -164zM-27 -346q0 -121 -139 -225l-55 51q110 79 110 170q0 38 -18.5 80.5t-56.5 87.5h96q63 -82 63 -164z" />
<glyph unicode="&#x5a7;" d="M61 -549l-186 -33v76l137 23l-137 219l64 53l186 33v-74l-139 -24l139 -220z" />
<glyph unicode="&#x5a8;" d="M-45 1766q37 -38 62.5 -83.5t33.5 -97.5t-4 -111.5t-49 -127.5q-5 -9 -17 -8.5t-23.5 6t-18.5 14.5t-2 18q21 45 36.5 84.5t16 79t-18.5 81.5t-67 93q-6 6 -1 17.5t15 21t21 14.5t16 -1z" />
<glyph unicode="&#x5a9;" d="M10 1380l-121 123q-45 -39 -110 -39q-41 0 -75.5 14t-59 39t-38.5 60.5t-14 77.5q0 40 14 74t39 59.5t59.5 40t74.5 14.5t74 -14.5t59 -40t39 -59.5t14 -74q0 -58 -35 -111l123 -123zM-98 1655q0 25 -9 47t-25.5 38.5t-39 26t-49.5 9.5t-49.5 -9.5t-39 -26t-25.5 -38.5 t-9 -47q0 -54 34.5 -88.5t88.5 -34.5q27 0 49.5 9t39 25.5t25.5 39t9 49.5z" />
<glyph unicode="&#x5aa;" d="M170 -311q0 -133 -133 -166v-123h-74v123q-60 17 -95.5 61.5t-35.5 104.5v129h76v-16t-1.5 -22t-2 -24t-0.5 -20q0 -142 88 -142q106 0 106 134q0 8 -0.5 20t-1.5 24.5t-1.5 24.5t-0.5 21h76v-129z" />
<glyph unicode="&#x5ab;" d="M35 1382l-174 179l174 168h106l-174 -168l174 -179h-106z" />
<glyph unicode="&#x5ac;" d="M-195 1382v74h156v281h74v-355h-230z" />
<glyph unicode="&#x5ad;" d="M254 -520q-295 0 -295 303q0 6 1 15t3 20h76q-2 -11 -3 -25t-1 -37q0 -48 15.5 -85.5t47.5 -63.5q55 -49 156 -49v-78z" />
<glyph unicode="&#x5ae;" d="M258 1530q0 -28 -10.5 -52t-28 -41.5t-41.5 -27.5t-51 -10q-65 0 -109 53l-34 50l-33 50q-40 52 -80 52q-32 0 -53 -21t-21 -53q0 -53 53 -72l-20 -55q-88 40 -88 127q0 27 10 51t27.5 41.5t41 28t50.5 10.5q64 0 109 -53l36 -51q18 -25 41 -54q28 -49 70 -49q32 0 53 22 t21 54q0 47 -54 69l21 56q90 -44 90 -125z" />
<glyph unicode="&#x5af;" d="M215 1614q0 -46 -16.5 -85.5t-45.5 -68t-68.5 -45t-84.5 -16.5q-89 0 -152 63q-61 61 -61 152q0 46 16 85.5t44.5 68t67.5 45t85 16.5t85.5 -16.5t68 -45t45 -68t16.5 -85.5zM158 1614q0 33 -12.5 62.5t-33.5 52t-50 36t-62 13.5t-61.5 -13.5t-49.5 -36t-33 -52 t-12 -62.5t12 -63t33 -52.5t49.5 -35.5t61.5 -13t62 13t50 35.5t33.5 52.5t12.5 63z" />
<glyph unicode="&#x5b0;" d="M0 -572q-10 0 -24.5 10t-28 23.5t-23 28.5t-9.5 24t10 24t24 28.5t28.5 23.5t22.5 10q9 0 23.5 -10.5t28 -25t23.5 -29t10 -22.5q0 -9 -10 -23.5t-24 -28t-28.5 -23.5t-22.5 -10zM0 -312q-10 0 -24.5 10t-28 23.5t-23 28t-9.5 24.5q0 9 10 23.5t24 28t28.5 23.5t22.5 10 q9 0 23.5 -10.5t28 -25t23.5 -29t10 -22.5q0 -9 -10 -23.5t-24 -28t-28.5 -23t-22.5 -9.5z" />
<glyph unicode="&#x5b1;" d="M258 -572q-10 0 -24.5 10t-28 23.5t-23 28.5t-9.5 24t10 24t24 28.5t28.5 23.5t22.5 10q9 0 23.5 -10.5t28.5 -25t24 -29t10 -22.5q0 -9 -10.5 -23.5t-24.5 -28t-28.5 -23.5t-22.5 -10zM258 -312q-10 0 -24.5 10t-28 23.5t-23 28t-9.5 24.5q0 9 10 23.5t24 28t28.5 23.5 t22.5 10q9 0 23.5 -10.5t28.5 -25t24 -29t10 -22.5q0 -9 -10.5 -23.5t-24.5 -28t-28.5 -23t-22.5 -9.5zM24 -312q-10 0 -24.5 10t-28 23.5t-23 28t-9.5 24.5q0 9 10 23.5t24 28t28.5 23.5t22.5 10q9 0 23.5 -10.5t28 -25t23.5 -29t10 -22.5q0 -9 -10 -23.5t-24 -28 t-28.5 -23t-22.5 -9.5zM-256 -312q-10 0 -24.5 10t-28 23.5t-23.5 28t-10 24.5q0 9 10.5 23.5t24.5 28t28.5 23.5t22.5 10q9 0 23 -10.5t28 -25t24 -29t10 -22.5q0 -9 -10 -23.5t-24 -28t-28.5 -23t-22.5 -9.5zM-117 -528q-10 0 -24.5 10t-28 23.5t-23 28t-9.5 24.5 q0 9 10 23.5t24 28t28.5 23.5t22.5 10q9 0 23.5 -10.5t28.5 -25t24 -29t10 -22.5q0 -9 -10.5 -23.5t-24.5 -28t-28.5 -23t-22.5 -9.5z" />
<glyph unicode="&#x5b2;" d="M24 -260q-78 -4 -144 -7l-56 -2q-28 -1 -52.5 -2t-43 -1.5t-27.5 -0.5q-10 0 -14.5 5.5t-2.5 13.5l18 66q5 14 10.5 17.5t17.5 4.5h313q14 0 20 -6t1 -23l-13 -46q-3 -10 -8.5 -14t-18.5 -5zM240 -572q-10 0 -24.5 10t-28 23.5t-23 28.5t-9.5 24t10 24t24 28.5t28.5 23.5 t22.5 10q9 0 23.5 -10.5t28.5 -25t24 -29t10 -22.5q0 -9 -10.5 -23.5t-24.5 -28t-28.5 -23.5t-22.5 -10zM240 -312q-10 0 -24.5 10t-28 23.5t-23 28t-9.5 24.5q0 9 10 23.5t24 28t28.5 23.5t22.5 10q9 0 23.5 -10.5t28.5 -25t24 -29t10 -22.5q0 -9 -10.5 -23.5t-24.5 -28 t-28.5 -23t-22.5 -9.5z" />
<glyph unicode="&#x5b3;" d="M60 -258l-72 -4l-70 -4l18 -93q2 -17 6 -35l7 -33q3 -15 4.5 -25t1.5 -13q0 -8 -9 -19t-21 -21t-24.5 -17.5t-19.5 -7.5q-8 0 -20.5 7t-25 17t-21.5 20.5t-9 16.5q0 4 4 27q4 24 10 54l12 62q6 32 9 58q-43 -2 -82 -3t-74 -1q-17 0 -17 10q0 2 0.5 6t3 12t6.5 22l11 39 q3 11 8 13.5t14 1.5h370q14 0 14 -7q0 -8 -4.5 -25t-13.5 -47q-2 -7 -6.5 -8.5t-9.5 -2.5zM255 -572q-10 0 -24.5 10t-28 23.5t-23 28.5t-9.5 24t10 24t24 28.5t28.5 23.5t22.5 10q9 0 23.5 -10.5t28 -25t23.5 -29t10 -22.5q0 -9 -10 -23.5t-24 -28t-28.5 -23.5t-22.5 -10z M255 -312q-10 0 -24.5 10t-28 23.5t-23 28t-9.5 24.5q0 9 10 23.5t24 28t28.5 23.5t22.5 10q9 0 23.5 -10.5t28 -25t23.5 -29t10 -22.5q0 -9 -10 -23.5t-24 -28t-28.5 -23t-22.5 -9.5z" />
<glyph unicode="&#x5b4;" d="M0 -312q-10 0 -24.5 10t-28 23.5t-23 28t-9.5 24.5q0 9 10 23.5t24 28t28.5 23.5t22.5 10q9 0 23.5 -10.5t28 -25t23.5 -29t10 -22.5q0 -9 -10 -23.5t-24 -28t-28.5 -23t-22.5 -9.5z" />
<glyph unicode="&#x5b5;" d="M-140 -312q-10 0 -24.5 10t-28 23.5t-23 28t-9.5 24.5q0 9 10 23.5t24 28t28.5 23.5t22.5 10q9 0 23.5 -10.5t28 -25t23.5 -29t10 -22.5q0 -9 -10 -23.5t-24 -28t-28.5 -23t-22.5 -9.5zM141 -312q-10 0 -24.5 10t-28 23.5t-23 28t-9.5 24.5q0 9 10 23.5t24 28t28.5 23.5 t22.5 10q9 0 23.5 -10.5t28 -25t23.5 -29t10 -22.5q0 -9 -10 -23.5t-24 -28t-28.5 -23t-22.5 -9.5z" />
<glyph unicode="&#x5b6;" d="M140 -312q-10 0 -24.5 10t-28 23.5t-23 28t-9.5 24.5q0 9 10 23.5t24 28t28.5 23.5t22.5 10q9 0 23.5 -10.5t28.5 -25t24 -29t10 -22.5q0 -9 -10.5 -23.5t-24.5 -28t-28.5 -23t-22.5 -9.5zM-140 -312q-10 0 -24.5 10t-28 23.5t-23 28t-9.5 24.5q0 9 10 23.5t24 28 t28.5 23.5t22.5 10q9 0 23.5 -10.5t28 -25t23.5 -29t10 -22.5q0 -9 -10 -23.5t-24 -28t-28.5 -23t-22.5 -9.5zM0 -528q-11 0 -25.5 10t-28 23.5t-23 28t-9.5 24.5q0 9 10.5 23.5t24.5 28t28.5 23.5t22.5 10q9 0 23 -10.5t28 -25t24 -29t10 -22.5q0 -9 -10 -23.5t-24 -28 t-28.5 -23t-22.5 -9.5z" />
<glyph unicode="&#x5b7;" d="M155 -260q-81 -4 -150 -7l-59 -2q-30 -1 -54.5 -2t-43.5 -1.5t-28 -0.5t-14 5.5t-3 13.5l18 66q5 14 10.5 17.5t17.5 4.5h325q14 0 20 -6t1 -23l-13 -46q-3 -10 -8.5 -14t-18.5 -5z" />
<glyph unicode="&#x5b8;" d="M38 -266l18 -93q3 -18 6.5 -35.5t6 -32.5t4.5 -25t2 -13q0 -8 -9 -19t-21 -21t-24.5 -17.5t-19.5 -7.5q-8 0 -20.5 7t-25 17t-21.5 20.5t-9 16.5q1 4 5 27l10 54l11 62q6 32 9 58q-43 -2 -82 -3t-74 -1q-17 0 -17 10q0 2 1 6q0 4 2 12l7 22l11 39q3 11 8 13.5t14 1.5h370 q14 0 14 -7q0 -8 -4.5 -25t-13.5 -47q-2 -7 -6.5 -8.5t-9.5 -2.5z" />
<glyph unicode="&#x5b9;" d="M0 1166q-10 0 -24.5 10t-28 23.5t-23 28.5t-9.5 24t10 24t24 28.5t28.5 23.5t22.5 10q9 0 23.5 -10.5t28 -25t23.5 -29t10 -22.5q0 -9 -10 -23.5t-24 -28t-28.5 -23.5t-22.5 -10z" />
<glyph unicode="&#x5bb;" d="M0 -312q-10 0 -24.5 10t-28 23.5t-23 28t-9.5 24.5q0 9 10 23.5t24 28t28.5 23.5t22.5 10q9 0 23.5 -10.5t28 -25t23.5 -29t10 -22.5q0 -9 -10 -23.5t-24 -28t-28.5 -23t-22.5 -9.5zM350 -648q-10 0 -24.5 10t-28 23.5t-23 28.5t-9.5 24t10 23.5t24 28t28.5 23.5t22.5 10 q9 0 23.5 -10.5t28 -24.5t23.5 -28.5t10 -22.5q0 -9 -10 -23.5t-24 -28t-28.5 -23.5t-22.5 -10zM176 -480q-10 0 -24.5 10t-28 23.5t-23 28t-9.5 24.5q0 9 10 23.5t24 28t28.5 23.5t22.5 10q9 0 23.5 -10.5t28 -25t23.5 -29t10 -22.5q0 -9 -10 -23.5t-24 -28t-28.5 -23 t-22.5 -9.5z" />
<glyph unicode="&#x5bc;" d="M0 437q-10 0 -24.5 10t-28 23.5t-23 28.5t-9.5 24t10 24t24 28.5t28.5 23.5t22.5 10q9 0 23.5 -10.5t28 -25t23.5 -29t10 -22.5q0 -9 -10 -23.5t-24 -28t-28.5 -23.5t-22.5 -10z" />
<glyph unicode="&#x5bd;" d="M38 -560q-15 2 -28 6t-42 14q-11 5 -13.5 9t-2.5 13v346q0 16 16 16q5 0 21 -5.5t28 -10.5q11 -5 14 -9t3 -10q8 -102 11 -191.5t3 -161.5q0 -19 -10 -16z" />
<glyph unicode="&#x5be;" horiz-adv-x="576" d="M40 902q-17 0 -17 13q0 5 3.5 31t17.5 87q2 11 8 15t17 4h445q18 0 18 -17q0 -4 -4.5 -30.5t-12.5 -64.5q-2 -11 -8.5 -14.5t-15.5 -4.5q-59 -4 -122 -7.5t-123 -6t-113.5 -4t-92.5 -1.5z" />
<glyph unicode="&#x5bf;" d="M-6 1246q0 6 4 24l16 63q3 11 6.5 13.5t11.5 2.5h416q16 0 16 -13q0 -3 -3 -20.5t-14 -52.5q-2 -8 -6.5 -10t-10.5 -3q-47 -3 -106 -6t-118.5 -4.5t-112.5 -2.5t-88 -1q-11 0 -11 10z" />
<glyph unicode="&#x5c0;" horiz-adv-x="498" d="M309 -326q0 -9 -1.5 -15t-10.5 -11l-55 -24q-20 -9 -30 -13t-13.5 -5t-5.5 -1q-13 0 -13 10v1870q0 15 15 20l53 24q19 9 29.5 13.5t14.5 6t7 1.5q10 0 10 -16v-1860z" />
<glyph unicode="&#x5c1;" d="M401 1166q-10 0 -24.5 10t-28 23.5t-23 28.5t-9.5 24t10 24t24 28.5t28.5 23.5t22.5 10q9 0 23.5 -10.5t28 -25t23.5 -29t10 -22.5q0 -9 -10 -23.5t-24 -28t-28.5 -23.5t-22.5 -10z" />
<glyph unicode="&#x5c2;" d="M-78 1166q-10 0 -24.5 10t-28 23.5t-23 28.5t-9.5 24t10 24t24 28.5t28.5 23.5t22.5 10q9 0 23.5 -10.5t28 -25t23.5 -29t10 -22.5q0 -9 -10 -23.5t-24 -28t-28.5 -23.5t-22.5 -10z" />
<glyph unicode="&#x5c3;" horiz-adv-x="606" d="M502 1024q-126 -79 -226 -225h-22q-45 72 -100.5 128.5t-124.5 96.5v23q63 43 118.5 98.5t106.5 124.5h22q53 -66 109.5 -121.5t116.5 -101.5v-23zM502 229q-66 -45 -122.5 -102.5t-103.5 -126.5h-22q-45 75 -101 132t-124 97v21q66 45 121.5 101t103.5 122h22 q42 -56 98.5 -111t127.5 -112v-21z" />
<glyph unicode="&#x5c4;" d="M80 1166q-10 0 -24.5 10t-28 23.5t-23 28.5t-9.5 24t10 24t24 28.5t28.5 23.5t22.5 10q9 0 23.5 -10.5t28 -25t23.5 -29t10 -22.5q0 -9 -10 -23.5t-24 -28t-28.5 -23.5t-22.5 -10z" />
<glyph unicode="&#x5d0;" horiz-adv-x="1221" d="M1164 1037q0 -1 -2.5 -15t-5.5 -33t-7 -39t-7 -32q-5 -16 -18 -16h-51l-60 10q-21 -35 -49 -90l-58 -115l-58 -117q-28 -56 -50 -93l97 -121l97 -127l105 -139q5 -8 5.5 -14t-7.5 -16q-34 -46 -66 -72l-45 -37q-9 -7 -18 3l-142 206q-68 94 -137.5 180.5t-145.5 172 t-169 180.5q-10 -29 -22.5 -69t-23.5 -93.5t-17.5 -121.5t-4.5 -152q1 -56 9 -124q14 -2 35 -5.5t42 -7.5t39 -8t26 -6q15 -5 15 -17q0 -2 -1 -13.5t-3.5 -26t-5.5 -30t-6 -26.5q-2 -7 -9 -10t-13 -3h-267q-17 0 -20 16q-8 42 -12 83.5t-4 83.5q0 88 14.5 173t38 159.5 t52.5 134.5t58 98q0 9 -13.5 35t-33.5 57.5t-42.5 62.5t-38.5 50q-5 5 -5 16q1 15 9 42t18 54l18 49q8 22 11 25q3 9 6 11.5t8 4.5q24 7 31 7q5 0 9 -9q10 -31 23 -64t29 -52l59 -67l73 -80l81 -88l80 -90l73 -82l58 -70q9 67 25.5 143.5t36 154t41 150.5t42.5 133 q3 8 5.5 10.5t7.5 4.5q17 3 23 4.5t9 1.5q4 0 7 -8q3 -11 17.5 -41t37.5 -61h155q7 0 10.5 -4.5t1.5 -10.5z" />
<glyph unicode="&#x5d1;" horiz-adv-x="1019" d="M1008 148q0 -5 -5 -35.5t-18 -94.5q-2 -11 -7.5 -14.5t-15.5 -3.5h-881q-19 0 -19 14q0 5 3.5 30.5t12.5 73.5q4 20 27 22q13 1 40 2.5l61 3.5q35 0 74 2l76 4q37 2 69.5 2h54.5q57 0 121 1t118 1q-18 20 -33 45.5t-26.5 54t-18 58t-6.5 58.5v350q0 49 -10.5 83t-29 55.5 t-43.5 31.5t-55 10h-228l-178 31q-11 2 -14 6.5t-3 12.5q1 15 8.5 42t17.5 56l18 55q9 26 14 39q2 6 4.5 8t8.5 4q14 4 21.5 5t9.5 1q7 0 8 -8q5 -17 20 -46t35 -56h245q104 0 170.5 -21.5t105 -63.5t53.5 -105.5t15 -147.5v-171v-71q0 -36 0.5 -71t0.5 -65v-53 q0 -42 10 -76t21 -48h135q13 0 13 -11z" />
<glyph unicode="&#x5d2;" horiz-adv-x="752" d="M738 46q6 -18 -12 -24l-75 -19q-29 -7 -46 -10.5t-24.5 -4.5t-10.5 -1q-10 0 -12 11l-33 122l-31 110q-14 50 -26 88t-19 56q-14 -42 -34 -96t-41.5 -106t-42.5 -94t-37 -61q-8 -11 -15.5 -14t-19.5 -3h-201q-20 0 -18 18l17 112q4 18 27 23l30 7q16 4 32.5 7.5t30.5 7.5 t22 7q16 7 38 28t45.5 49.5t47 62t42.5 66.5t30.5 63t12.5 51l-6 100l-5 90q-2 41 -4 69.5t-2 36.5q-3 54 -19 76.5t-55 24.5l-72 1l-130 30q-11 2 -15 6.5t-4 11.5q0 10 7 36q7 28 17 58l19 58q9 28 14 41q4 8 6 11t7 4q11 3 20 4.5t13 1.5q5 0 7 -8q6 -17 20 -46t35 -56 h103q43 0 80.5 -12t65.5 -38.5t45.5 -68t21.5 -99.5l38 -459z" />
<glyph unicode="&#x5d3;" horiz-adv-x="978" d="M919 1052q13 0 13 -12q0 -5 -4.5 -32t-17.5 -87q-4 -19 -23 -19h-166v-877q0 -17 -18 -20q-52 -6 -83 -10t-48.5 -5.5t-24 -2t-9.5 -0.5q-12 0 -12 14q0 15 0.5 51.5t1 87t1 111.5t1.5 127t2.5 133.5t2.5 129.5q1 26 8.5 59.5t20.5 68.5t30.5 69.5t37.5 63.5h-388 l-189 33q-13 2 -13 17q0 13 6 38t16 53l20 55l17 47q2 5 4.5 7t8.5 4q15 4 21 5t10 1t7 -8q7 -17 21.5 -46t36.5 -56h709z" />
<glyph unicode="&#x5d4;" horiz-adv-x="1135" d="M1020 26q0 -18 -18 -21l-82 -10q-32 -4 -49.5 -5.5t-24.5 -2t-9 -0.5q-10 0 -10 10v725q0 49 -10.5 83t-28.5 55.5t-43 31.5t-54 10h-377l-182 31q-11 2 -14.5 6.5t-3.5 12.5q0 14 12.5 62.5t43.5 129.5q3 10 13 12q17 4 23.5 5t8.5 1q7 0 8 -7q5 -19 20 -47.5t36 -55.5 h398q77 0 140.5 -13.5t108.5 -50.5t69.5 -103t24.5 -172v-687zM357 27q0 -19 -19 -22l-82 -9l-48 -6q-17 -2 -23.5 -2.5t-9.5 -0.5q-11 0 -11 12v75t2 106l4 122q2 64 3.5 123t3.5 109t5 81q1 20 18 23l59 8l40 6q16 2 25 3.5t15 1.5q15 0 15 -19z" />
<glyph unicode="&#x5d5;" horiz-adv-x="580" d="M457 24q0 -16 -19 -19l-82 -9l-46 -6q-16 -2 -23 -2.5t-10 -0.5q-12 0 -12 14v891l-193 42q-20 4 -20 18q0 13 7 38.5t16.5 54t19.5 55t15 41.5q6 13 14 15q4 1 16 3.5t13 2.5q6 1 9 -8l22 -46q14 -30 36 -56q28 -7 54 -12l48 -10q24 -5 43 -10q20 -4 37 -28t29 -63 t19 -91t7 -112v-702z" />
<glyph unicode="&#x5d6;" horiz-adv-x="740" d="M682 1040q0 -5 -4.5 -32t-17.5 -85q-5 -21 -24 -21h-208q-3 -10 -4 -47t0 -83t3 -93t5 -77l50 -575q2 -18 -15 -21q-51 -6 -82 -10t-48.5 -6t-24.5 -2.5t-9 -0.5q-12 0 -13 12q-3 20 -7 63q-5 42 -9 96l-8 114q-4 60 -8 114t-6.5 96.5t-2.5 62.5q1 37 7 81t16.5 90 t26.5 92.5t38 89.5l-255 36q-14 3 -14 18q0 13 6.5 37.5t15 52.5t18.5 54l15 45q4 8 6.5 10.5t7.5 4.5q13 4 21.5 5t10.5 1q7 0 8 -7q7 -19 21 -47.5t35 -55.5h435q14 0 14 -12z" />
<glyph unicode="&#x5d7;" horiz-adv-x="1147" d="M1035 26q0 -18 -17 -21l-121 -13q-40 -4 -45 -5q-11 0 -11 10v724q0 49 -10 83.5t-28 56t-43 31.5t-55 10h-294q-13 -58 -24 -116q-9 -50 -16 -107t-7 -105v-547q0 -19 -19 -22l-73 -9q-30 -4 -48 -5l-27 -3q-9 -1 -11 -1q-15 0 -15 12l6 555q0 38 12.5 86.5t32.5 97.5 t46 92.5t53 71.5l-186 31q-11 2 -14.5 6.5t-3.5 12.5q0 13 7 38.5t16 53.5q8 28 18 54l16 44q3 8 5.5 10t7.5 4q17 5 23 5.5t9 0.5q5 0 8 -8q5 -17 19.5 -46t35.5 -56h411q103 0 169 -22.5t104.5 -66t53.5 -106t15 -143.5v-688z" />
<glyph unicode="&#x5d8;" horiz-adv-x="1227" d="M1132 795q-6 -103 -22.5 -214t-42.5 -223q-17 -75 -58 -137.5t-98 -107.5q-50 -39 -114 -64t-140 -40t-162.5 -22t-180.5 -10q-9 0 -13.5 3.5t-6.5 8.5q-8 27 -21 75l-27 108l-30 122q-16 64 -28 121t-19.5 101t-7.5 65q0 35 5.5 75.5t15.5 82t24 82t30 76.5q-19 3 -45 9 t-51 11q-29 6 -59 14q-11 2 -14.5 6.5t-3.5 11.5q0 14 7 41l18 56l18 58l15 41q4 9 11 11q18 5 24 5.5t8 0.5q5 0 8 -8q5 -17 20.5 -46t35.5 -56q5 -2 19 -6l31 -10l33 -10q17 -6 28 -9q18 -6 15 -28q-4 -42 -5.5 -90.5t-2 -99t0.5 -99.5t2 -92t10.5 -102t24 -123.5 t32 -129.5t34.5 -120q149 12 242.5 41.5t139.5 94.5q27 39 45.5 87.5t32 117.5t24.5 162.5t23 221.5q1 19 -11.5 33t-35 23t-53 13t-64.5 4q-21 -25 -39.5 -60t-35 -75t-30.5 -83.5t-24 -85.5q-4 -12 -20 -9l-69 10q-8 2 -10.5 8t-3.5 15q-1 15 1 48t6.5 72.5t10.5 79.5 t14 69q11 41 21 72.5t23.5 53t31.5 32.5t44 11q42 0 96.5 -15t108 -37.5t99.5 -48.5t71 -47q15 -14 24.5 -27.5t14.5 -30.5t6 -38t-1 -50z" />
<glyph unicode="&#x5d9;" horiz-adv-x="619" d="M514 896q0 -38 -13.5 -95.5t-36 -121t-50.5 -125.5t-56 -108q-9 -17 -30 -11l-77 22q-7 2 -9 8t0 13q13 40 25.5 84.5t22.5 89.5t17 88t11 81q5 42 3 73q-66 6 -113 13t-78 13q-36 7 -61 15q-17 5 -17 17q0 14 7.5 41.5t17.5 57.5t20 55.5t14 36.5q4 8 6.5 10t8.5 4 q12 2 19.5 4t10.5 2q5 0 8 -8q8 -19 21 -47.5t35 -55.5l161 -7q66 -2 99.5 -42.5t33.5 -106.5z" />
<glyph unicode="&#x5da;" horiz-adv-x="944" d="M827 -370q0 -16 -18 -19l-75 -10l-48 -7q-19 -2 -28 -2.5t-12 -0.5q-8 0 -8 10v1121q0 49 -11 83.5t-30.5 56t-46 31t-57.5 9.5h-236l-181 31q-11 2 -14.5 6.5t-3.5 12.5q0 15 7 42t17 56l20 56l15 40q2 7 11 10q12 3 20.5 4.5t10.5 1.5q7 0 9 -7q5 -18 20 -47t35 -56 h259q105 0 172.5 -22.5t105.5 -66t52.5 -106.5t14.5 -143v-1084z" />
<glyph unicode="&#x5db;" horiz-adv-x="957" d="M838 434q0 -96 -26.5 -176t-76 -137.5t-121 -89t-160.5 -31.5h-353q-23 0 -23 16q0 5 3.5 31t15.5 77q5 15 24 18q14 0 39.5 1.5t56 2.5t62 2.5t59.5 3.5l47 2q20 1 27 1q117 2 174.5 74t57.5 197v330q0 81 -30.5 113.5t-80.5 32.5h-258l-177 31q-12 2 -15 6.5t-3 12.5 q0 13 7 39t16 54.5t19 54.5l14 42q3 8 5.5 10t8.5 4q17 4 23 5t8 1q8 0 10 -7q5 -17 19 -46.5t36 -56.5h310q66 0 118 -15.5t88.5 -51t56 -93.5t19.5 -144v-314z" />
<glyph unicode="&#x5dc;" horiz-adv-x="979" d="M872 1052q10 0 13 -3t6 -11q4 -12 10.5 -39.5t6.5 -52.5q0 -7 -6.5 -22t-23.5 -50l-422 -881q-7 -16 -26 -11q-66 14 -100.5 23t-54.5 13q-8 4 -9.5 10t0.5 11l132 268l122 244l106 207q50 94 90 159q-31 -6 -78 -9t-119.5 -4.5t-175.5 -1.5h-245q-16 0 -16 17v437 q-20 13 -47 22t-53 11q-8 2 -8 9q0 5 1.5 17.5t2.5 17.5q2 11 17 15q100 33 160 47.5t77 14.5q11 0 13 -11q1 -6 4 -21.5t6 -33.5t5.5 -35.5t2.5 -29.5v-327h609z" />
<glyph unicode="&#x5dd;" horiz-adv-x="1131" d="M1015 24q0 -11 -6 -17.5t-18 -6.5h-824q-8 0 -14 5.5t-6 13.5v45q0 33 1 79v101l2 114v114q0 56 2 102q0 33 13 79.5t34 93.5t46.5 89t50.5 66l-179 31q-11 2 -14.5 6.5t-3.5 12.5q0 13 7 39q7 27 17 55l19 54l14 42q3 8 5 10t7 4q8 2 19 4t13 2q7 0 8 -7q6 -18 20.5 -47 t35.5 -56h429q78 0 138.5 -18t101 -57t61.5 -100.5t21 -148.5v-704zM820 743q0 43 -9.5 73.5t-26.5 49.5t-40 27.5t-50 8.5h-303q-1 -3 -9 -30.5t-17.5 -68t-17 -86.5t-7.5 -85v-485q46 1 109 2.5t129 2.5l130 2q64 1 112 2v587z" />
<glyph unicode="&#x5de;" horiz-adv-x="1153" d="M1049 156q0 -10 -2 -18t-4 -14l-13 -29l-17 -35q-10 -20 -20 -43q-5 -11 -11.5 -14t-14.5 -3h-421q-22 0 -22 18q0 4 3 25.5t15 79.5q2 7 8 12.5t17 6.5l63 4l75 4l78 4q39 2 74 2v523q0 49 -13 90t-35.5 70.5t-53 46t-65.5 16.5h-190q-3 -8 -18 -41.5t-33.5 -80.5 t-36 -102t-26.5 -105l-10 -59q-4 -36 -10 -78l-12 -89l-12 -92l-28 -228q-3 -17 -19 -20l-85 -10l-54 -7q-20 -2 -28 -2.5t-10 -0.5q-8 -1 -11.5 4t-2.5 13l14 96l22 134l28 158l32 171q7 35 26 80t45 91t58.5 90t66.5 78l-254 31q-11 2 -14.5 6.5t-3.5 12.5q0 13 7 40 t17 56l20 56q10 27 15 42q4 8 13 11q14 3 21 4t9 1q7 0 8 -7q8 -20 21.5 -48t34.5 -55h362q97 0 171.5 -30.5t124.5 -86.5t75.5 -134.5t25.5 -174.5v-470z" />
<glyph unicode="&#x5df;" horiz-adv-x="551" d="M435 -368q0 -19 -18 -22l-77 -10l-48 -5l-26 -3q-8 -1 -12 -1q-10 0 -10 11v1290l-165 42q-11 3 -14.5 7t-3.5 11q0 13 7 39.5t17 56.5l19 56l14 41q4 8 12 12q25 6 33 6q4 0 7 -8q7 -17 21 -46.5t35 -56.5q21 -6 42 -11l39 -11l39 -11q8 -2 17.5 -9t15.5 -16 q26 -44 41 -115.5t15 -152.5v-1094z" />
<glyph unicode="&#x5e0;" horiz-adv-x="690" d="M565 156q0 -20 -6 -32l-13 -28l-15 -34q-9 -19 -18 -41q-6 -13 -15.5 -17t-23.5 -4h-434q-20 0 -20 16q0 5 4 34t14 70q5 17 25 20q31 3 68.5 5t78 4.5t81.5 4t79 2.5v736l-208 41q-11 3 -14.5 7.5t-3.5 11.5q0 13 7 39t16.5 55t19.5 56t15 44q2 5 4 6.5t8 3.5q27 6 32 6 t7 -8l23 -46q14 -30 34 -56q33 -6 65 -11q27 -5 55.5 -11t48.5 -11q17 -6 30 -25q28 -45 42 -116t14 -152v-570z" />
<glyph unicode="&#x5e1;" horiz-adv-x="1208" d="M1101 1034l-31 -378q-14 -163 -31 -260q-20 -99 -60.5 -168t-101.5 -117q-42 -33 -94.5 -57t-117.5 -40t-144.5 -25t-176.5 -12q-16 0 -19 12q-5 25 -17 75l-28 112l-31 128l-29 124q-14 58 -22.5 99t-8.5 54q2 36 9 76.5t18.5 82t26.5 83t32 78.5l-49 9q-32 6 -64 11 l-79 13q-8 2 -10 6t-2 12q0 12 7 38q6 27 16 56l20 56l14 41q4 8 6 9.5t7 3.5q15 4 22.5 5t10.5 1q2 0 5 -5q8 -20 24.5 -49t37.5 -56h842q8 0 13 -5t5 -13zM375 902q-1 -44 -1.5 -90t0.5 -90.5t2.5 -85t4.5 -71.5q3 -40 12.5 -93t23 -111.5t29 -119t32.5 -116.5 q100 7 170 30t114.5 59.5t67 85t28.5 106.5q0 2 4 36l8 84l10 110l11 114l9 96q4 42 4 56h-529z" />
<glyph unicode="&#x5e2;" horiz-adv-x="1129" d="M1022 1033l-25 -261l-10 -101l-9 -93l-8 -72q-4 -30 -6 -43q-27 -179 -129.5 -291.5t-298.5 -162.5q-95 -24 -197 -37.5t-219 -20.5q-13 0 -19 14q-4 10 -8.5 32t-9.5 50q-3 14 14 17l87 16l98 17q50 9 96.5 20t80.5 24q-46 58 -81 116t-48 110l-129 541l-113 25 q-11 3 -14 7t-3 12q0 14 7 40q6 25 16 53l19 55q9 26 14 42q3 8 5.5 10t7.5 4q16 3 23 4.5t10 1.5t7 -7q8 -16 21.5 -46t34.5 -57h106q25 0 29 -26l140 -695q8 -40 16.5 -70t16.5 -50q9 -24 18 -42q54 20 91 44t61.5 53.5t38.5 65t20 77.5q2 7 6.5 43l10.5 87l11 109l11 112 q5 52 8 92l4 54q-17 -3 -36.5 -3.5t-36.5 -0.5h-52q-19 0 -14 21l20 113q2 10 8 13t14 3h281q8 0 12 -5.5t2 -13.5z" />
<glyph unicode="&#x5e3;" horiz-adv-x="1070" d="M954 -368q0 -21 -19 -22l-76 -10q-29 -4 -46.5 -6t-25.5 -2.5t-11 -0.5q-12 0 -12 11v1120q0 49 -10.5 83t-28.5 55.5t-43 31.5t-55 10h-291q-8 -45 -14 -96.5t-10.5 -102.5t-8 -99.5t-4.5 -87.5h160l43 -31q6 -5 6.5 -11.5t-1.5 -13.5l-46 -126q-5 -11 -21 -8l-204 37 l-96 -37q-10 -3 -14 1l-19 22q-3 4 -3.5 9t-0.5 10q0 6 1.5 23t3.5 37l4 42q2 20 4 33q4 28 32 128.5t100 273.5l-138 28q-11 2 -15 6.5t-4 12.5q0 9 5.5 30t13.5 48q10 26 20 56l19 56q4 8 5.5 10t6.5 4q17 5 23.5 5.5t8.5 0.5q7 0 9 -7q5 -17 19.5 -46.5t35.5 -56.5h403 q64 0 118 -20.5t93 -62t61 -105t22 -150.5v-1082z" />
<glyph unicode="&#x5e4;" horiz-adv-x="1109" d="M992 434q1 -96 -25.5 -176t-77.5 -137t-124.5 -89t-166.5 -32h-463q-22 0 -20 16q0 7 3.5 35.5t12.5 73.5q3 15 25 17q12 0 36 1t55.5 2t67.5 2l72 2q84 3 183 6q51 1 94 20t73.5 54.5t47.5 85t17 111.5v330q0 41 -8.5 69t-23.5 45t-35 24.5t-44 7.5h-345 q-12 -71 -18.5 -144t-7.5 -140h174l43 -33q11 -8 5 -25l-45 -119q-5 -12 -20 -9l-223 38l-94 -38q-11 -3 -15 2l-19 21q-3 3 -3.5 8.5t0.5 11.5l7 47q4 32 12 72q3 18 14.5 52.5t27.5 77.5l37 90l40 91l-126 28q-11 2 -14 6.5t-3 12.5q0 13 6.5 38.5t15.5 53.5l18 56l15 42 q3 8 5.5 10t8.5 4q17 4 23.5 5t8.5 1q5 0 8 -8q5 -17 20 -46t36 -56h441q133 0 200.5 -74t67.5 -230v-314z" />
<glyph unicode="&#x5e5;" horiz-adv-x="1070" d="M983 918q-3 -16 -18 -16h-55l-61 10l-53 -96l-65 -122l-67 -125l-59 -110q6 -14 11.5 -31.5t9 -41.5t6 -56t3.5 -75q0 -34 1 -79t2 -95l2 -103l2 -103q3 -118 5 -244q0 -17 -16 -20q-46 -7 -76 -11l-48 -6q-18 -2 -26 -3t-10 -1q-10 0 -10 12q0 7 0.5 42t0.5 88t0.5 119 t1.5 134.5t1.5 134.5t0.5 118.5t0.5 87.5t0.5 41q-5 15 -30 57t-61 96l-80 116l-84 122l-75 106l-52 76q-4 7 -4 14q0 17 7.5 45t17.5 56.5t19.5 52.5t12.5 33q4 8 6.5 10t7.5 4q19 7 32 7q6 0 9 -8q1 -5 7 -20q4 -15 12 -33l16 -36q8 -18 13 -28q14 -21 45 -72l70 -117 l83 -136l81 -134l26 -46q16 74 35 145.5t43 145.5l50 153q27 78 60 165q4 11 12 13q11 3 19 5.5t12 2.5q7 0 8 -8q4 -14 18 -43.5t35 -58.5h157q13 0 11 -14z" />
<glyph unicode="&#x5e6;" horiz-adv-x="1084" d="M1024 1042q0 -1 -3 -17l-7 -36l-8 -41l-6 -30q-3 -16 -17 -16h-56l-55 9l-48 -89l-55 -103l-60 -111q-31 -57 -59 -114l68 -95l63 -95l54 -85l39 -64q5 -8 5 -21q0 -6 -5.5 -36.5t-19.5 -81.5q-4 -16 -23 -16h-745q-22 0 -20 16q1 8 3 36t13 72q5 17 24 18q18 1 63 2.5 t104 3t124 3t122 3t99 2.5t55 1q-27 47 -67 105l-90 124l-105 138l-113 142l-114 142l-104 131q-4 5 -4 15q0 16 7.5 43t17.5 55l19 54l14 36q4 8 6.5 9.5t8.5 3.5q10 3 18.5 5t11.5 2q5 0 8 -7q1 -5 7 -21l14 -34l16 -35.5t14 -27.5l87 -116l95 -127l93 -125l81 -110 q23 148 64 299t90 284q3 8 5 10t7 4q14 4 22 5t11 1q4 0 7 -8q1 -5 5.5 -16.5t11 -26t15.5 -30.5t20 -29h159q13 0 13 -10z" />
<glyph unicode="&#x5e7;" horiz-adv-x="1199" d="M1108 1038q7 -18 13 -45t6 -47q0 -7 -8.5 -27t-20.5 -45l-401 -880q-8 -17 -27 -12l-52 12l-46 11l-34 9l-18 4q-7 2 -8 9t2 14l84 191l70 159l62 137l59 124q38 75 75 140t75 122q-8 0 -29 -2t-53 -4t-73 -4t-89 -2h-405l-196 31q-11 2 -14.5 6.5t-3.5 12.5q0 11 6.5 35 t15 52t18.5 55l15 45q4 8 7 11t9 5q11 4 20 5.5t11 1.5q5 0 8 -8q6 -17 20.5 -46t34.5 -56h848q16 0 19 -14zM360 -369q0 -9 -4 -15t-15 -7l-83 -9l-46 -6q-16 -2 -22.5 -2.5t-9.5 -0.5q-10 0 -10 12q0 210 1 372t3.5 284.5t6.5 209t10 146.5q2 20 17 23l62 8l39 6.5 t22.5 3.5t11.5 1q15 0 15 -19z" />
<glyph unicode="&#x5e8;" horiz-adv-x="948" d="M831 24q0 -16 -18 -19q-47 -5 -77 -9l-48 -6q-18 -2 -27 -2.5t-13 -0.5q-10 0 -10 10v725q0 50 -11 84.5t-30 55.5t-43.5 30.5t-52.5 9.5h-257l-181 31q-12 2 -15 6.5t-3 11.5q0 17 7.5 47t17.5 60l18 54q8 24 11 28q5 8 7 10.5t8 4.5q13 4 21.5 5.5t11.5 1.5q5 0 8 -8 q5 -14 19 -44t37 -58h275q79 0 143 -13.5t109 -51t69 -103.5t24 -170v-690z" />
<glyph unicode="&#x5e9;" horiz-adv-x="1449" d="M1357 1033q0 -10 -1.5 -42.5t-5 -78.5t-9 -102.5t-13.5 -113.5t-18 -111.5t-22 -97.5q-31 -111 -88.5 -202.5t-157 -157.5t-247.5 -102t-359 -36q-14 0 -19 3t-12 13q-36 56 -65.5 126t-52.5 148.5t-41 161.5t-31 165t-21.5 159t-13.5 143q-29 6 -55 12.5t-44 12.5 q-11 4 -14.5 7.5t-3.5 11.5q0 13 6.5 37t15 50.5t17.5 51.5l14 40q5 15 8.5 19t10.5 6q11 3 19 4.5t10 1.5q6 0 9 -8q5 -17 20 -46t35 -56h116q23 0 23 -22q0 -90 1 -177t8 -174.5t22 -176t42 -180.5q69 46 113.5 93t70.5 105t36 131.5t9 171.5q-1 20 -1.5 40t-2.5 39h-107 q-25 0 -20 27l17 101q5 22 27 22h252q8 0 12.5 -5t5.5 -13q1 -89 -3 -170t-12.5 -150t-22 -123t-30.5 -88q-25 -49 -57.5 -87.5t-72.5 -70t-88.5 -56t-105.5 -45.5q10 -34 22 -62l26 -64q67 2 142.5 13t148 36.5t136 68t106.5 105.5q21 31 39 80t32 105.5t24 116t17 111.5 t10.5 92.5t3.5 59.5q-16 -3 -34 -3.5t-34 -0.5h-51q-8 0 -14 6t-4 17l15 100q2 12 10.5 19.5t20.5 7.5h262q8 0 14 -5.5t5 -13.5z" />
<glyph unicode="&#x5ea;" horiz-adv-x="1213" d="M1097 26q0 -17 -19 -21q-45 -5 -76 -9l-50 -6q-19 -2 -28 -2.5t-11 -0.5q-10 0 -10 10v725q0 49 -10.5 83t-28.5 55.5t-43 31.5t-55 10h-339q-4 -20 -6.5 -43.5t-3.5 -50.5q-1 -61 3 -128.5t9 -135.5t12 -132t14 -118l13 -92q6 -38 8 -55q0 -8 -1 -16.5t-3 -16.5l-23 -95 q-4 -19 -27 -19h-386q-10 0 -13 3t-3 11q0 3 1.5 13.5t4.5 24.5l6 30l7 31q4 14 21 17l44 6q22 3 48.5 5.5t57.5 4.5l71 6q-19 131 -32 249t-13 219q0 28 7.5 64t21 74t32 75t40.5 69l-206 31q-13 2 -16.5 6.5t-3.5 12.5q0 13 7.5 40.5t17.5 57.5l21 58q10 28 15 40 q4 7 11 8q16 4 22 5t9 1q5 0 7 -7l23 -48q14 -28 33 -55h476q76 0 139.5 -12.5t109 -49t70.5 -103t25 -173.5v-688z" />
<glyph unicode="&#x5f0;" horiz-adv-x="1150" d="M457 24q0 -16 -19 -19l-82 -9l-46 -6q-16 -2 -23 -2.5t-10 -0.5q-12 0 -12 14v891l-193 42q-20 4 -20 18q0 13 7 38.5t16.5 54t19.5 55t15 41.5q6 13 14 15q4 1 16 3.5t13 2.5q6 1 9 -8l22 -46q14 -30 36 -56q28 -7 54 -12l48 -10q24 -5 43 -10q20 -4 37 -28t29 -63 t19 -91t7 -112v-702zM1027 24q0 -16 -19 -19l-82 -9l-46 -6q-16 -2 -23 -2.5t-10 -0.5q-12 0 -12 14v891l-193 42q-20 4 -20 18q0 13 7 38.5t16.5 54t19.5 55t15 41.5q6 13 14 15q4 1 16 3.5t13 2.5q6 1 9 -8l22 -46q14 -30 36 -56q28 -7 54 -12l48 -10q24 -5 43 -10 q20 -4 37 -28t29 -63t19 -91t7 -112v-702z" />
<glyph unicode="&#x5f1;" horiz-adv-x="1202" d="M1080 24q0 -16 -19 -19l-82 -9l-46 -6q-16 -2 -23 -2.5t-10 -0.5q-12 0 -12 14v891l-193 42q-20 4 -20 18q0 13 7 38.5t16.5 54t19.5 55t15 41.5q6 13 14 15q4 1 16 3.5t13 2.5q6 1 9 -8l22 -46q14 -30 36 -56q28 -7 54 -12l48 -10q24 -5 43 -10q20 -4 37 -28t29 -63 t19 -91t7 -112v-702zM514 896q0 -38 -13.5 -95.5t-36 -121t-50.5 -125.5t-56 -108q-9 -17 -30 -11l-77 22q-7 2 -9 8t0 13q13 40 25.5 84.5t22.5 89.5t17 88t11 81q5 42 3 73q-66 6 -113 13t-78 13q-36 7 -61 15q-17 5 -17 17q0 14 7.5 41.5t17.5 57.5t20 55.5t14 36.5 q4 8 6.5 10t8.5 4q12 2 19.5 4t10.5 2q5 0 8 -8q8 -19 21 -47.5t35 -55.5l161 -7q66 -2 99.5 -42.5t33.5 -106.5z" />
<glyph unicode="&#x5f2;" horiz-adv-x="1226" d="M1121 896q0 -38 -13.5 -95.5t-36 -121t-50.5 -125.5t-56 -108q-9 -17 -30 -11l-77 22q-7 2 -9 8t0 13q13 40 25.5 84.5t22.5 89.5t17 88t11 81q5 42 3 73q-66 6 -113 13t-78 13q-36 7 -61 15q-17 5 -17 17q0 14 7.5 41.5t17.5 57.5t20 55.5t14 36.5q4 8 6.5 10t8.5 4 q12 2 19.5 4t10.5 2q5 0 8 -8q8 -19 21 -47.5t35 -55.5l161 -7q66 -2 99.5 -42.5t33.5 -106.5zM514 896q0 -38 -13.5 -95.5t-36 -121t-50.5 -125.5t-56 -108q-9 -17 -30 -11l-77 22q-7 2 -9 8t0 13q13 40 25.5 84.5t22.5 89.5t17 88t11 81q5 42 3 73q-66 6 -113 13t-78 13 q-36 7 -61 15q-17 5 -17 17q0 14 7.5 41.5t17.5 57.5t20 55.5t14 36.5q4 8 6.5 10t8.5 4q12 2 19.5 4t10.5 2q5 0 8 -8q8 -19 21 -47.5t35 -55.5l161 -7q66 -2 99.5 -42.5t33.5 -106.5z" />
<glyph unicode="&#x5f3;" horiz-adv-x="344" d="M86 1287q0 14 14.5 35.5t34.5 42t41.5 35t35.5 14.5q13 0 34 -16t40.5 -37t33.5 -40.5t14 -26.5q0 -26 -7 -54t-17 -51q-29 -73 -79 -148.5t-113 -138.5q-7 -7 -17 -3q-5 3 -13 7l-23 12q-8 6 -3 14l14 31l24 60q14 36 29.5 82t27.5 98q-29 19 -50 43t-21 41z" />
<glyph unicode="&#x5f4;" horiz-adv-x="669" d="M411 1287q0 14 14.5 35.5t34.5 42t41.5 35t35.5 14.5q13 0 34 -16t40.5 -37t33.5 -40.5t14 -26.5q0 -26 -7 -54t-17 -51q-29 -73 -79 -148.5t-113 -138.5q-7 -7 -17 -3l-14 7l-22 12q-7 6 -3 14l13 31l24.5 60t30 82t27.5 98q-29 19 -50 43t-21 41zM86 1287 q0 14 14.5 35.5t34.5 42t41.5 35t35.5 14.5q13 0 34 -16t40.5 -37t33.5 -40.5t14 -26.5q0 -26 -7 -54t-17 -51q-29 -73 -79 -148.5t-113 -138.5q-7 -7 -17 -3q-5 3 -13 7l-23 12q-7 6 -3 14l14 31l24 60t29.5 82t27.5 98q-29 19 -50 43t-21 41z" />
<glyph unicode="&#x2000;" horiz-adv-x="923" />
<glyph unicode="&#x2001;" horiz-adv-x="1846" />
<glyph unicode="&#x2002;" horiz-adv-x="923" />
<glyph unicode="&#x2003;" horiz-adv-x="1846" />
<glyph unicode="&#x2004;" horiz-adv-x="615" />
<glyph unicode="&#x2005;" horiz-adv-x="461" />
<glyph unicode="&#x2006;" horiz-adv-x="307" />
<glyph unicode="&#x2007;" horiz-adv-x="307" />
<glyph unicode="&#x2008;" horiz-adv-x="230" />
<glyph unicode="&#x2009;" horiz-adv-x="369" />
<glyph unicode="&#x200a;" horiz-adv-x="102" />
<glyph unicode="&#x2010;" horiz-adv-x="874" d="M74 452q-15 0 -15 12q0 2 1 8l4 18l6 37l12 61q5 20 26 20h668q22 0 22 -15q0 -2 -0.5 -6.5t-3.5 -16.5q-2 -12 -6 -32l-9 -53q-2 -6 -8.5 -11.5t-17.5 -6.5q-31 -3 -87.5 -5.5t-124.5 -4t-141.5 -2.5t-138.5 -1.5t-115 -1t-72 -0.5z" />
<glyph unicode="&#x2011;" horiz-adv-x="874" d="M74 452q-15 0 -15 12q0 2 1 8l4 18l6 37l12 61q5 20 26 20h668q22 0 22 -15q0 -2 -0.5 -6.5t-3.5 -16.5q-2 -12 -6 -32l-9 -53q-2 -6 -8.5 -11.5t-17.5 -6.5q-31 -3 -87.5 -5.5t-124.5 -4t-141.5 -2.5t-138.5 -1.5t-115 -1t-72 -0.5z" />
<glyph unicode="&#x2012;" horiz-adv-x="874" d="M74 452q-15 0 -15 12q0 2 1 8l4 18l6 37l12 61q5 20 26 20h668q22 0 22 -15q0 -2 -0.5 -6.5t-3.5 -16.5q-2 -12 -6 -32l-9 -53q-2 -6 -8.5 -11.5t-17.5 -6.5q-31 -3 -87.5 -5.5t-124.5 -4t-141.5 -2.5t-138.5 -1.5t-115 -1t-72 -0.5z" />
<glyph unicode="&#x2013;" horiz-adv-x="1266" d="M184 451q-13 0 -13 14q0 2 0.5 6.5t3 17t6.5 35.5t12 62q4 21 25 21h861q18 0 18 -16q0 -2 -1 -6.5t-3 -14.5l-5 -30l-10 -52q-1 -6 -7 -13t-19 -8q-26 -2 -72.5 -3.5t-106.5 -3t-129 -3t-139 -2.5t-137.5 -1.5t-124 -1t-98.5 -1t-61 -0.5z" />
<glyph unicode="&#x2014;" horiz-adv-x="2270" d="M186 453q-14 0 -14 14q0 2 0.5 6.5t3 16.5t6.5 34.5t12 61.5q4 21 24 20h1861q18 0 18 -15q0 -2 -0.5 -5t-2.5 -13l-6 -28l-9 -50q-1 -6 -7 -13t-18 -8q-20 -2 -82.5 -3.5t-154 -3t-207.5 -2.5t-243 -2.5t-260 -2.5t-259 -2.5t-239.5 -2t-202.5 -1t-147 -1t-73 -0.5z" />
<glyph unicode="&#x2018;" horiz-adv-x="344" d="M86 1287q0 14 14.5 35.5t34.5 42t41.5 35t35.5 14.5q13 0 34 -16t40.5 -37t33.5 -40.5t14 -26.5q0 -26 -7 -54t-17 -51q-29 -73 -79 -148.5t-113 -138.5q-7 -7 -17 -3q-5 3 -13 7l-23 12q-8 6 -3 14l14 31l24 60q14 36 29.5 82t27.5 98q-29 19 -50 43t-21 41z" />
<glyph unicode="&#x2019;" horiz-adv-x="344" d="M86 1287q0 14 14.5 35.5t34.5 42t41.5 35t35.5 14.5q13 0 34 -16t40.5 -37t33.5 -40.5t14 -26.5q0 -26 -7 -54t-17 -51q-29 -73 -79 -148.5t-113 -138.5q-7 -7 -17 -3q-5 3 -13 7l-23 12q-8 6 -3 14l14 31l24 60q14 36 29.5 82t27.5 98q-29 19 -50 43t-21 41z" />
<glyph unicode="&#x201a;" horiz-adv-x="344" d="M86 1287q0 14 14.5 35.5t34.5 42t41.5 35t35.5 14.5q13 0 34 -16t40.5 -37t33.5 -40.5t14 -26.5q0 -26 -7 -54t-17 -51q-29 -73 -79 -148.5t-113 -138.5q-7 -7 -17 -3q-5 3 -13 7l-23 12q-8 6 -3 14l14 31l24 60q14 36 29.5 82t27.5 98q-29 19 -50 43t-21 41z" />
<glyph unicode="&#x201c;" horiz-adv-x="669" d="M411 1287q0 14 14.5 35.5t34.5 42t41.5 35t35.5 14.5q13 0 34 -16t40.5 -37t33.5 -40.5t14 -26.5q0 -26 -7 -54t-17 -51q-29 -73 -79 -148.5t-113 -138.5q-7 -7 -17 -3l-14 7l-22 12q-7 6 -3 14l13 31l24.5 60t30 82t27.5 98q-29 19 -50 43t-21 41zM86 1287 q0 14 14.5 35.5t34.5 42t41.5 35t35.5 14.5q13 0 34 -16t40.5 -37t33.5 -40.5t14 -26.5q0 -26 -7 -54t-17 -51q-29 -73 -79 -148.5t-113 -138.5q-7 -7 -17 -3q-5 3 -13 7l-23 12q-7 6 -3 14l14 31l24 60t29.5 82t27.5 98q-29 19 -50 43t-21 41z" />
<glyph unicode="&#x201d;" horiz-adv-x="669" d="M411 1287q0 14 14.5 35.5t34.5 42t41.5 35t35.5 14.5q13 0 34 -16t40.5 -37t33.5 -40.5t14 -26.5q0 -26 -7 -54t-17 -51q-29 -73 -79 -148.5t-113 -138.5q-7 -7 -17 -3l-14 7l-22 12q-7 6 -3 14l13 31l24.5 60t30 82t27.5 98q-29 19 -50 43t-21 41zM86 1287 q0 14 14.5 35.5t34.5 42t41.5 35t35.5 14.5q13 0 34 -16t40.5 -37t33.5 -40.5t14 -26.5q0 -26 -7 -54t-17 -51q-29 -73 -79 -148.5t-113 -138.5q-7 -7 -17 -3q-5 3 -13 7l-23 12q-7 6 -3 14l14 31l24 60t29.5 82t27.5 98q-29 19 -50 43t-21 41z" />
<glyph unicode="&#x201e;" horiz-adv-x="669" d="M411 1287q0 14 14.5 35.5t34.5 42t41.5 35t35.5 14.5q13 0 34 -16t40.5 -37t33.5 -40.5t14 -26.5q0 -26 -7 -54t-17 -51q-29 -73 -79 -148.5t-113 -138.5q-7 -7 -17 -3l-14 7l-22 12q-7 6 -3 14l13 31l24.5 60t30 82t27.5 98q-29 19 -50 43t-21 41zM86 1287 q0 14 14.5 35.5t34.5 42t41.5 35t35.5 14.5q13 0 34 -16t40.5 -37t33.5 -40.5t14 -26.5q0 -26 -7 -54t-17 -51q-29 -73 -79 -148.5t-113 -138.5q-7 -7 -17 -3q-5 3 -13 7l-23 12q-7 6 -3 14l14 31l24 60t29.5 82t27.5 98q-29 19 -50 43t-21 41z" />
<glyph unicode="&#x2020;" horiz-adv-x="821" d="M333 951q-1 58 -3 113q0 56 -2 100l-3 74q-1 30 -1 42q0 8 3 14t10 8l73 28l39 14q13 5 17 6t6 1q6 0 10 -5t4 -19q0 -3 -0.5 -23t-1.5 -50q0 -32 -1 -70l-2 -78l-2 -81q-1 -40 -2 -74h248q8 0 12 -3.5t4 -7.5q0 -2 -1 -7.5t-3.5 -17t-8.5 -29.5l-14 -47q-5 -14 -22 -14 l-217 -4q0 -36 0.5 -94.5t1 -129.5t1.5 -150l2 -157q1 -78 1.5 -148.5t1 -125.5t1 -90t0.5 -39q0 -9 -2.5 -15.5t-11.5 -10.5l-62 -20q-24 -8 -37.5 -12t-19.5 -5.5t-8 -1.5q-12 0 -12 11v44v100q0 61 0.5 138.5t0.5 161.5t0.5 168t0.5 157t0.5 130t0.5 86q-46 -1 -87.5 -2 t-74 -1.5t-52.5 -0.5h-23q-15 0 -15 14q0 2 0.5 6.5t2.5 15.5l6 32l11 56q4 13 21 13h210z" />
<glyph unicode="&#x2021;" horiz-adv-x="835" d="M319 363q-1 27 -3 59l-4 61q-2 30 -2.5 56.5t-0.5 44.5q0 16 1 44.5t3 61.5t3.5 66.5t3.5 61.5q-42 -1 -80 -1.5t-67.5 -1t-47.5 -1t-21 -0.5q-15 0 -15 14q0 2 0.5 6.5t2.5 15.5l6 32l11 56q4 13 21 12h192q-1 43 -3 97.5t-3.5 104t-2.5 86t-1 44.5q0 15 13 20l68 26 q26 10 41 14l21 7q6 2 8 2q5 0 8 -3t3 -13q0 -6 -0.5 -27.5t-1 -53t-1.5 -70.5l-2 -80l-2 -80q-1 -40 -2 -74h266q8 0 12 -3t4 -7q0 -2 -1 -7.5t-3.5 -17t-7.5 -30t-14 -46.5q-5 -14 -22 -14l-233 -4q1 -30 3 -67t3.5 -71t3 -59t1.5 -32q0 -6 -1 -30l-2 -58l-4 -71t-3 -70 h264q8 0 12 -3.5t4 -7.5q0 -2 -1 -7.5t-3.5 -17t-7.5 -30t-14 -46.5q-5 -14 -22 -14l-233 -4q0 -27 1 -61l2 -72l2 -72q1 -36 1.5 -65.5t1 -50t0.5 -26.5q0 -15 -13 -20l-71 -28l-38 -14q-14 -5 -18.5 -6t-7.5 -1q-14 0 -14 15q0 4 0.5 26.5t1.5 56.5t2 76t2.5 85t2 83 t1.5 71q-42 -1 -80.5 -1.5t-68 -1t-47.5 -0.5h-22q-15 0 -15 13q0 3 0.5 9t2.5 18t6 32t11 51q3 13 21 13h189z" />
<glyph unicode="&#x2022;" horiz-adv-x="659" d="M330 283q-17 0 -40.5 12.5t-49.5 33t-51.5 46t-46 51t-33 49t-12.5 40.5q0 16 12.5 40t33 50t46 51.5t51.5 46t49.5 33t40.5 12.5t40.5 -12.5t49 -33t51 -46t46 -51.5t33 -50t12.5 -40q0 -25 -27 -64t-64.5 -76.5t-76.5 -64.5t-64 -27z" />
<glyph unicode="&#x2026;" horiz-adv-x="1312" d="M233 -33l141 142l-136 136l-142 -142zM652 -33l141 142l-136 136l-142 -142zM1079 -33l141 142l-136 136l-142 -142z" />
<glyph unicode="&#x202f;" horiz-adv-x="369" />
<glyph unicode="&#x2030;" horiz-adv-x="2126" d="M384 -17q-8 -10 -15 -10q-4 0 -9.5 1.5t-16.5 5.5q-11 2 -31 10l-50 20q-10 1 -10 10q0 2 12 19l44 61l90 120l147 196l218 290l302 400q7 6 11 9t12 3h7l15 -5l34 -12q22 -8 58 -23q3 -2 5.5 -4t2.5 -7q0 -3 -12 -21t-45 -62l-91 -120l-150 -196l-221 -288zM342 469 q-56 0 -102 22t-78.5 63.5t-50 102.5t-17.5 139q0 86 21 159.5t66 121.5q34 38 81 56.5t100 18.5q55 0 101 -22t78 -63.5t50 -102t18 -137.5q0 -87 -21 -160.5t-64 -121.5q-35 -38 -82 -57t-100 -19zM249 679q5 -18 15 -38.5t24.5 -37.5t34.5 -28t46 -11q31 0 48 12 q10 9 19 29t16 47t11 60t4 69q0 43 -5 92.5t-18 85.5q-6 19 -16.5 37t-25 32.5t-33.5 23t-43 8.5q-31 0 -46 -12q-21 -20 -35.5 -76t-14.5 -128q0 -42 4.5 -87.5t14.5 -77.5zM1102 -57q-56 0 -101.5 22t-78 64t-50 102.5t-17.5 138.5q0 86 21 159.5t66 122.5q34 38 81 56.5 t99 18.5q55 0 101 -22t78.5 -63.5t50.5 -102t18 -137.5q0 -87 -21 -160.5t-64 -121.5q-35 -38 -82 -57.5t-101 -19.5zM1009 153q6 -18 15.5 -38.5t24.5 -37.5t35 -28t46 -11q30 0 48 13q10 9 19 29t16 47t11 60t4 68q0 43 -5 92.5t-18 85.5q-6 19 -16.5 37.5t-25 32.5 t-33.5 23t-43 9q-31 0 -47 -13q-10 -9 -19 -28.5t-15.5 -46.5t-10.5 -59.5t-4 -68.5q0 -41 4.5 -87.5t13.5 -78.5zM1759 -57q-56 0 -102 22t-78.5 64t-50 102.5t-17.5 138.5q0 86 21 159.5t66 122.5q34 38 81 56.5t100 18.5q55 0 101 -22t78 -63.5t50 -102t18 -137.5 q0 -87 -20.5 -160.5t-64.5 -121.5q-35 -38 -82 -57.5t-100 -19.5zM1666 153q5 -18 15 -38.5t24.5 -37.5t34.5 -28t46 -11q30 0 48 13q10 9 19 29t16 47t11 60t4 68q0 43 -5 92.5t-18 85.5q-6 19 -16.5 37.5t-25 32.5t-33.5 23t-43 9q-30 0 -46 -13q-10 -9 -19 -28.5 t-16 -46.5t-11 -59.5t-4 -68.5q0 -41 5 -87.5t14 -78.5z" />
<glyph unicode="&#x2039;" horiz-adv-x="344" d="M86 1287q0 14 14.5 35.5t34.5 42t41.5 35t35.5 14.5q13 0 34 -16t40.5 -37t33.5 -40.5t14 -26.5q0 -26 -7 -54t-17 -51q-29 -73 -79 -148.5t-113 -138.5q-7 -7 -17 -3q-5 3 -13 7l-23 12q-8 6 -3 14l14 31l24 60q14 36 29.5 82t27.5 98q-29 19 -50 43t-21 41z" />
<glyph unicode="&#x203a;" horiz-adv-x="344" d="M86 1287q0 14 14.5 35.5t34.5 42t41.5 35t35.5 14.5q13 0 34 -16t40.5 -37t33.5 -40.5t14 -26.5q0 -26 -7 -54t-17 -51q-29 -73 -79 -148.5t-113 -138.5q-7 -7 -17 -3q-5 3 -13 7l-23 12q-8 6 -3 14l14 31l24 60q14 36 29.5 82t27.5 98q-29 19 -50 43t-21 41z" />
<glyph unicode="&#x205f;" horiz-adv-x="461" />
<glyph unicode="&#x2122;" horiz-adv-x="1648" d="M828 1304l-18 6l-26 6l-22 7q-10 3 -14 4q-10 3 -10 9q0 3 1 9t8 29q2 10 15 10h168q9 0 13 -3.5t7 -10.5l187 -450l183 446q7 18 27 18h185q8 0 8 -7q0 -2 -1 -10.5t-5 -28.5q-1 -9 -14 -13q-6 -2 -19 -5t-26 -7q-15 -4 -32 -9v-428l89 -23q10 -3 10 -10q0 -2 -1 -9 t-5 -24q-3 -9 -15 -9h-272q-6 0 -6 5q0 2 1 8.5t5 27.5q1 8 15 13q6 1 18 5l26 8l31 8v353q-2 -4 -15 -40.5t-35 -92.5l-49 -123l-58 -135q-4 -8 -9.5 -15.5t-13.5 -10.5l-33 -12l-19 -8l-10 -3q-3 -1 -6 -1q-9 0 -13 9l-68 163l-54 135l-35 93q-13 36 -14 39v-351l85 -23 q9 -3 9 -10q0 -2 -1 -9t-5 -24q-2 -6 -4.5 -7.5t-7.5 -1.5h-236q-9 0 -9 8q0 4 1 9t4 25q1 8 14 12q6 2 17.5 5t23.5 7l30 9v428zM323 1319l-48 -4l-42 -4q-22 -2 -39 -4q-16 -20 -31 -48l-29 -52q-2 -5 -6.5 -9t-9.5 -4q-2 0 -10 1.5t-25 6.5q-10 2 -10 16q0 7 3 27.5 t8.5 45t12 49t13.5 40.5q4 9 19 9q3 0 21.5 -1.5t33.5 -3.5h407q21 2 33 3l16 1q6 0 8 1h1q10 0 13.5 -3.5t4.5 -9.5q2 -20 5 -46q4 -27 6 -52l4 -44q2 -19 2 -22q0 -10 -8 -12q-23 -5 -30.5 -6.5t-9.5 -1.5q-7 0 -13 10l-54 104q-17 1 -39.5 3.5t-42.5 4.5q-24 3 -49 5 v-441l102 -23q9 -3 9 -11q1 -3 -1 -9l-7 -25q-2 -6 -4.5 -7.5t-8.5 -1.5h-293q-8 0 -12.5 1.5t-4.5 7.5q0 2 1 8.5t5 25.5q1 10 13 13l86 22v440z" />
<glyph unicode="&#x2260;" horiz-adv-x="1024" d="M732 1414q6 14 20 14q2 0 6 -2l16 -5l32 -11l56 -21q11 -5 11 -17q0 -3 -1 -7.5t-2 -6.5l-571 -1617q-4 -10 -8.5 -13t-13.5 -3q-3 0 -9 1q-4 1 -16 5l-32 11l-50 18q-11 4 -13.5 7t-2.5 8q0 7 5 20zM168 654q-21 0 -21 21q0 1 1 5q0 4 1 12l3 24q2 16 6 44q4 32 37 32 h657q29 0 29 -23v-4q0 -2 -1.5 -8.5t-4 -19.5t-6.5 -36q-2 -10 -11 -20.5t-27 -12.5q-28 -3 -78.5 -5t-114 -4t-133 -2.5t-133.5 -1.5t-118 -1h-86zM168 360q-21 0 -21 21q0 1 1 5q0 4 1 12l3 24q2 16 6 44q4 32 37 32h657q29 0 29 -23v-3q0 -2 -1.5 -9t-3.5 -20l-7 -35 q-2 -10 -11 -21t-27 -13q-27 -3 -78.5 -5t-114.5 -4t-132.5 -2.5t-134 -1.5t-118.5 -1h-85z" />
<glyph unicode="&#xe000;" horiz-adv-x="950" d="M0 950h950v-950h-950v950z" />
<glyph unicode="&#xfb00;" horiz-adv-x="1448" d="M784 8q0 1 0.5 3t1.5 8.5t3.5 19.5t7.5 36q2 8 6.5 11.5t12.5 6.5l36 13l43 14l51 16v675l-154 47q-10 2 -10 10v2q1 2 2 9t3.5 20.5t7.5 36.5q3 14 21 14h130q0 136 21 234.5t67.5 162.5t121 94.5t181.5 30.5q106 0 165 -28q25 -11 45.5 -33.5t20.5 -54.5 q0 -23 -11 -45.5t-28 -40t-38 -28.5t-41 -11q-17 0 -34.5 5.5t-29.5 11.5l-32 163q-78 -11 -124 -54t-69.5 -106t-30 -141t-6.5 -160h297q14 0 14 -8q0 -3 -1.5 -10.5t-3 -16t-3 -16t-1.5 -9.5q-2 -8 -5 -12.5t-11 -7.5q-11 -4 -38 -11t-65 -15l-85 -16q-47 -8 -98 -15v-687 q7 -2 25.5 -5l43.5 -7l53 -10q27 -4 51.5 -8.5t42.5 -8.5t23 -6q12 -5 12 -14q0 -3 -1.5 -11.5t-8.5 -41.5q-3 -14 -21 -14h-542q-11 0 -14.5 1.5t-3.5 6.5zM60 8q0 1 0.5 3t1.5 8.5t3.5 19.5t7.5 36q2 8 6.5 11.5t12.5 6.5l36 13l43 14l51 16v675l-154 47q-10 2 -10 10v2 q1 2 2 9t3.5 20.5t7.5 36.5q3 14 21 14h130q0 136 21 234.5t67.5 162.5t121 94.5t181.5 30.5q106 0 165 -28q25 -11 45.5 -33.5t20.5 -54.5q0 -23 -11 -45.5t-28 -40t-38 -28.5t-41 -11q-17 0 -34.5 5.5t-29.5 11.5l-32 163q-78 -11 -124 -54t-69.5 -106t-30 -141t-6.5 -160 h297q14 0 14 -8q0 -3 -1.5 -10.5t-3 -16t-3 -16t-1.5 -9.5q-2 -8 -5 -12.5t-11 -7.5q-11 -4 -38 -11t-65 -15l-85 -16q-47 -8 -98 -15v-687q7 -2 25.5 -5l43.5 -7l53 -10q27 -4 51.5 -8.5t42.5 -8.5t23 -6q12 -5 12 -14q0 -3 -1.5 -11.5t-8.5 -41.5q-3 -14 -21 -14h-542 q-11 0 -14.5 1.5t-3.5 6.5z" />
<glyph unicode="&#xfb01;" horiz-adv-x="1314" d="M779 8q0 1 0.5 3t1.5 8l3 18q2 12 6 33q3 13 19 19q14 5 36 11l43 12l51 14v646q-26 27 -66 47.5t-78 27.5q-11 2 -11 9q0 1 0.5 5.5t5.5 27.5q3 11 16 15q4 2 21 7t42 11l55 14q31 8 63 14.5t63 10.5t57 4q11 0 11 -10v-829q10 -2 32 -8l44 -12l44 -12q21 -6 29 -9 q12 -5 12 -14q0 -1 -0.5 -3t-1.5 -8t-3 -17t-6 -29q-3 -14 -21 -14h-450q-11 0 -14.5 1.5t-3.5 6.5zM1104 1175q-8 -6 -24 -9q-11 -1 -24 -1h-11q-18 1 -37.5 3.5t-36 7t-29 10t-17.5 11.5q-7 9 -9 27q-2 14 -2 28v12q2 35 11 69.5t22 45.5q8 7 24 9q11 1 23 1h13 q18 -1 37 -3.5t35.5 -7t29.5 -10.5t19 -12q7 -8 9 -26q1 -12 1 -25v-13q-1 -18 -3.5 -36t-7 -34.5t-10.5 -28.5t-13 -18zM60 8q0 1 0.5 3t1.5 8.5t3.5 19.5t7.5 36q2 8 6.5 11.5t12.5 6.5l36 13l43 14l51 16v675l-154 47q-10 2 -10 10v2q1 2 2 9t3.5 20.5t7.5 36.5 q3 14 21 14h130q0 136 21 234.5t67.5 162.5t121 94.5t181.5 30.5q106 0 165 -28q25 -11 45.5 -33.5t20.5 -54.5q0 -23 -11 -45.5t-28 -40t-38 -28.5t-41 -11q-17 0 -34.5 5.5t-29.5 11.5l-32 163q-78 -11 -124 -54t-69.5 -106t-30 -141t-6.5 -160h297q14 0 14 -8 q0 -3 -1.5 -10.5t-3 -16t-3 -16t-1.5 -9.5q-2 -8 -5 -12.5t-11 -7.5q-11 -4 -38 -11t-65 -15l-85 -16q-47 -8 -98 -15v-687q7 -2 25.5 -5l43.5 -7l53 -10q27 -4 51.5 -8.5t42.5 -8.5t23 -6q12 -5 12 -14q0 -3 -1.5 -11.5t-8.5 -41.5q-3 -14 -21 -14h-542q-11 0 -14.5 1.5 t-3.5 6.5z" />
<glyph unicode="&#xfb02;" horiz-adv-x="1296" d="M918 1279q-26 28 -66 48t-78 27q-11 2 -11 9q0 1 0.5 5.5t5.5 27.5q3 11 16 15q5 2 38.5 11.5t79 20.5t95.5 20t88 9q11 0 11 -10v-1336q10 -2 33 -8l47 -11q25 -6 46.5 -12t29.5 -9q12 -5 12 -14q0 -2 -2 -11t-9 -47q-3 -14 -21 -14h-450q-11 0 -14.5 1.5t-3.5 6.5 q0 1 0.5 3t1.5 8.5t3 18.5l7 32q3 14 19 19q14 5 34 11l41 12l47 14v1153zM60 8q0 1 0.5 3t1.5 8.5t3.5 19.5t7.5 36q2 8 6.5 11.5t12.5 6.5l36 13l43 14l51 16v675l-154 47q-10 2 -10 10v2q1 2 2 9t3.5 20.5t7.5 36.5q3 14 21 14h130q0 136 21 234.5t67.5 162.5t121 94.5 t181.5 30.5q106 0 165 -28q25 -11 45.5 -33.5t20.5 -54.5q0 -23 -11 -45.5t-28 -40t-38 -28.5t-41 -11q-17 0 -34.5 5.5t-29.5 11.5l-32 163q-78 -11 -124 -54t-69.5 -106t-30 -141t-6.5 -160h297q14 0 14 -8q0 -3 -1.5 -10.5t-3 -16t-3 -16t-1.5 -9.5q-2 -8 -5 -12.5 t-11 -7.5q-11 -4 -38 -11t-65 -15l-85 -16q-47 -8 -98 -15v-687q7 -2 25.5 -5l43.5 -7l53 -10q27 -4 51.5 -8.5t42.5 -8.5t23 -6q12 -5 12 -14q0 -3 -1.5 -11.5t-8.5 -41.5q-3 -14 -21 -14h-542q-11 0 -14.5 1.5t-3.5 6.5z" />
<glyph unicode="&#xfb03;" horiz-adv-x="2038" d="M1503 8q0 1 0.5 3t1.5 8l3 18q2 12 6 33q3 13 19 19q14 5 36 11l43 12l51 14v646q-26 27 -66 47.5t-78 27.5q-11 2 -11 9q0 1 0.5 5.5t5.5 27.5q3 11 16 15q4 2 21 7t42 11l55 14q31 8 63 14.5t63 10.5t57 4q11 0 11 -10v-829q10 -2 32 -8l44 -12l44 -12q21 -6 29 -9 q12 -5 12 -14q0 -1 -0.5 -3t-1.5 -8t-3 -17t-6 -29q-3 -14 -21 -14h-450q-11 0 -14.5 1.5t-3.5 6.5zM1828 1175q-8 -6 -24 -9q-11 -1 -24 -1h-11q-18 1 -37.5 3.5t-36 7t-29 10t-17.5 11.5q-7 9 -9 27q-2 14 -2 28v12q2 35 11 69.5t22 45.5q8 7 24 9q11 1 23 1h13 q18 -1 37 -3.5t35.5 -7t29.5 -10.5t19 -12q7 -8 9 -26q1 -12 1 -25v-13q-1 -18 -3.5 -36t-7 -34.5t-10.5 -28.5t-13 -18zM784 8q0 1 0.5 3t1.5 8.5t3.5 19.5t7.5 36q2 8 6.5 11.5t12.5 6.5l36 13l43 14l51 16v675l-154 47q-10 2 -10 10v2q1 2 2 9t3.5 20.5t7.5 36.5 q3 14 21 14h130q0 136 21 234.5t67.5 162.5t121 94.5t181.5 30.5q106 0 165 -28q25 -11 45.5 -33.5t20.5 -54.5q0 -23 -11 -45.5t-28 -40t-38 -28.5t-41 -11q-17 0 -34.5 5.5t-29.5 11.5l-32 163q-78 -11 -124 -54t-69.5 -106t-30 -141t-6.5 -160h297q14 0 14 -8 q0 -3 -1.5 -10.5t-3 -16t-3 -16t-1.5 -9.5q-2 -8 -5 -12.5t-11 -7.5q-11 -4 -38 -11t-65 -15l-85 -16q-47 -8 -98 -15v-687q7 -2 25.5 -5l43.5 -7l53 -10q27 -4 51.5 -8.5t42.5 -8.5t23 -6q12 -5 12 -14q0 -3 -1.5 -11.5t-8.5 -41.5q-3 -14 -21 -14h-542q-11 0 -14.5 1.5 t-3.5 6.5zM60 8q0 1 0.5 3t1.5 8.5t3.5 19.5t7.5 36q2 8 6.5 11.5t12.5 6.5l36 13l43 14l51 16v675l-154 47q-10 2 -10 10v2q1 2 2 9t3.5 20.5t7.5 36.5q3 14 21 14h130q0 136 21 234.5t67.5 162.5t121 94.5t181.5 30.5q106 0 165 -28q25 -11 45.5 -33.5t20.5 -54.5 q0 -23 -11 -45.5t-28 -40t-38 -28.5t-41 -11q-17 0 -34.5 5.5t-29.5 11.5l-32 163q-78 -11 -124 -54t-69.5 -106t-30 -141t-6.5 -160h297q14 0 14 -8q0 -3 -1.5 -10.5t-3 -16t-3 -16t-1.5 -9.5q-2 -8 -5 -12.5t-11 -7.5q-11 -4 -38 -11t-65 -15l-85 -16q-47 -8 -98 -15v-687 q7 -2 25.5 -5l43.5 -7l53 -10q27 -4 51.5 -8.5t42.5 -8.5t23 -6q12 -5 12 -14q0 -3 -1.5 -11.5t-8.5 -41.5q-3 -14 -21 -14h-542q-11 0 -14.5 1.5t-3.5 6.5z" />
<glyph unicode="&#xfb04;" horiz-adv-x="2020" d="M1642 1279q-26 28 -66 48t-78 27q-11 2 -11 9q0 1 0.5 5.5t5.5 27.5q3 11 16 15q5 2 38.5 11.5t79 20.5t95.5 20t88 9q11 0 11 -10v-1336q10 -2 33 -8l47 -11q25 -6 46.5 -12t29.5 -9q12 -5 12 -14q0 -2 -2 -11t-9 -47q-3 -14 -21 -14h-450q-11 0 -14.5 1.5t-3.5 6.5 q0 1 0.5 3t1.5 8.5t3 18.5l7 32q3 14 19 19q14 5 34 11l41 12l47 14v1153zM784 8q0 1 0.5 3t1.5 8.5t3.5 19.5t7.5 36q2 8 6.5 11.5t12.5 6.5l36 13l43 14l51 16v675l-154 47q-10 2 -10 10v2q1 2 2 9t3.5 20.5t7.5 36.5q3 14 21 14h130q0 136 21 234.5t67.5 162.5t121 94.5 t181.5 30.5q106 0 165 -28q25 -11 45.5 -33.5t20.5 -54.5q0 -23 -11 -45.5t-28 -40t-38 -28.5t-41 -11q-17 0 -34.5 5.5t-29.5 11.5l-32 163q-78 -11 -124 -54t-69.5 -106t-30 -141t-6.5 -160h297q14 0 14 -8q0 -3 -1.5 -10.5t-3 -16t-3 -16t-1.5 -9.5q-2 -8 -5 -12.5 t-11 -7.5q-11 -4 -38 -11t-65 -15l-85 -16q-47 -8 -98 -15v-687q7 -2 25.5 -5l43.5 -7l53 -10q27 -4 51.5 -8.5t42.5 -8.5t23 -6q12 -5 12 -14q0 -3 -1.5 -11.5t-8.5 -41.5q-3 -14 -21 -14h-542q-11 0 -14.5 1.5t-3.5 6.5zM60 8q0 1 0.5 3t1.5 8.5t3.5 19.5t7.5 36 q2 8 6.5 11.5t12.5 6.5l36 13l43 14l51 16v675l-154 47q-10 2 -10 10v2q1 2 2 9t3.5 20.5t7.5 36.5q3 14 21 14h130q0 136 21 234.5t67.5 162.5t121 94.5t181.5 30.5q106 0 165 -28q25 -11 45.5 -33.5t20.5 -54.5q0 -23 -11 -45.5t-28 -40t-38 -28.5t-41 -11 q-17 0 -34.5 5.5t-29.5 11.5l-32 163q-78 -11 -124 -54t-69.5 -106t-30 -141t-6.5 -160h297q14 0 14 -8q0 -3 -1.5 -10.5t-3 -16t-3 -16t-1.5 -9.5q-2 -8 -5 -12.5t-11 -7.5q-11 -4 -38 -11t-65 -15l-85 -16q-47 -8 -98 -15v-687q7 -2 25.5 -5l43.5 -7l53 -10 q27 -4 51.5 -8.5t42.5 -8.5t23 -6q12 -5 12 -14q0 -3 -1.5 -11.5t-8.5 -41.5q-3 -14 -21 -14h-542q-11 0 -14.5 1.5t-3.5 6.5z" />
<glyph unicode="&#xfb06;" horiz-adv-x="1541" d="M854 857q-11 3 -11 13q0 1 0.5 3t1.5 9t3.5 19.5t7.5 34.5q3 14 19 14h132l20 208q1 13 13 17l72 29l40 16q13 6 17 7t6 1q11 0 11 -12v-266h302q13 0 13 -9v-3q0 -1 -1 -7t-3.5 -18t-6.5 -34q-2 -7 -5.5 -11t-14.5 -7l-32 -7q-23 -6 -59.5 -13t-85.5 -15t-107 -15v-444 q0 -41 5.5 -80.5t17 -73.5t29.5 -60t42 -40q16 -9 47 -9q26 0 57 5.5t59 11.5t48 11.5t23 5.5q7 0 10 -7l10 -26q3 -6 3 -8q0 -5 -9 -11q-21 -14 -54 -33.5t-70.5 -36.5t-75.5 -29t-68 -12q-59 0 -106 19t-79.5 60.5t-50 106t-17.5 155.5v495zM523 886q-30 -2 -63 -8.5 t-65.5 -16t-62 -23t-52.5 -30.5q-14 -10 -22 -27t-8 -43q0 -23 8.5 -42.5t22 -35.5t31 -28.5t35.5 -22.5q34 -18 72 -30l77 -24q38 -12 76.5 -26t73.5 -36q47 -29 76 -80t29 -125q0 -79 -28 -138t-76.5 -98t-114 -58t-139.5 -19q-67 0 -117 9t-87.5 23.5t-65 31.5t-49.5 34 q-3 3 -6.5 7t-3.5 11q0 12 4 39.5t10 59t13 59.5t12 40q6 13 17 13q1 0 5 -0.5t12 -2.5l23 -5l38 -10q8 -2 10.5 -6t4.5 -12l34 -178q36 0 78.5 3t84.5 9.5t80.5 18t65.5 29.5q20 13 28 33.5t8 43.5q0 38 -14.5 69.5t-52.5 56.5q-30 19 -64.5 32.5t-70.5 24.5l-70 24 q-35 12 -65 29q-69 38 -110 98t-41 145q0 71 31 122.5t83 84.5t118 48.5t137 15.5q59 0 107 -12t83 -32q12 -7 24 -16.5t22 -21.5t16.5 -26.5t6.5 -31.5q0 -23 -11 -44.5t-28 -38t-38 -26.5t-40 -10q-17 0 -33.5 4t-28.5 10z" />
<glyph unicode="&#xfb1d;" horiz-adv-x="619" d="M311 -314q-10 0 -24.5 10t-28 23.5t-23 28.5t-9.5 24t10 24t24 28.5t28.5 23.5t22.5 10q9 0 23.5 -10.5t28 -25t23.5 -29t10 -22.5q0 -9 -10 -23.5t-24 -28t-28.5 -23.5t-22.5 -10zM514 896q0 -38 -13.5 -95.5t-36 -121t-50.5 -125.5t-56 -108q-9 -17 -30 -11l-77 22 q-7 2 -9 8t0 13q13 40 25.5 84.5t22.5 89.5t17 88t11 81q5 42 3 73q-66 6 -113 13t-78 13q-36 7 -61 15q-17 5 -17 17q0 14 7.5 41.5t17.5 57.5t20 55.5t14 36.5q4 8 6.5 10t8.5 4q12 2 19.5 4t10.5 2q5 0 8 -8q8 -19 21 -47.5t35 -55.5l161 -7q66 -2 99.5 -42.5 t33.5 -106.5z" />
<glyph unicode="&#xfb1e;" horiz-adv-x="731" d="M715 1571q-9 -3 -97 -49l-260 -138l-346 183l17 14q9 0 91 -28l240 -85l82 32l82 32q101 40 170 49l13 -2z" />
<glyph unicode="&#xfb1f;" horiz-adv-x="1226" d="M1121 896q0 -38 -13.5 -95.5t-36 -121t-50.5 -125.5t-56 -108q-9 -17 -30 -11l-77 22q-7 2 -9 8t0 13q13 40 25.5 84.5t22.5 89.5t17 88t11 81q5 42 3 73q-66 6 -113 13t-78 13q-36 7 -61 15q-17 5 -17 17q0 14 7.5 41.5t17.5 57.5t20 55.5t14 36.5q4 8 6.5 10t8.5 4 q12 2 19.5 4t10.5 2q5 0 8 -8q8 -19 21 -47.5t35 -55.5l161 -7q66 -2 99.5 -42.5t33.5 -106.5zM514 896q0 -38 -13.5 -95.5t-36 -121t-50.5 -125.5t-56 -108q-9 -17 -30 -11l-77 22q-7 2 -9 8t0 13q13 40 25.5 84.5t22.5 89.5t17 88t11 81q5 42 3 73q-66 6 -113 13t-78 13 q-36 7 -61 15q-17 5 -17 17q0 14 7.5 41.5t17.5 57.5t20 55.5t14 36.5q4 8 6.5 10t8.5 4q12 2 19.5 4t10.5 2q5 0 8 -8q8 -19 21 -47.5t35 -55.5l161 -7q66 -2 99.5 -42.5t33.5 -106.5zM155 -260q-81 -4 -150 -7l-59 -2q-30 -1 -54.5 -2t-43.5 -1.5t-28 -0.5t-14 5.5 t-3 13.5l18 66q5 14 10.5 17.5t17.5 4.5h325q14 0 20 -6t1 -23l-13 -46q-3 -10 -8.5 -14t-18.5 -5z" />
<glyph unicode="&#xfb20;" horiz-adv-x="1129" d="M1022 1033l-25 -261l-10 -101l-9 -93l-8 -72q-4 -30 -6 -43q-26 -179 -129 -291.5t-299 -162.5q-95 -24 -197 -37.5t-219 -20.5q-13 0 -19 14q-4 10 -8.5 32t-9.5 50q-3 14 14 17l87 14q48 8 98 17.5t96.5 21t80.5 24.5q-46 58 -81 116t-48 110l-129 541l-113 25 q-11 3 -14 7t-3 12q0 13 7 37.5t16 50.5l18 52q8 25 12 39q5 15 8 19t9 6q18 3 23.5 4.5t8.5 1.5q4 0 7 -8q8 -16 21.5 -45.5t34.5 -56.5h105q14 0 20.5 -6.5t10.5 -20.5l139 -694q8 -40 16.5 -70t16.5 -50q9 -24 18 -42q54 20 91 44t61.5 53.5t38.5 65t20 77.5q2 7 6.5 43 l10.5 87l11 109l11 112q5 52 8 92l4 54q-17 -3 -36.5 -3.5t-36.5 -0.5h-49q-9 0 -14 5t-3 16l18 107q2 10 10.5 16t17.5 6h272q8 0 14.5 -5.5t4.5 -13.5z" />
<glyph unicode="&#xfb21;" horiz-adv-x="1918" d="M1846 1039q0 -4 -4.5 -31t-18.5 -94q-2 -8 -6 -10t-11 -2h-51l-90 10q-23 -37 -52 -95q-29 -57 -61 -127l-62 -146q-32 -76 -59 -148l416 -269q11 -7 12 -14.5t-7 -21.5l-18 -29l-18 -24l-18 -25l-21 -30q-11 -15 -22.5 -14.5t-26.5 11.5l-87 63l-107 73l-118 78l-120 77 l-113 72l-96 61l-139 85l-156 91l-162 89l-157 84l-56 -90q-32 -52 -59.5 -124.5t-43 -167.5t-4.5 -218q16 -2 47 -5t63.5 -7t59 -8t35.5 -7q16 -4 16 -18q1 -2 -1 -13l-4 -25q-2 -14 -5 -30t-7 -27q-2 -7 -8.5 -10t-12.5 -3h-326q-17 0 -20 16q-15 86 -13 165.5t16 152 t38.5 136.5t55 120t65 102.5t68.5 83.5q-27 28 -52 48.5t-51 37.5q-26 18 -56 34l-65 35q-8 5 -6 16q1 22 7 52.5t12.5 60t12.5 52.5t9 29q5 11 15 14t18 5t10 2q9 0 14 -8q14 -23 33.5 -52t39.5 -46l116 -68l155 -90l178 -102l183 -106l168 -98l137 -82l101 -68 q9 87 28.5 183.5t45 190.5t54.5 179t58 150q4 10 10 11q11 3 20 4.5t12 1.5q5 0 7 -7q3 -12 18 -42t38 -61h189q13 0 10 -13z" />
<glyph unicode="&#xfb22;" horiz-adv-x="1636" d="M1577 1052q8 0 10.5 -2.5t2.5 -9.5q0 -5 -4.5 -32t-16.5 -87q-5 -19 -24 -19h-165v-877q0 -17 -18 -20q-53 -6 -84 -10t-48 -5.5t-23.5 -2t-9.5 -0.5q-13 0 -13 14q0 15 0.5 52t1 88t1.5 113l2 130l2 133q1 67 3 129q0 25 8 59.5t21.5 70.5t30.5 69.5t36 56.5h-1046 l-189 33q-13 2 -13 17q0 13 7 38q7 26 17 54l19 56l16 45q2 5 4.5 7t8.5 4q15 4 21 5t10 1t7 -8q7 -17 21.5 -46t36.5 -56h1367z" />
<glyph unicode="&#xfb23;" horiz-adv-x="1962" d="M1847 26q0 -18 -18 -21l-83 -10q-32 -4 -49 -5.5t-24 -2t-9 -0.5q-10 0 -10 10v725q0 49 -10.5 83t-28.5 55.5t-43 31.5t-54 10h-1204l-182 31q-11 2 -14.5 6.5t-3.5 12.5q0 14 12.5 62.5t43.5 129.5q3 10 13 12q17 4 23.5 5t8.5 1q7 0 8 -7q5 -19 20 -47.5t36 -55.5 h1225q77 0 140.5 -13.5t108.5 -50.5t69.5 -103t24.5 -172v-687zM359 27q0 -19 -19 -22l-83 -9l-49 -6q-18 -2 -24 -2.5t-9 -0.5q-11 0 -11 12v73q0 48 2 104l4 118q2 62 3.5 119.5t3.5 106.5t5 80q1 20 18 22q69 11 103 15.5t41 4.5q15 0 15 -19v-596z" />
<glyph unicode="&#xfb24;" horiz-adv-x="1856" d="M1736 434q1 -96 -25.5 -176t-76 -137.5t-121 -89t-160.5 -31.5h-1252q-23 0 -23 16q0 5 3.5 31t15.5 77q5 15 24 18q11 0 67.5 1t140.5 2t188 2l211 2l210 2q102 1 183.5 2t132.5 1.5t56 0.5q118 2 175.5 74t57.5 197v330q0 81 -31 113.5t-80 32.5h-1157l-177 31 q-12 2 -15 6.5t-3 12.5q0 13 7 39t16 54.5t19 54.5l14 42q3 8 5.5 10t8.5 4q17 4 23 5t8 1q8 0 10 -7q5 -17 19 -46.5t36 -56.5h1209q65 0 117 -15.5t88.5 -51t56 -93.5t19.5 -144v-314z" />
<glyph unicode="&#xfb25;" horiz-adv-x="1789" d="M1674 1052q20 0 24 -14q11 -42 15.5 -66.5t4.5 -33.5q0 -8 -7 -19q-5 -7 -27 -31l-57 -60l-81 -80l-98 -98l-109 -106l-115 -112l-456 -439q-14 -16 -38 -8q-18 4 -38 11l-40 14q-20 6 -40 14l-36 14q-7 3 -6.5 8t5.5 10l917 859q-32 -3 -104 -5t-174 -3.5t-230 -2 t-272 -0.5l-298 -2h-312q-20 0 -20 23v422q-20 12 -47 21.5t-53 11.5q-8 1 -8 9q0 5 1.5 17.5t2.5 17.5q1 10 17 15q37 13 75.5 24.5t72.5 19.5t58.5 13t32.5 5t11 -10q1 -7 4 -22t6 -32.5t5.5 -35t2.5 -28.5v-321h1411z" />
<glyph unicode="&#xfb26;" horiz-adv-x="1950" d="M1833 24q0 -11 -5.5 -17.5t-17.5 -6.5h-1643q-9 0 -14 5.5t-5 11.5v45v78q2 46 2 102v112l2 114q0 56 1 102q0 33 13.5 80t34.5 95t46.5 90.5t50.5 66.5l-181 31q-11 2 -14.5 6.5t-3.5 12.5q0 13 7 40q6 26 16 55l20 56q10 27 14 43q2 5 4 6.5t8 3.5q17 4 23.5 5t8.5 1 q7 0 8 -7q5 -18 20 -47t36 -56h1248q78 0 138 -18t100.5 -57t61.5 -100.5t21 -148.5v-704zM1639 743q0 43 -9.5 73.5t-26.5 49.5t-40 27.5t-50 8.5h-1121q-1 -3 -9 -30.5t-17.5 -68t-17 -86.5t-8.5 -85v-485q23 1 86.5 1.5t152 1t194.5 0.5l215 2q110 0 216.5 1t195 1.5 t152 1t87.5 0.5v587z" />
<glyph unicode="&#xfb27;" horiz-adv-x="1658" d="M1541 24q0 -16 -18 -19q-47 -5 -77 -9l-48 -6q-18 -2 -26.5 -2.5t-12.5 -0.5q-11 0 -11 10v725q0 50 -11 84.5t-30 55.5t-43.5 30.5t-52.5 9.5h-967l-181 31q-12 2 -15 6.5t-3 11.5q0 17 7.5 47t17.5 60l18 54q8 24 11 28q5 8 7 10.5t8 4.5q13 4 21.5 5.5t11.5 1.5 q5 0 8 -8q5 -14 19 -44t37 -58h985q79 0 143 -13.5t109 -51t69 -103.5t24 -170v-690z" />
<glyph unicode="&#xfb28;" horiz-adv-x="2013" d="M1893 26q0 -8 -3.5 -13.5t-14.5 -7.5q-45 -5 -76 -9l-50 -6q-19 -2 -28 -2.5t-11 -0.5q-10 0 -10 11v734q0 47 -10.5 79.5t-29 52.5t-43.5 29t-54 9h-1139q-9 -49 -8 -122.5t6 -160.5q5 -75 12 -151t14.5 -141t14 -113t10.5 -67q1 -8 0 -16.5t-3 -16.5q-5 -23 -10.5 -46 t-12.5 -49q-4 -19 -27 -19h-386q-10 0 -13 3t-3 11q0 3 1.5 13.5t4 24.5t6 30t7.5 31q2 8 6 11.5t15 5.5l44 6q23 3 49.5 5.5t58.5 4.5l71 6q-8 51 -16 109.5t-14.5 119.5t-10 122t-2.5 117q0 28 6.5 63.5t19 73t31 75t43.5 70.5l-214 31q-13 2 -16.5 6.5t-3.5 12.5 q0 13 8 41t18 58l20 57q10 28 15 40q4 7 10 8q17 4 23 5t9 1q5 0 7 -7l22 -47q14 -29 34 -56h1276q78 0 142 -12.5t109.5 -49t70.5 -103t25 -173.5v-688z" />
<glyph unicode="&#xfb29;" horiz-adv-x="1077" d="M195 464q-18 0 -18 20q1 3 1 8l1 16q1 10 3 28l5 44q2 18 9.5 23.5t24.5 5.5h234l2 238q0 14 5 19t13 7q37 11 65.5 15t36.5 4q11 0 15.5 -6t4.5 -22l-1 -255h271q13 0 18.5 -4t5.5 -17q0 -5 -3 -21t-10 -63q-3 -20 -31 -23z" />
<glyph unicode="&#xfb2a;" horiz-adv-x="1449" d="M1357 1033q0 -10 -1.5 -42.5t-5 -78.5t-9 -102.5t-13.5 -113.5t-18 -111.5t-22 -97.5q-31 -111 -88.5 -202.5t-157 -157.5t-247.5 -102t-359 -36q-14 0 -19 3t-12 13q-36 56 -65.5 126t-52.5 148.5t-41 161.5t-31 165t-21.5 159t-13.5 143q-29 6 -55 12.5t-44 12.5 q-11 4 -14.5 7.5t-3.5 11.5q0 13 6.5 37t15 50.5t17.5 51.5l14 40q5 15 8.5 19t10.5 6q11 3 19 4.5t10 1.5q6 0 9 -8q5 -17 20 -46t35 -56h116q23 0 23 -22q0 -90 1 -177t8 -174.5t22 -176t42 -180.5q69 46 113.5 93t70.5 105t36 131.5t9 171.5q-1 20 -1.5 40t-2.5 39h-107 q-25 0 -20 27l17 101q5 22 27 22h252q8 0 12.5 -5t5.5 -13q1 -89 -3 -170t-12.5 -150t-22 -123t-30.5 -88q-25 -49 -57.5 -87.5t-72.5 -70t-88.5 -56t-105.5 -45.5q10 -34 22 -62l26 -64q67 2 142.5 13t148 36.5t136 68t106.5 105.5q21 31 39 80t32 105.5t24 116t17 111.5 t10.5 92.5t3.5 59.5q-16 -3 -34 -3.5t-34 -0.5h-51q-8 0 -14 6t-4 17l15 100q2 12 10.5 19.5t20.5 7.5h262q8 0 14 -5.5t5 -13.5zM1231 1166q-10 0 -24.5 10t-28 23.5t-23 28.5t-9.5 24t10 24t24 28.5t28.5 23.5t22.5 10q9 0 23.5 -10.5t28 -25t23.5 -29t10 -22.5 q0 -9 -10 -23.5t-24 -28t-28.5 -23.5t-22.5 -10z" />
<glyph unicode="&#xfb2b;" horiz-adv-x="1449" d="M1357 1033q0 -10 -1.5 -42.5t-5 -78.5t-9 -102.5t-13.5 -113.5t-18 -111.5t-22 -97.5q-31 -111 -88.5 -202.5t-157 -157.5t-247.5 -102t-359 -36q-14 0 -19 3t-12 13q-36 56 -65.5 126t-52.5 148.5t-41 161.5t-31 165t-21.5 159t-13.5 143q-29 6 -55 12.5t-44 12.5 q-11 4 -14.5 7.5t-3.5 11.5q0 13 6.5 37t15 50.5t17.5 51.5l14 40q5 15 8.5 19t10.5 6q11 3 19 4.5t10 1.5q6 0 9 -8q5 -17 20 -46t35 -56h116q23 0 23 -22q0 -90 1 -177t8 -174.5t22 -176t42 -180.5q69 46 113.5 93t70.5 105t36 131.5t9 171.5q-1 20 -1.5 40t-2.5 39h-107 q-25 0 -20 27l17 101q5 22 27 22h252q8 0 12.5 -5t5.5 -13q1 -89 -3 -170t-12.5 -150t-22 -123t-30.5 -88q-25 -49 -57.5 -87.5t-72.5 -70t-88.5 -56t-105.5 -45.5q10 -34 22 -62l26 -64q67 2 142.5 13t148 36.5t136 68t106.5 105.5q21 31 39 80t32 105.5t24 116t17 111.5 t10.5 92.5t3.5 59.5q-16 -3 -34 -3.5t-34 -0.5h-51q-8 0 -14 6t-4 17l15 100q2 12 10.5 19.5t20.5 7.5h262q8 0 14 -5.5t5 -13.5zM300 1166q-10 0 -24.5 10t-28 23.5t-23 28.5t-9.5 24t10 24t24 28.5t28.5 23.5t22.5 10q9 0 23.5 -10.5t28 -25t23.5 -29t10 -22.5 q0 -9 -10 -23.5t-24 -28t-28.5 -23.5t-22.5 -10z" />
<glyph unicode="&#xfb2c;" horiz-adv-x="1449" d="M1357 1033q0 -10 -1.5 -42.5t-5 -78.5t-9 -102.5t-13.5 -113.5t-18 -111.5t-22 -97.5q-31 -111 -88.5 -202.5t-157 -157.5t-247.5 -102t-359 -36q-14 0 -19 3t-12 13q-36 56 -65.5 126t-52.5 148.5t-41 161.5t-31 165t-21.5 159t-13.5 143q-29 6 -55 12.5t-44 12.5 q-11 4 -14.5 7.5t-3.5 11.5q0 13 6.5 37t15 50.5t17.5 51.5l14 40q5 15 8.5 19t10.5 6q11 3 19 4.5t10 1.5q6 0 9 -8q5 -17 20 -46t35 -56h116q23 0 23 -22q0 -90 1 -177t8 -174.5t22 -176t42 -180.5q69 46 113.5 93t70.5 105t36 131.5t9 171.5q-1 20 -1.5 40t-2.5 39h-107 q-25 0 -20 27l17 101q5 22 27 22h252q8 0 12.5 -5t5.5 -13q1 -89 -3 -170t-12.5 -150t-22 -123t-30.5 -88q-25 -49 -57.5 -87.5t-72.5 -70t-88.5 -56t-105.5 -45.5q10 -34 22 -62l26 -64q67 2 142.5 13t148 36.5t136 68t106.5 105.5q21 31 39 80t32 105.5t24 116t17 111.5 t10.5 92.5t3.5 59.5q-16 -3 -34 -3.5t-34 -0.5h-51q-8 0 -14 6t-4 17l15 100q2 12 10.5 19.5t20.5 7.5h262q8 0 14 -5.5t5 -13.5zM938 420q-10 0 -24.5 10t-28 23.5t-23 28.5t-9.5 24t10 24t24 28.5t28.5 23.5t22.5 10q9 0 23.5 -10.5t28 -25t23.5 -29t10 -22.5 q0 -9 -10 -23.5t-24 -28t-28.5 -23.5t-22.5 -10zM1231 1166q-10 0 -24.5 10t-28 23.5t-23 28.5t-9.5 24t10 24t24 28.5t28.5 23.5t22.5 10q9 0 23.5 -10.5t28 -25t23.5 -29t10 -22.5q0 -9 -10 -23.5t-24 -28t-28.5 -23.5t-22.5 -10z" />
<glyph unicode="&#xfb2d;" horiz-adv-x="1449" d="M1357 1033q0 -10 -1.5 -42.5t-5 -78.5t-9 -102.5t-13.5 -113.5t-18 -111.5t-22 -97.5q-31 -111 -88.5 -202.5t-157 -157.5t-247.5 -102t-359 -36q-14 0 -19 3t-12 13q-36 56 -65.5 126t-52.5 148.5t-41 161.5t-31 165t-21.5 159t-13.5 143q-29 6 -55 12.5t-44 12.5 q-11 4 -14.5 7.5t-3.5 11.5q0 13 6.5 37t15 50.5t17.5 51.5l14 40q5 15 8.5 19t10.5 6q11 3 19 4.5t10 1.5q6 0 9 -8q5 -17 20 -46t35 -56h116q23 0 23 -22q0 -90 1 -177t8 -174.5t22 -176t42 -180.5q69 46 113.5 93t70.5 105t36 131.5t9 171.5q-1 20 -1.5 40t-2.5 39h-107 q-25 0 -20 27l17 101q5 22 27 22h252q8 0 12.5 -5t5.5 -13q1 -89 -3 -170t-12.5 -150t-22 -123t-30.5 -88q-25 -49 -57.5 -87.5t-72.5 -70t-88.5 -56t-105.5 -45.5q10 -34 22 -62l26 -64q67 2 142.5 13t148 36.5t136 68t106.5 105.5q21 31 39 80t32 105.5t24 116t17 111.5 t10.5 92.5t3.5 59.5q-16 -3 -34 -3.5t-34 -0.5h-51q-8 0 -14 6t-4 17l15 100q2 12 10.5 19.5t20.5 7.5h262q8 0 14 -5.5t5 -13.5zM300 1166q-10 0 -24.5 10t-28 23.5t-23 28.5t-9.5 24t10 24t24 28.5t28.5 23.5t22.5 10q9 0 23.5 -10.5t28 -25t23.5 -29t10 -22.5 q0 -9 -10 -23.5t-24 -28t-28.5 -23.5t-22.5 -10zM938 420q-10 0 -24.5 10t-28 23.5t-23 28.5t-9.5 24t10 24t24 28.5t28.5 23.5t22.5 10q9 0 23.5 -10.5t28 -25t23.5 -29t10 -22.5q0 -9 -10 -23.5t-24 -28t-28.5 -23.5t-22.5 -10z" />
<glyph unicode="&#xfb2e;" horiz-adv-x="1221" d="M1164 1037q0 -1 -2.5 -15t-5.5 -33t-7 -39t-7 -32q-5 -16 -18 -16h-51l-60 10q-21 -35 -49 -90l-58 -115l-58 -117q-28 -56 -50 -93l97 -121l97 -127l105 -139q5 -8 5.5 -14t-7.5 -16q-34 -46 -66 -72l-45 -37q-9 -7 -18 3l-142 206q-68 94 -137.5 180.5t-145.5 172 t-169 180.5q-10 -29 -22.5 -69t-23.5 -93.5t-17.5 -121.5t-4.5 -152q1 -56 9 -124q14 -2 35 -5.5t42 -7.5t39 -8t26 -6q15 -5 15 -17q0 -2 -1 -13.5t-3.5 -26t-5.5 -30t-6 -26.5q-2 -7 -9 -10t-13 -3h-267q-17 0 -20 16q-8 42 -12 83.5t-4 83.5q0 88 14.5 173t38 159.5 t52.5 134.5t58 98q0 9 -13.5 35t-33.5 57.5t-42.5 62.5t-38.5 50q-5 5 -5 16q1 15 9 42t18 54l18 49q8 22 11 25q3 9 6 11.5t8 4.5q24 7 31 7q5 0 9 -9q10 -31 23 -64t29 -52l59 -67l73 -80l81 -88l80 -90l73 -82l58 -70q9 67 25.5 143.5t36 154t41 150.5t42.5 133 q3 8 5.5 10.5t7.5 4.5q17 3 23 4.5t9 1.5q4 0 7 -8q3 -11 17.5 -41t37.5 -61h155q7 0 10.5 -4.5t1.5 -10.5zM755 -260q-81 -4 -150 -7l-59 -2q-30 -1 -54.5 -2t-43.5 -1.5t-28 -0.5t-14 5.5t-3 13.5l18 66q5 14 10.5 17.5t17.5 4.5h325q14 0 20 -6t1 -23l-13 -46 q-3 -10 -8.5 -14t-18.5 -5z" />
<glyph unicode="&#xfb2f;" horiz-adv-x="1221" d="M1164 1037q0 -1 -2.5 -15t-5.5 -33t-7 -39t-7 -32q-5 -16 -18 -16h-51l-60 10q-21 -35 -49 -90l-58 -115l-58 -117q-28 -56 -50 -93l97 -121l97 -127l105 -139q5 -8 5.5 -14t-7.5 -16q-34 -46 -66 -72l-45 -37q-9 -7 -18 3l-142 206q-68 94 -137.5 180.5t-145.5 172 t-169 180.5q-10 -29 -22.5 -69t-23.5 -93.5t-17.5 -121.5t-4.5 -152q1 -56 9 -124q14 -2 35 -5.5t42 -7.5t39 -8t26 -6q15 -5 15 -17q0 -2 -1 -13.5t-3.5 -26t-5.5 -30t-6 -26.5q-2 -7 -9 -10t-13 -3h-267q-17 0 -20 16q-8 42 -12 83.5t-4 83.5q0 88 14.5 173t38 159.5 t52.5 134.5t58 98q0 9 -13.5 35t-33.5 57.5t-42.5 62.5t-38.5 50q-5 5 -5 16q1 15 9 42t18 54l18 49q8 22 11 25q3 9 6 11.5t8 4.5q24 7 31 7q5 0 9 -9q10 -31 23 -64t29 -52l59 -67l73 -80l81 -88l80 -90l73 -82l58 -70q9 67 25.5 143.5t36 154t41 150.5t42.5 133 q3 8 5.5 10.5t7.5 4.5q17 3 23 4.5t9 1.5q4 0 7 -8q3 -11 17.5 -41t37.5 -61h155q7 0 10.5 -4.5t1.5 -10.5zM643 -266l18 -93q3 -18 6.5 -35.5t6 -32.5t4.5 -25t2 -13q0 -8 -9 -19t-21 -21t-24.5 -17.5t-19.5 -7.5q-8 0 -20.5 7t-25 17t-21.5 20.5t-9 16.5q1 4 5 27l10 54 l11 62q6 32 9 58q-43 -2 -82 -3t-74 -1q-17 0 -17 10q0 2 1 6q0 4 2 12l7 22l11 39q3 11 8 13.5t14 1.5h370q14 0 14 -7q0 -8 -4.5 -25t-13.5 -47q-2 -7 -6.5 -8.5t-9.5 -2.5z" />
<glyph unicode="&#xfb30;" horiz-adv-x="1221" d="M1164 1037q0 -1 -2.5 -15t-5.5 -33t-7 -39t-7 -32q-5 -16 -18 -16h-51l-60 10q-21 -35 -49 -90l-58 -115l-58 -117q-28 -56 -50 -93l97 -121l97 -127l105 -139q5 -8 5.5 -14t-7.5 -16q-34 -46 -66 -72l-45 -37q-9 -7 -18 3l-142 206q-68 94 -137.5 180.5t-145.5 172 t-169 180.5q-10 -29 -22.5 -69t-23.5 -93.5t-17.5 -121.5t-4.5 -152q1 -56 9 -124q14 -2 35 -5.5t42 -7.5t39 -8t26 -6q15 -5 15 -17q0 -2 -1 -13.5t-3.5 -26t-5.5 -30t-6 -26.5q-2 -7 -9 -10t-13 -3h-267q-17 0 -20 16q-8 42 -12 83.5t-4 83.5q0 88 14.5 173t38 159.5 t52.5 134.5t58 98q0 9 -13.5 35t-33.5 57.5t-42.5 62.5t-38.5 50q-5 5 -5 16q1 15 9 42t18 54l18 49q8 22 11 25q3 9 6 11.5t8 4.5q24 7 31 7q5 0 9 -9q10 -31 23 -64t29 -52l59 -67l73 -80l81 -88l80 -90l73 -82l58 -70q9 67 25.5 143.5t36 154t41 150.5t42.5 133 q3 8 5.5 10.5t7.5 4.5q17 3 23 4.5t9 1.5q4 0 7 -8q3 -11 17.5 -41t37.5 -61h155q7 0 10.5 -4.5t1.5 -10.5zM610 -312q-10 0 -24.5 10t-28 23.5t-23 28t-9.5 24.5q0 9 10 23.5t24 28t28.5 23.5t22.5 10q9 0 23.5 -10.5t28 -25t23.5 -29t10 -22.5q0 -9 -10 -23.5t-24 -28 t-28.5 -23t-22.5 -9.5z" />
<glyph unicode="&#xfb31;" horiz-adv-x="1019" d="M1008 148q0 -5 -5 -35.5t-18 -94.5q-2 -11 -7.5 -14.5t-15.5 -3.5h-881q-19 0 -19 14q0 5 3.5 30.5t12.5 73.5q4 20 27 22q13 1 40 2.5l61 3.5q35 0 74 2l76 4q37 2 69.5 2h54.5q57 0 121 1t118 1q-18 20 -33 45.5t-26.5 54t-18 58t-6.5 58.5v350q0 49 -10.5 83t-29 55.5 t-43.5 31.5t-55 10h-228l-178 31q-11 2 -14 6.5t-3 12.5q1 15 8.5 42t17.5 56l18 55q9 26 14 39q2 6 4.5 8t8.5 4q14 4 21.5 5t9.5 1q7 0 8 -8q5 -17 20 -46t35 -56h245q104 0 170.5 -21.5t105 -63.5t53.5 -105.5t15 -147.5v-171v-71q0 -36 0.5 -71t0.5 -65v-53 q0 -42 10 -76t21 -48h135q13 0 13 -11zM354 437q-10 0 -24.5 10t-28 23.5t-23 28.5t-9.5 24t10 24t24 28.5t28.5 23.5t22.5 10q9 0 23.5 -10.5t28 -25t23.5 -29t10 -22.5q0 -9 -10 -23.5t-24 -28t-28.5 -23.5t-22.5 -10z" />
<glyph unicode="&#xfb32;" horiz-adv-x="752" d="M222 437q-10 0 -24.5 10t-28 23.5t-23 28.5t-9.5 24t10 24t24 28.5t28.5 23.5t22.5 10q9 0 23.5 -10.5t28 -25t23.5 -29t10 -22.5q0 -9 -10 -23.5t-24 -28t-28.5 -23.5t-22.5 -10zM738 46q6 -18 -12 -24l-75 -19q-29 -7 -46 -10.5t-24.5 -4.5t-10.5 -1q-10 0 -12 11 l-33 122l-31 110q-14 50 -26 88t-19 56q-14 -42 -34 -96t-41.5 -106t-42.5 -94t-37 -61q-8 -11 -15.5 -14t-19.5 -3h-201q-20 0 -18 18l17 112q4 18 27 23l30 7q16 4 32.5 7.5t30.5 7.5t22 7q16 7 38 28t45.5 49.5t47 62t42.5 66.5t30.5 63t12.5 51l-6 100l-5 90 q-2 41 -4 69.5t-2 36.5q-3 54 -19 76.5t-55 24.5l-72 1l-130 30q-11 2 -15 6.5t-4 11.5q0 10 7 36q7 28 17 58l19 58q9 28 14 41q4 8 6 11t7 4q11 3 20 4.5t13 1.5q5 0 7 -8q6 -17 20 -46t35 -56h103q43 0 80.5 -12t65.5 -38.5t45.5 -68t21.5 -99.5l38 -459z" />
<glyph unicode="&#xfb33;" horiz-adv-x="978" d="M919 1052q13 0 13 -12q0 -5 -4.5 -32t-17.5 -87q-4 -19 -23 -19h-166v-877q0 -17 -18 -20q-52 -6 -83 -10t-48.5 -5.5t-24 -2t-9.5 -0.5q-12 0 -12 14q0 15 0.5 51.5t1 87t1 111.5t1.5 127t2.5 133.5t2.5 129.5q1 26 8.5 59.5t20.5 68.5t30.5 69.5t37.5 63.5h-388 l-189 33q-13 2 -13 17q0 13 6 38t16 53l20 55l17 47q2 5 4.5 7t8.5 4q15 4 21 5t10 1t7 -8q7 -17 21.5 -46t36.5 -56h709zM314 437q-10 0 -24.5 10t-28 23.5t-23 28.5t-9.5 24t10 24t24 28.5t28.5 23.5t22.5 10q9 0 23.5 -10.5t28 -25t23.5 -29t10 -22.5q0 -9 -10 -23.5 t-24 -28t-28.5 -23.5t-22.5 -10z" />
<glyph unicode="&#xfb34;" horiz-adv-x="1135" d="M1020 26q0 -18 -18 -21l-82 -10q-32 -4 -49.5 -5.5t-24.5 -2t-9 -0.5q-10 0 -10 10v725q0 49 -10.5 83t-28.5 55.5t-43 31.5t-54 10h-377l-182 31q-11 2 -14.5 6.5t-3.5 12.5q0 14 12.5 62.5t43.5 129.5q3 10 13 12q17 4 23.5 5t8.5 1q7 0 8 -7q5 -19 20 -47.5t36 -55.5 h398q77 0 140.5 -13.5t108.5 -50.5t69.5 -103t24.5 -172v-687zM357 27q0 -19 -19 -22l-82 -9l-48 -6q-17 -2 -23.5 -2.5t-9.5 -0.5q-11 0 -11 12v75t2 106l4 122q2 64 3.5 123t3.5 109t5 81q1 20 18 23l59 8l40 6q16 2 25 3.5t15 1.5q15 0 15 -19zM578 437q-10 0 -24.5 10 t-28 23.5t-23 28.5t-9.5 24t10 24t24 28.5t28.5 23.5t22.5 10q9 0 23.5 -10.5t28 -25t23.5 -29t10 -22.5q0 -9 -10 -23.5t-24 -28t-28.5 -23.5t-22.5 -10z" />
<glyph unicode="&#xfb35;" horiz-adv-x="602" d="M480 24q0 -16 -19 -19l-82 -9l-46 -6q-16 -2 -23 -2.5t-10 -0.5q-12 0 -12 14v891l-193 42q-20 4 -20 18q0 13 7 38.5t16.5 54t19.5 55t15 41.5q6 13 14 15q4 1 16 3.5t13 2.5q6 1 9 -8l22 -46q14 -30 36 -56q28 -7 54 -12l48 -10q24 -5 43 -10q20 -4 37 -28t29 -63 t19 -91t7 -112v-702zM126 437q-10 0 -24.5 10t-28 23.5t-23 28.5t-9.5 24t10 24t24 28.5t28.5 23.5t22.5 10q9 0 23.5 -10.5t28 -25t23.5 -29t10 -22.5q0 -9 -10 -23.5t-24 -28t-28.5 -23.5t-22.5 -10z" />
<glyph unicode="&#xfb36;" horiz-adv-x="762" d="M703 1040q0 -5 -4.5 -32t-17.5 -85q-5 -21 -24 -21h-208q-3 -10 -4 -47t0 -83t3 -93t5 -77l50 -575q2 -18 -15 -21q-51 -6 -82 -10t-48.5 -6t-24.5 -2.5t-9 -0.5q-12 0 -13 12q-3 20 -7 63q-5 42 -9 96l-8 114q-4 60 -8 114t-6.5 96.5t-2.5 62.5q1 37 7 81t16.5 90 t26.5 92.5t38 89.5l-255 36q-14 3 -14 18q0 13 6.5 37.5t15 52.5t18.5 54l15 45q4 8 6.5 10.5t7.5 4.5q13 4 21.5 5t10.5 1q7 0 8 -7q7 -19 21 -47.5t35 -55.5h435q14 0 14 -12zM124 437q-10 0 -24.5 10t-28 23.5t-23 28.5t-9.5 24t10 24t24 28.5t28.5 23.5t22.5 10 q9 0 23.5 -10.5t28 -25t23.5 -29t10 -22.5q0 -9 -10 -23.5t-24 -28t-28.5 -23.5t-22.5 -10z" />
<glyph unicode="&#xfb38;" horiz-adv-x="1227" d="M1132 795q-6 -103 -22.5 -214t-42.5 -223q-17 -75 -58 -137.5t-98 -107.5q-50 -39 -114 -64t-140 -40t-162.5 -22t-180.5 -10q-9 0 -13.5 3.5t-6.5 8.5q-8 27 -21 75l-27 108l-30 122q-16 64 -28 121t-19.5 101t-7.5 65q0 35 5.5 75.5t15.5 82t24 82t30 76.5q-19 3 -45 9 t-51 11q-29 6 -59 14q-11 2 -14.5 6.5t-3.5 11.5q0 14 7 41l18 56l18 58l15 41q4 9 11 11q18 5 24 5.5t8 0.5q5 0 8 -8q5 -17 20.5 -46t35.5 -56q5 -2 19 -6l31 -10l33 -10q17 -6 28 -9q18 -6 15 -28q-4 -42 -5.5 -90.5t-2 -99t0.5 -99.5t2 -92t10.5 -102t24 -123.5 t32 -129.5t34.5 -120q149 12 242.5 41.5t139.5 94.5q27 39 45.5 87.5t32 117.5t24.5 162.5t23 221.5q1 19 -11.5 33t-35 23t-53 13t-64.5 4q-21 -25 -39.5 -60t-35 -75t-30.5 -83.5t-24 -85.5q-4 -12 -20 -9l-69 10q-8 2 -10.5 8t-3.5 15q-1 15 1 48t6.5 72.5t10.5 79.5 t14 69q11 41 21 72.5t23.5 53t31.5 32.5t44 11q42 0 96.5 -15t108 -37.5t99.5 -48.5t71 -47q15 -14 24.5 -27.5t14.5 -30.5t6 -38t-1 -50zM632 341q-10 0 -24.5 10t-28 23.5t-23 28.5t-9.5 24t10 24t24 28.5t28.5 23.5t22.5 10q9 0 23.5 -10.5t28 -25t23.5 -29t10 -22.5 q0 -9 -10 -23.5t-24 -28t-28.5 -23.5t-22.5 -10z" />
<glyph unicode="&#xfb39;" horiz-adv-x="642" d="M537 896q0 -38 -13.5 -95.5t-36 -121t-50.5 -125.5t-56 -108q-9 -17 -30 -11l-77 22q-7 2 -9 8t0 13q13 40 25.5 84.5t22.5 89.5t17 88t11 81q5 42 3 73q-66 6 -113 13t-78 13q-36 7 -61 15q-17 5 -17 17q0 14 7.5 41.5t17.5 57.5t20 55.5t14 36.5q4 8 6.5 10t8.5 4 q12 2 19.5 4t10.5 2q5 0 8 -8q8 -19 21 -47.5t35 -55.5l161 -7q66 -2 99.5 -42.5t33.5 -106.5zM156 622q-10 0 -24.5 10t-28 23.5t-23 28.5t-9.5 24t10 24t24 28.5t28.5 23.5t22.5 10q9 0 23.5 -10.5t28 -25t23.5 -29t10 -22.5q0 -9 -10 -23.5t-24 -28t-28.5 -23.5 t-22.5 -10z" />
<glyph unicode="&#xfb3a;" horiz-adv-x="944" d="M827 -370q0 -16 -18 -19l-75 -10l-48 -7q-19 -2 -28 -2.5t-12 -0.5q-8 0 -8 10v1121q0 49 -11 83.5t-30.5 56t-46 31t-57.5 9.5h-236l-181 31q-11 2 -14.5 6.5t-3.5 12.5q0 15 7 42t17 56l20 56l15 40q2 7 11 10q12 3 20.5 4.5t10.5 1.5q7 0 9 -7q5 -18 20 -47t35 -56 h259q105 0 172.5 -22.5t105.5 -66t52.5 -106.5t14.5 -143v-1084zM347 437q-10 0 -24.5 10t-28 23.5t-23 28.5t-9.5 24t10 24t24 28.5t28.5 23.5t22.5 10q9 0 23.5 -10.5t28 -25t23.5 -29t10 -22.5q0 -9 -10 -23.5t-24 -28t-28.5 -23.5t-22.5 -10z" />
<glyph unicode="&#xfb3b;" horiz-adv-x="957" d="M838 434q0 -96 -26.5 -176t-76 -137.5t-121 -89t-160.5 -31.5h-353q-23 0 -23 16q0 5 3.5 31t15.5 77q5 15 24 18q14 0 39.5 1.5t56 2.5t62 2.5t59.5 3.5l47 2q20 1 27 1q117 2 174.5 74t57.5 197v330q0 81 -30.5 113.5t-80.5 32.5h-258l-177 31q-12 2 -15 6.5t-3 12.5 q0 13 7 39t16 54.5t19 54.5l14 42q3 8 5.5 10t8.5 4q17 4 23 5t8 1q8 0 10 -7q5 -17 19 -46.5t36 -56.5h310q66 0 118 -15.5t88.5 -51t56 -93.5t19.5 -144v-314zM358 437q-10 0 -24.5 10t-28 23.5t-23 28.5t-9.5 24t10 24t24 28.5t28.5 23.5t22.5 10q9 0 23.5 -10.5t28 -25 t23.5 -29t10 -22.5q0 -9 -10 -23.5t-24 -28t-28.5 -23.5t-22.5 -10z" />
<glyph unicode="&#xfb3c;" horiz-adv-x="979" d="M872 1052q10 0 13 -3t6 -11q4 -12 10.5 -39.5t6.5 -52.5q0 -7 -6.5 -22t-23.5 -50l-422 -881q-7 -16 -26 -11q-66 14 -100.5 23t-54.5 13q-8 4 -9.5 10t0.5 11l132 268l122 244l106 207q50 94 90 159q-31 -6 -78 -9t-119.5 -4.5t-175.5 -1.5h-245q-16 0 -16 17v437 q-20 13 -47 22t-53 11q-8 2 -8 9q0 5 1.5 17.5t2.5 17.5q2 11 17 15q100 33 160 47.5t77 14.5q11 0 13 -11q1 -6 4 -21.5t6 -33.5t5.5 -35.5t2.5 -29.5v-327h609zM311 558q-10 0 -24.5 10t-28 23.5t-23 28.5t-9.5 24t10 24t24 28.5t28.5 23.5t22.5 10q9 0 23.5 -10.5t28 -25 t23.5 -29t10 -22.5q0 -9 -10 -23.5t-24 -28t-28.5 -23.5t-22.5 -10z" />
<glyph unicode="&#xfb3e;" horiz-adv-x="1153" d="M1049 156q0 -10 -2 -18t-4 -14l-13 -29l-17 -35q-10 -20 -20 -43q-5 -11 -11.5 -14t-14.5 -3h-421q-22 0 -22 18q0 4 3 25.5t15 79.5q2 7 8 12.5t17 6.5l63 4l75 4l78 4q39 2 74 2v523q0 49 -13 90t-35.5 70.5t-53 46t-65.5 16.5h-190q-3 -8 -18 -41.5t-33.5 -80.5 t-36 -102t-26.5 -105l-10 -59q-4 -36 -10 -78l-12 -89l-12 -92l-28 -228q-3 -17 -19 -20l-85 -10l-54 -7q-20 -2 -28 -2.5t-10 -0.5q-8 -1 -11.5 4t-2.5 13l14 96l22 134l28 158l32 171q7 35 26 80t45 91t58.5 90t66.5 78l-254 31q-11 2 -14.5 6.5t-3.5 12.5q0 13 7 40 t17 56l20 56q10 27 15 42q4 8 13 11q14 3 21 4t9 1q7 0 8 -7q8 -20 21.5 -48t34.5 -55h362q97 0 171.5 -30.5t124.5 -86.5t75.5 -134.5t25.5 -174.5v-470zM622 437q-10 0 -24.5 10t-28 23.5t-23 28.5t-9.5 24t10 24t24 28.5t28.5 23.5t22.5 10q9 0 23.5 -10.5t28 -25 t23.5 -29t10 -22.5q0 -9 -10 -23.5t-24 -28t-28.5 -23.5t-22.5 -10z" />
<glyph unicode="&#xfb40;" horiz-adv-x="690" d="M565 156q0 -20 -6 -32l-13 -28l-15 -34q-9 -19 -18 -41q-6 -13 -15.5 -17t-23.5 -4h-434q-20 0 -20 16q0 5 4 34t14 70q5 17 25 20q31 3 68.5 5t78 4.5t81.5 4t79 2.5v736l-208 41q-11 3 -14.5 7.5t-3.5 11.5q0 13 7 39t16.5 55t19.5 56t15 44q2 5 4 6.5t8 3.5q27 6 32 6 t7 -8l23 -46q14 -30 34 -56q33 -6 65 -11q27 -5 55.5 -11t48.5 -11q17 -6 30 -25q28 -45 42 -116t14 -152v-570zM189 437q-10 0 -24.5 10t-28 23.5t-23 28.5t-9.5 24t10 24t24 28.5t28.5 23.5t22.5 10q9 0 23.5 -10.5t28 -25t23.5 -29t10 -22.5q0 -9 -10 -23.5t-24 -28 t-28.5 -23.5t-22.5 -10z" />
<glyph unicode="&#xfb41;" horiz-adv-x="1208" d="M1101 1034l-31 -378q-14 -163 -31 -260q-20 -99 -60.5 -168t-101.5 -117q-42 -33 -94.5 -57t-117.5 -40t-144.5 -25t-176.5 -12q-16 0 -19 12q-5 25 -17 75l-28 112l-31 128l-29 124q-14 58 -22.5 99t-8.5 54q2 36 9 76.5t18.5 82t26.5 83t32 78.5l-49 9q-32 6 -64 11 l-79 13q-8 2 -10 6t-2 12q0 12 7 38q6 27 16 56l20 56l14 41q4 8 6 9.5t7 3.5q15 4 22.5 5t10.5 1q2 0 5 -5q8 -20 24.5 -49t37.5 -56h842q8 0 13 -5t5 -13zM375 902q-1 -44 -1.5 -90t0.5 -90.5t2.5 -85t4.5 -71.5q3 -40 12.5 -93t23 -111.5t29 -119t32.5 -116.5 q100 7 170 30t114.5 59.5t67 85t28.5 106.5q0 2 4 36l8 84l10 110l11 114l9 96q4 42 4 56h-529zM625 437q-10 0 -24.5 10t-28 23.5t-23 28.5t-9.5 24t10 24t24 28.5t28.5 23.5t22.5 10q9 0 23.5 -10.5t28 -25t23.5 -29t10 -22.5q0 -9 -10 -23.5t-24 -28t-28.5 -23.5 t-22.5 -10z" />
<glyph unicode="&#xfb43;" horiz-adv-x="1166" d="M1050 -368q0 -21 -19 -22l-76 -10q-29 -4 -46.5 -6t-25.5 -2.5t-11 -0.5q-12 0 -12 11v1120q0 49 -10.5 83t-28.5 55.5t-43 31.5t-55 10h-291q-8 -45 -14 -96.5t-10.5 -102.5t-8 -99.5t-4.5 -87.5h160l43 -31q6 -5 6.5 -11.5t-1.5 -13.5l-46 -126q-5 -11 -21 -8l-204 37 l-96 -37q-10 -3 -14 1l-19 22q-3 4 -3.5 9t-0.5 10q0 6 1.5 23t3.5 37l4 42q2 20 4 33q4 28 32 128.5t100 273.5l-138 28q-11 2 -15 6.5t-4 12.5q0 9 5.5 30t13.5 48q10 26 20 56l19 56q4 8 5.5 10t6.5 4q17 5 23.5 5.5t8.5 0.5q7 0 9 -7q5 -17 19.5 -46.5t35.5 -56.5h403 q64 0 118 -20.5t93 -62t61 -105t22 -150.5v-1082zM716 323q-10 0 -24.5 10t-28 23.5t-23 28.5t-9.5 24t10 24t24 28.5t28.5 23.5t22.5 10q9 0 23.5 -10.5t28 -25t23.5 -29t10 -22.5q0 -9 -10 -23.5t-24 -28t-28.5 -23.5t-22.5 -10z" />
<glyph unicode="&#xfb44;" horiz-adv-x="1109" d="M992 434q1 -96 -25.5 -176t-77.5 -137t-124.5 -89t-166.5 -32h-463q-22 0 -20 16q0 7 3.5 35.5t12.5 73.5q3 15 25 17q12 0 36 1t55.5 2t67.5 2l72 2q84 3 183 6q51 1 94 20t73.5 54.5t47.5 85t17 111.5v330q0 41 -8.5 69t-23.5 45t-35 24.5t-44 7.5h-345 q-12 -71 -18.5 -144t-7.5 -140h174l43 -33q11 -8 5 -25l-45 -119q-5 -12 -20 -9l-223 38l-94 -38q-11 -3 -15 2l-19 21q-3 3 -3.5 8.5t0.5 11.5l7 47q4 32 12 72q3 18 14.5 52.5t27.5 77.5l37 90l40 91l-126 28q-11 2 -14 6.5t-3 12.5q0 13 6.5 38.5t15.5 53.5l18 56l15 42 q3 8 5.5 10t8.5 4q17 4 23.5 5t8.5 1q5 0 8 -8q5 -17 20 -46t36 -56h441q133 0 200.5 -74t67.5 -230v-314zM658 429q-10 0 -24.5 10t-28 23.5t-23 28.5t-9.5 24t10 24t24 28.5t28.5 23.5t22.5 10q9 0 23.5 -10.5t28 -25t23.5 -29t10 -22.5q0 -9 -10 -23.5t-24 -28 t-28.5 -23.5t-22.5 -10z" />
<glyph unicode="&#xfb46;" horiz-adv-x="1084" d="M1024 1042q0 -1 -3 -17l-7 -36l-8 -41l-6 -30q-3 -16 -17 -16h-56l-55 9l-48 -89l-55 -103l-60 -111q-31 -57 -59 -114l68 -95l63 -95l54 -85l39 -64q5 -8 5 -21q0 -6 -5.5 -36.5t-19.5 -81.5q-4 -16 -23 -16h-745q-22 0 -20 16q1 8 3 36t13 72q5 17 24 18q18 1 63 2.5 t104 3t124 3t122 3t99 2.5t55 1q-27 47 -67 105l-90 124l-105 138l-113 142l-114 142l-104 131q-4 5 -4 15q0 16 7.5 43t17.5 55l19 54l14 36q4 8 6.5 9.5t8.5 3.5q10 3 18.5 5t11.5 2q5 0 8 -7q1 -5 7 -21l14 -34l16 -35.5t14 -27.5l87 -116l95 -127l93 -125l81 -110 q23 148 64 299t90 284q3 8 5 10t7 4q14 4 22 5t11 1q4 0 7 -8q1 -5 5.5 -16.5t11 -26t15.5 -30.5t20 -29h159q13 0 13 -10zM318 261q-10 0 -24.5 10t-28 23.5t-23 28.5t-9.5 24t10 24t24 28.5t28.5 23.5t22.5 10q9 0 23.5 -10.5t28 -25t23.5 -29t10 -22.5q0 -9 -10 -23.5 t-24 -28t-28.5 -23.5t-22.5 -10z" />
<glyph unicode="&#xfb47;" horiz-adv-x="1199" d="M1108 1038q7 -18 13 -45t6 -47q0 -7 -8.5 -27t-20.5 -45l-401 -880q-8 -17 -27 -12l-52 12l-46 11l-34 9l-18 4q-7 2 -8 9t2 14l84 191l70 159l62 137l59 124q38 75 75 140t75 122q-8 0 -29 -2t-53 -4t-73 -4t-89 -2h-405l-196 31q-11 2 -14.5 6.5t-3.5 12.5q0 11 6.5 35 t15 52t18.5 55l15 45q4 8 7 11t9 5q11 4 20 5.5t11 1.5q5 0 8 -8q6 -17 20.5 -46t34.5 -56h848q16 0 19 -14zM360 -369q0 -9 -4 -15t-15 -7l-83 -9l-46 -6q-16 -2 -22.5 -2.5t-9.5 -0.5q-10 0 -10 12q0 210 1 372t3.5 284.5t6.5 209t10 146.5q2 20 17 23l62 8l39 6.5 t22.5 3.5t11.5 1q15 0 15 -19zM548 524q-10 0 -24.5 10t-28 23.5t-23 28.5t-9.5 24t10 24t24 28.5t28.5 23.5t22.5 10q9 0 23.5 -10.5t28 -25t23.5 -29t10 -22.5q0 -9 -10 -23.5t-24 -28t-28.5 -23.5t-22.5 -10z" />
<glyph unicode="&#xfb48;" horiz-adv-x="948" d="M831 24q0 -16 -18 -19q-47 -5 -77 -9l-48 -6q-18 -2 -27 -2.5t-13 -0.5q-10 0 -10 10v725q0 50 -11 84.5t-30 55.5t-43.5 30.5t-52.5 9.5h-257l-181 31q-12 2 -15 6.5t-3 11.5q0 17 7.5 47t17.5 60l18 54q8 24 11 28q5 8 7 10.5t8 4.5q13 4 21.5 5.5t11.5 1.5q5 0 8 -8 q5 -14 19 -44t37 -58h275q79 0 143 -13.5t109 -51t69 -103.5t24 -170v-690zM347 437q-10 0 -24.5 10t-28 23.5t-23 28.5t-9.5 24t10 24t24 28.5t28.5 23.5t22.5 10q9 0 23.5 -10.5t28 -25t23.5 -29t10 -22.5q0 -9 -10 -23.5t-24 -28t-28.5 -23.5t-22.5 -10z" />
<glyph unicode="&#xfb49;" horiz-adv-x="1449" d="M1357 1033q0 -10 -1.5 -42.5t-5 -78.5t-9 -102.5t-13.5 -113.5t-18 -111.5t-22 -97.5q-31 -111 -88.5 -202.5t-157 -157.5t-247.5 -102t-359 -36q-14 0 -19 3t-12 13q-36 56 -65.5 126t-52.5 148.5t-41 161.5t-31 165t-21.5 159t-13.5 143q-29 6 -55 12.5t-44 12.5 q-11 4 -14.5 7.5t-3.5 11.5q0 13 6.5 37t15 50.5t17.5 51.5l14 40q5 15 8.5 19t10.5 6q11 3 19 4.5t10 1.5q6 0 9 -8q5 -17 20 -46t35 -56h116q23 0 23 -22q0 -90 1 -177t8 -174.5t22 -176t42 -180.5q69 46 113.5 93t70.5 105t36 131.5t9 171.5q-1 20 -1.5 40t-2.5 39h-107 q-25 0 -20 27l17 101q5 22 27 22h252q8 0 12.5 -5t5.5 -13q1 -89 -3 -170t-12.5 -150t-22 -123t-30.5 -88q-25 -49 -57.5 -87.5t-72.5 -70t-88.5 -56t-105.5 -45.5q10 -34 22 -62l26 -64q67 2 142.5 13t148 36.5t136 68t106.5 105.5q21 31 39 80t32 105.5t24 116t17 111.5 t10.5 92.5t3.5 59.5q-16 -3 -34 -3.5t-34 -0.5h-51q-8 0 -14 6t-4 17l15 100q2 12 10.5 19.5t20.5 7.5h262q8 0 14 -5.5t5 -13.5zM946 420q-10 0 -24.5 10t-28 23.5t-23 28.5t-9.5 24t10 24t24 28.5t28.5 23.5t22.5 10q9 0 23.5 -10.5t28 -25t23.5 -29t10 -22.5 q0 -9 -10 -23.5t-24 -28t-28.5 -23.5t-22.5 -10z" />
<glyph unicode="&#xfb4a;" horiz-adv-x="1213" d="M1097 26q0 -17 -19 -21q-45 -5 -76 -9l-50 -6q-19 -2 -28 -2.5t-11 -0.5q-10 0 -10 10v725q0 49 -10.5 83t-28.5 55.5t-43 31.5t-55 10h-339q-4 -20 -6.5 -43.5t-3.5 -50.5q-1 -61 3 -128.5t9 -135.5t12 -132t14 -118l13 -92q6 -38 8 -55q0 -8 -1 -16.5t-3 -16.5l-23 -95 q-4 -19 -27 -19h-386q-10 0 -13 3t-3 11q0 3 1.5 13.5t4.5 24.5l6 30l7 31q4 14 21 17l44 6q22 3 48.5 5.5t57.5 4.5l71 6q-19 131 -32 249t-13 219q0 28 7.5 64t21 74t32 75t40.5 69l-206 31q-13 2 -16.5 6.5t-3.5 12.5q0 13 7.5 40.5t17.5 57.5l21 58q10 28 15 40 q4 7 11 8q16 4 22 5t9 1q5 0 7 -7l23 -48q14 -28 33 -55h476q76 0 139.5 -12.5t109 -49t70.5 -103t25 -173.5v-688zM659 437q-10 0 -24.5 10t-28 23.5t-23 28.5t-9.5 24t10 24t24 28.5t28.5 23.5t22.5 10q9 0 23.5 -10.5t28 -25t23.5 -29t10 -22.5q0 -9 -10 -23.5t-24 -28 t-28.5 -23.5t-22.5 -10z" />
<glyph unicode="&#xfb4b;" horiz-adv-x="580" d="M457 24q0 -16 -19 -19l-82 -9l-46 -6q-16 -2 -23 -2.5t-10 -0.5q-12 0 -12 14v891l-193 42q-20 4 -20 18q0 13 7 38.5t16.5 54t19.5 55t15 41.5q6 13 14 15q4 1 16 3.5t13 2.5q6 1 9 -8l22 -46q14 -30 36 -56q28 -7 54 -12l48 -10q24 -5 43 -10q20 -4 37 -28t29 -63 t19 -91t7 -112v-702zM324 1166q-10 0 -24.5 10t-28 23.5t-23 28.5t-9.5 24t10 24t24 28.5t28.5 23.5t22.5 10q9 0 23.5 -10.5t28 -25t23.5 -29t10 -22.5q0 -9 -10 -23.5t-24 -28t-28.5 -23.5t-22.5 -10z" />
<glyph unicode="&#xfb4c;" horiz-adv-x="1019" d="M1008 148q0 -5 -5 -35.5t-18 -94.5q-2 -11 -7.5 -14.5t-15.5 -3.5h-881q-19 0 -19 14q0 5 3.5 30.5t12.5 73.5q4 20 27 22q13 1 40 2.5l61 3.5q35 0 74 2l76 4q37 2 69.5 2h54.5q57 0 121 1t118 1q-18 20 -33 45.5t-26.5 54t-18 58t-6.5 58.5v350q0 49 -10.5 83t-29 55.5 t-43.5 31.5t-55 10h-228l-178 31q-11 2 -14 6.5t-3 12.5q1 15 8.5 42t17.5 56l18 55q9 26 14 39q2 6 4.5 8t8.5 4q14 4 21.5 5t9.5 1q7 0 8 -8q5 -17 20 -46t35 -56h245q104 0 170.5 -21.5t105 -63.5t53.5 -105.5t15 -147.5v-171v-71q0 -36 0.5 -71t0.5 -65v-53 q0 -42 10 -76t21 -48h135q13 0 13 -11zM-6 1246q0 6 4 24l16 63q3 11 6.5 13.5t11.5 2.5h416q16 0 16 -13q0 -3 -3 -20.5t-14 -52.5q-2 -8 -6.5 -10t-10.5 -3q-47 -3 -106 -6t-118.5 -4.5t-112.5 -2.5t-88 -1q-11 0 -11 10z" />
<glyph unicode="&#xfb4d;" horiz-adv-x="957" d="M838 434q0 -96 -26.5 -176t-76 -137.5t-121 -89t-160.5 -31.5h-353q-23 0 -23 16q0 5 3.5 31t15.5 77q5 15 24 18q14 0 39.5 1.5t56 2.5t62 2.5t59.5 3.5l47 2q20 1 27 1q117 2 174.5 74t57.5 197v330q0 81 -30.5 113.5t-80.5 32.5h-258l-177 31q-12 2 -15 6.5t-3 12.5 q0 13 7 39t16 54.5t19 54.5l14 42q3 8 5.5 10t8.5 4q17 4 23 5t8 1q8 0 10 -7q5 -17 19 -46.5t36 -56.5h310q66 0 118 -15.5t88.5 -51t56 -93.5t19.5 -144v-314zM-6 1246q0 6 4 24l16 63q3 11 6.5 13.5t11.5 2.5h416q16 0 16 -13q0 -3 -3 -20.5t-14 -52.5q-2 -8 -6.5 -10 t-10.5 -3q-47 -3 -106 -6t-118.5 -4.5t-112.5 -2.5t-88 -1q-11 0 -11 10z" />
<glyph unicode="&#xfb4e;" horiz-adv-x="1109" d="M992 434q1 -96 -25.5 -176t-77.5 -137t-124.5 -89t-166.5 -32h-463q-22 0 -20 16q0 7 3.5 35.5t12.5 73.5q3 15 25 17q12 0 36 1t55.5 2t67.5 2l72 2q84 3 183 6q51 1 94 20t73.5 54.5t47.5 85t17 111.5v330q0 41 -8.5 69t-23.5 45t-35 24.5t-44 7.5h-345 q-12 -71 -18.5 -144t-7.5 -140h174l43 -33q11 -8 5 -25l-45 -119q-5 -12 -20 -9l-223 38l-94 -38q-11 -3 -15 2l-19 21q-3 3 -3.5 8.5t0.5 11.5l7 47q4 32 12 72q3 18 14.5 52.5t27.5 77.5l37 90l40 91l-126 28q-11 2 -14 6.5t-3 12.5q0 13 6.5 38.5t15.5 53.5l18 56l15 42 q3 8 5.5 10t8.5 4q17 4 23.5 5t8.5 1q5 0 8 -8q5 -17 20 -46t36 -56h441q133 0 200.5 -74t67.5 -230v-314zM-6 1246q0 6 4 24l16 63q3 11 6.5 13.5t11.5 2.5h416q16 0 16 -13q0 -3 -3 -20.5t-14 -52.5q-2 -8 -6.5 -10t-10.5 -3q-47 -3 -106 -6t-118.5 -4.5t-112.5 -2.5 t-88 -1q-11 0 -11 10z" />
<glyph unicode="&#xfb4f;" horiz-adv-x="1131" d="M1039 918q-3 -16 -17 -16h-51l-61 10q-20 -34 -48 -88l-58 -113l-62 -117l-56 -100l58 -75l62 -81l58 -78l52 -68l39 -52q16 -22 22 -29q5 -8 5 -14.5t-7 -16.5q-25 -34 -55.5 -61.5t-54.5 -46.5q-12 -7 -19 4l-42 61l-53 75l-59 82l-60 83l-56 76l-47 62l-143 177 l-120 146l-96 114l-69 79q-12 14 -15.5 31t-3.5 40v344q-20 13 -47 22t-53 12q-8 1 -8 8q0 5 1.5 17.5t2.5 17.5q1 10 17 15l51 16l68 20q36 10 67.5 17.5t48.5 9.5q10 1 13 -11q1 -7 4 -22.5t6 -33.5t5 -35.5t2 -28.5q1 -101 2 -181q0 -34 1 -67t1.5 -59.5t1.5 -43.5t3 -18 l185 -220l180 -221q10 66 28 144t40.5 156.5t47 151.5t47.5 129q2 8 4.5 10.5t7.5 4.5l33 6q3 0 6 -8q1 -5 6 -16q4 -12 12 -26l17 -31q9 -16 19 -29h150q12 0 12 -13z" />
</font>
</defs>
</svg>
